<?xml version="1.0" encoding="utf-8"?>
<svg id="master-artboard" viewBox="0 0 1203.916259765625 1159.3448486328125" version="1.1" xmlns="http://www.w3.org/2000/svg" x="0px" y="0px" style="enable-background:new 0 0 1400 980;" width="1203.916259765625px" height="1159.3448486328125px"><rect id="ee-background" x="0" y="0" width="1203.916259765625" height="1159.3448486328125" style="fill: white; fill-opacity: 0; pointer-events: none;"/><defs><style id="ee-google-fonts">@import url(https://fonts.googleapis.com/css?family=Fjalla+One:400|Roboto:100,100italic,300,300italic,400,400italic,500,500italic,700,700italic,900,900italic);</style><pattern y="0" x="0" height="6" width="6" patternUnits="userSpaceOnUse" id="EMFhbasepattern"/></defs>











































<g transform="matrix(1, 0, 0, 1, -7.173759460449219, 50.216529846191406)">
		<path class="st13" d="M448.4,599.9" style="fill: rgb(223, 243, 251);"/>
	</g>





















































<g transform="matrix(0.9577245712280273, 0, 0, 0.9577245712280273, 127.08481216430664, 50.216548919677734)"><rect id="rect-1" x="0" y="0" width="1181.4285888671875" height="1023.2589721679688" style="fill: white; fill-opacity: 0; pointer-events: none;"/><g transform="matrix(1, 0, 0, 1, -177.58928680419922, 4.547473237814098e-13)">
		<path class="st13" d="M448.4,599.9" style="fill: rgb(223, 243, 251);"/>
	</g><g transform="matrix(1.4649248123168945, 0, 0, 1.4649248123168945, 32.41069793701172, 0.000017370499335811473)"><metadata id="metadata195">
    
  </metadata><path id="path7" d="  M 127.99905,50.639625   C 127.99905,4.2399686 90.39933,-33.359753 43.999674,-33.359753   C -2.3999822,-33.359753 -39.999704,4.2399686 -39.999704,50.639625   C -39.999704,97.039281 -2.3999822,134.639 43.999674,134.639   C 90.39933,134.639 127.99905,97.039281 127.99905,50.639625   z " style="fill:#f4ac2d;fill-rule:nonzero;fill-opacity:1;stroke:none;"/><path id="path9" d="  M 479.99644,57.359575   C 479.99644,34.479745 461.51658,15.999881 438.63675,15.999881   C 415.83692,15.999881 397.35706,34.479745 397.35706,57.359575   C 397.35706,80.159406 415.83692,98.639269 438.63675,98.639269   C 461.51658,98.639269 479.99644,80.159406 479.99644,57.359575   z " style="fill:#85b0e2;fill-rule:nonzero;fill-opacity:1;stroke:none;"/><path id="path11" d="  M 99.999259,382.63717   C 99.999259,370.87725 90.47933,361.35732 78.639417,361.35732   C 66.879505,361.35732 57.359575,370.87725 57.359575,382.63717   C 57.359575,394.47708 66.879505,403.99701 78.639417,403.99701   C 90.47933,403.99701 99.999259,394.47708 99.999259,382.63717   z " style="fill:#e2d7ef;fill-rule:nonzero;fill-opacity:1;stroke:none;"/><path id="path13" d="  M 75.999437,693.35486   C 75.999437,642.55524 34.799742,601.35555 -15.999881,601.35555   C -66.799505,601.35555 -107.9992,642.55524 -107.9992,693.35486   C -107.9992,744.15449 -66.799505,785.35418 -15.999881,785.35418   C 34.799742,785.35418 75.999437,744.15449 75.999437,693.35486   z " style="fill:#85b0e2;fill-rule:nonzero;fill-opacity:1;stroke:none;"/><path id="path15" d="  M 734.63456,150.63888   C 734.63456,111.59917 703.03479,79.999407 663.99508,79.999407   C 624.95537,79.999407 593.3556,111.59917 593.3556,150.63888   C 593.3556,189.67859 624.95537,221.35836 663.99508,221.35836   C 703.03479,221.35836 734.63456,189.67859 734.63456,150.63888   z " style="fill:#ef3074;fill-rule:nonzero;fill-opacity:1;stroke:none;"/><path id="path17" d="  M 646.63521,407.99698   C 646.63521,398.39705 638.87527,390.63711 629.35534,390.63711   C 619.75541,390.63711 611.99547,398.39705 611.99547,407.99698   C 611.99547,417.59691 619.75541,425.35685 629.35534,425.35685   C 638.87527,425.35685 646.63521,417.59691 646.63521,407.99698   z " style="fill:#f4ac2d;fill-rule:nonzero;fill-opacity:1;stroke:none;"/><path id="path19" d="  M 691.99487,690.63488   C 691.99487,644.23523 654.39515,606.63551 607.9955,606.63551   C 561.59584,606.63551 523.99612,644.23523 523.99612,690.63488   C 523.99612,737.03454 561.59584,774.63426 607.9955,774.63426   C 654.39515,774.63426 691.99487,737.03454 691.99487,690.63488   z " style="fill:#e2d7ef;fill-rule:nonzero;fill-opacity:1;stroke:none;"/><path id="path23" d="  M 283.2779,351.1174   L 294.31782,305.75774   C 294.07782,302.31776 290.63785,299.67778 287.19787,300.87777   C 287.03787,300.95777 286.87787,300.95777 286.79788,301.03777   C 281.99791,302.79776 276.63795,303.19775 271.35799,301.91776   C 253.27812,297.5178 244.07819,275.51796 257.67809,258.55808   C 261.11807,254.31812 266.07803,251.43814 271.51799,250.39815   C 282.23791,248.47816 291.43784,252.23813 297.2778,258.79808   L 297.2778,258.79808   C 299.83778,261.59806 304.15775,260.79807 305.91773,257.83809   L 316.87765,212.63842   C 319.03764,203.59849 313.51768,194.55856 304.55774,192.39857   L 165.99877,158.79882   C 157.03884,156.63884 147.9989,162.1588 145.83892,171.11873   L 112.23917,309.67771   C 110.07918,318.63764 115.59914,327.67757 124.55908,329.83756   L 168.31875,340.47748   C 172.47872,341.51747 173.99871,346.79743 170.79873,349.67741   L 170.71874,349.75741   C 164.15878,355.51737 160.39881,364.7173 162.3988,375.51722   C 163.43879,380.87718 166.31877,385.83714 170.55874,389.27712   C 187.51861,402.87702 209.51845,393.67708 213.91842,375.59722   C 215.19841,370.31726 214.79841,364.9573 213.03842,360.23733   C 212.95842,360.07733 212.87842,359.91733 212.87842,359.83733   C 211.43843,355.75736 215.11841,351.83739 219.27838,352.87739   L 263.03805,363.43731   C 272.07798,365.59729 281.11792,360.07733 283.2779,351.1174   z " style="fill:#85b0e2;fill-rule:nonzero;fill-opacity:1;stroke:none;"/><path id="path25" d="  M 171.11873,158.31883   L 171.11873,158.31883   C 171.11873,155.51885 169.27875,152.87887 166.39877,151.99887   L 166.39877,151.99887   C 165.75877,151.83888 165.19878,151.75888 164.55878,151.75888   C 161.6788,151.75888 159.11882,153.59886 158.23883,156.47884   C 158.07883,157.11884 157.99883,157.75883 157.99883,158.31883   C 157.99883,161.19881 159.83882,163.83879 162.71879,164.63878   C 163.43879,164.79878 164.15878,164.39878 164.39878,163.75879   C 164.55878,163.03879 164.15878,162.2388 163.51879,162.0788   C 161.7588,161.5988 160.63881,159.99881 160.63881,158.31883   C 160.63881,157.99883 160.71881,157.59883 160.79881,157.27883   C 161.27881,155.51885 162.87879,154.39886 164.55878,154.39886   C 164.95878,154.39886 165.27878,154.47886 165.67877,154.55886   L 165.67877,154.55886   C 167.35876,155.11885 168.47875,156.63884 168.47875,158.31883   L 168.47875,158.31883   C 168.47875,159.03882 169.03875,159.67882 169.75874,159.67882   C 170.55874,159.67882 171.11873,159.03882 171.11873,158.31883   z " style="fill:#262540;fill-rule:nonzero;fill-opacity:1;stroke:none;"/><path id="path27" d="  M 306.15773,191.35858   L 306.15773,191.35858   C 306.15773,188.4786 304.23775,185.83862 301.35777,185.03863   C 300.79777,184.87863 300.15778,184.79863 299.59778,184.79863   C 296.7178,184.79863 294.07782,186.63862 293.27783,189.5186   C 293.11783,190.07859 293.03783,190.71859 293.03783,191.35858   C 293.03783,194.15856 294.87782,196.79854 297.75779,197.59854   C 298.47779,197.83853 299.19778,197.43854 299.35778,196.71854   C 299.59778,195.99855 299.19778,195.27855 298.47779,195.03856   C 296.7978,194.55856 295.67781,193.03857 295.67781,191.35858   C 295.67781,190.95859 295.75781,190.63859 295.83781,190.23859   C 296.31781,188.5586 297.83779,187.43861 299.59778,187.43861   C 299.91778,187.43861 300.31778,187.51861 300.63777,187.59861   C 302.31776,188.07861 303.43775,189.67859 303.43775,191.35858   L 303.43775,191.35858   C 303.43775,192.07858 304.07775,192.63857 304.79774,192.63857   C 305.51774,192.63857 306.15773,192.07858 306.15773,191.35858   z " style="fill:#262540;fill-rule:nonzero;fill-opacity:1;stroke:none;"/><path id="path29" d="  M 166.07877,155.43885   L 245.67818,105.43922   C 246.31818,105.03922 246.55817,104.23923 246.15818,103.59923   C 245.75818,103.03924 244.95819,102.79924 244.31819,103.19924   L 164.63878,153.19887   C 163.99879,153.59886 163.83879,154.39886 164.23878,155.03885   C 164.63878,155.67885 165.43877,155.83885 166.07877,155.43885   z " style="fill:#f4ac2d;fill-rule:nonzero;fill-opacity:1;stroke:none;"/><path id="path31" d="  M 251.67814,101.99924   C 250.39815,103.35923 248.55816,104.31923 246.55817,104.39923   C 246.39817,104.39923 246.15818,104.47923 245.99818,104.47923   C 241.99821,104.47923 238.63823,101.35925 238.39823,97.279279   C 238.39823,97.119281 238.31823,96.959282 238.31823,96.799283   C 238.31823,92.799313 241.43821,89.359338 245.51818,89.11934   C 245.67818,89.11934 245.83818,89.11934 245.99818,89.11934   C 247.03817,89.11934 248.07816,89.359338 248.95816,89.679336   L 250.55814,90.319331   L 252.23813,80.639403   C 252.39813,79.919408 251.91813,79.199413 251.19814,79.119414   C 250.47814,78.959415 249.75815,79.439412 249.59815,80.159406   L 248.15816,88.239346   L 249.51815,88.479345   L 249.99815,87.279353   C 248.79816,86.719358 247.43817,86.479359 245.99818,86.479359   C 245.83818,86.479359 245.59818,86.479359 245.35818,86.479359   C 239.83822,86.799357 235.67825,91.359323 235.67825,96.799283   C 235.67825,97.039281 235.67825,97.19928 235.67825,97.439278   C 236.07825,102.95924 240.63822,107.11921 245.99818,107.11921   C 246.23818,107.11921 246.47817,107.11921 246.71817,107.11921   C 249.43815,106.87921 251.91813,105.67922 253.59812,103.75923   C 254.15812,103.19924 254.07812,102.39924 253.51812,101.91925   C 253.03813,101.35925 252.15813,101.43925 251.67814,101.99924   z " style="fill:#262540;fill-rule:nonzero;fill-opacity:1;stroke:none;"/><path id="path33" d="  M 254.47811,77.839423   L 255.75811,77.759424   C 255.59811,75.59944 253.91812,73.999452 251.75814,73.999452   L 251.51814,73.999452   C 249.43815,74.159451 247.75816,75.919438 247.75816,77.999422   L 247.75816,78.31942   L 247.75816,78.31942   C 247.91816,80.399404 249.67815,81.999393 251.75814,81.999393   L 252.07813,81.999393   C 254.15812,81.839394 255.75811,80.079407 255.75811,77.999422   L 255.75811,77.759424   L 254.47811,77.839423   L 253.11813,77.919423   L 253.11813,77.999422   C 253.11813,78.719417 252.55813,79.279413 251.83813,79.359412   L 251.75814,79.359412   C 251.11814,79.359412 250.47814,78.799416 250.47814,78.079422   L 250.47814,78.079422   L 250.47814,77.999422   C 250.47814,77.359427 250.95814,76.719432 251.67814,76.719432   L 251.75814,76.719432   C 252.47813,76.719432 253.03813,77.199428 253.11813,77.919423   L 254.47811,77.839423   z " style="fill:#262540;fill-rule:nonzero;fill-opacity:1;stroke:none;"/><path id="path35" d="  M 243.91819,105.03922   L 298.23779,187.75861   C 298.63779,188.31861 299.43778,188.4786 300.07778,188.07861   C 300.71777,187.67861 300.87777,186.87862 300.47777,186.23862   L 246.15818,103.59923   C 245.75818,102.95924 244.87819,102.79924 244.23819,103.19924   C 243.67819,103.59923 243.5182,104.47923 243.91819,105.03922   z " style="fill:#f4ac2d;fill-rule:nonzero;fill-opacity:1;stroke:none;"/><path id="path37" d="  M 322.63761,412.47694   L 275.91796,412.47694   C 272.55798,413.43694 270.79799,417.35691 272.87798,420.47689   L 273.03798,420.87688   C 275.91796,425.03685 277.59794,430.15681 277.59794,435.59677   C 277.59794,454.23664 258.31809,468.31653 238.71823,459.1166   C 233.75827,456.71662 229.7583,452.63665 227.51831,447.59668   C 223.03835,437.67676 224.55834,427.83683 229.5183,420.63688   L 229.5983,420.55688   C 231.67828,417.43691 229.9183,413.43694 226.55832,412.47694   L 180.07867,412.47694   C 170.79873,412.47694 163.35879,419.91689 163.35879,429.19682   L 163.35879,571.67577   C 163.35879,580.9557 170.79873,588.47564 180.07867,588.47564   L 322.63761,588.47564   C 331.83754,588.47564 339.35749,580.9557 339.35749,571.67577   L 339.35749,526.6361   C 339.35749,522.31613 344.15745,519.67615 347.67742,522.07613   L 347.75742,522.15613   C 354.95737,527.1161 364.7973,528.63608 374.71722,524.15612   C 379.75719,521.91613 383.91716,517.91616 386.23714,512.9562   C 395.43707,493.35635 381.35718,474.07649 362.71731,474.07649   C 357.27735,474.07649 352.15739,475.75648 347.99742,478.55646   L 347.59743,478.79645   C 344.07745,481.11644 339.35749,478.47646 339.35749,474.23649   L 339.35749,429.19682   C 339.35749,419.91689 331.83754,412.47694 322.63761,412.47694   z " style="fill:#ef3074;fill-rule:nonzero;fill-opacity:1;stroke:none;"/><path id="path39" d="  M 389.99711,429.19682   L 389.99711,475.91647   C 390.9571,479.19645 394.95707,480.95644 398.07705,478.95645   L 398.39705,478.71645   C 402.63702,475.83648 407.75698,474.15649 413.19694,474.15649   C 431.7568,474.15649 445.9167,493.43634 436.63677,513.1162   C 434.31678,518.07616 430.15681,521.99613 425.19685,524.23612   C 415.19692,528.71608 405.357,527.27609 398.15705,522.23613   L 398.07705,522.15613   C 395.03707,520.07615 390.9571,521.83613 389.99711,525.19611   L 389.99711,571.67577   C 389.99711,580.9557 397.51706,588.47564 406.71699,588.47564   L 549.27593,588.47564   C 558.47586,588.47564 565.99581,580.9557 565.99581,571.67577   L 565.99581,429.19682   C 565.99581,419.91689 558.47586,412.47694 549.27593,412.47694   L 504.15627,412.47694   C 499.9163,412.47694 497.19632,407.67698 499.6763,404.15701   L 499.6763,404.07701   C 504.71626,396.79706 506.15625,387.03713 501.75628,377.03721   C 499.4363,371.99724 495.51633,367.91727 490.55637,365.59729   C 470.87651,356.31736 451.59665,370.47726 451.59665,389.03712   C 451.59665,394.47708 453.27664,399.59704 456.15662,403.83701   L 456.39662,404.15701   C 458.7166,407.75698 456.07662,412.47694 451.83665,412.47694   L 406.71699,412.47694   C 397.51706,412.47694 389.99711,419.91689 389.99711,429.19682   z " style="fill:#5a3a9e;fill-rule:nonzero;fill-opacity:1;stroke:none;"/><path id="path41" d="  M 432.71679,180.87866   C 432.71679,180.87866 430.39681,178.87867 427.83683,178.15868   C 425.19685,177.43869 427.91683,180.23866 427.91683,180.23866   C 427.91683,180.23866 423.91686,180.15867 421.83688,181.51866   C 419.75689,182.87865 424.79685,186.63862 430.63681,188.4786   L 432.71679,180.87866   z " style="fill:#f4ac2d;fill-rule:nonzero;fill-opacity:1;stroke:none;"/><path id="path43" d="  M 479.67645,172.63872   C 477.27646,171.67873 475.11648,171.99873 472.5565,172.23872   C 469.35652,172.55872 465.03656,174.63871 462.15658,175.8387   C 459.2766,177.11869 456.31662,178.07868 453.35664,178.87867   C 451.11666,179.51867 448.79668,179.99867 446.55669,179.59867   C 444.31671,179.11867 442.39672,177.91868 440.15674,177.59868   C 436.23677,176.95869 432.1568,179.59867 430.63681,183.27864   C 429.11682,186.95862 429.91682,191.35858 432.2368,194.63856   C 432.95679,195.67855 433.83679,196.63854 434.87678,197.35854   C 436.55677,198.47853 438.63675,198.87853 440.63674,199.11853   C 452.07665,200.39852 463.43657,195.43855 472.5565,188.3986   C 474.63648,186.79862 476.79647,184.79863 477.19647,182.23865   L 479.67645,172.63872   z " style="fill:#5a3a9e;fill-rule:nonzero;fill-opacity:1;stroke:none;"/><path id="path45" d="  M 510.39622,236.31825   C 510.39622,236.31825 517.11617,237.11824 521.11614,237.11824   C 525.11611,237.11824 527.0361,235.19826 520.87614,233.59827   C 516.39617,232.39828 516.39617,231.67828 512.15621,228.47831   C 510.87622,227.59831 508.63623,228.55831 508.63623,228.55831   C 508.63623,228.55831 507.99624,232.07828 510.39622,236.31825   z " style="fill:#6c76c3;fill-rule:nonzero;fill-opacity:1;stroke:none;"/><path id="path47" d="  M 464.07656,232.71828   C 464.07656,232.71828 466.07655,236.23825 462.95657,236.31825   C 459.83659,236.31825 446.79669,236.39825 445.1967,236.39825   C 443.67671,236.39825 445.1967,232.87827 454.71663,232.79828   C 468.95653,232.71828 464.07656,232.71828 464.07656,232.71828   z " style="fill:#6c76c3;fill-rule:nonzero;fill-opacity:1;stroke:none;"/><path id="path49" d="  M 451.67665,495.83633   L 463.19657,492.63635   C 463.19657,492.63635 467.99653,489.35638 484.87641,513.75619   C 501.75628,538.23601 513.0362,591.83562 513.0362,591.83562   L 501.67628,591.83562   C 497.03632,574.23575 459.75659,527.35609 459.5966,526.6361   C 459.5966,526.6361 455.51663,506.87625 451.67665,495.83633   z " style="fill:#6c76c3;fill-rule:nonzero;fill-opacity:1;stroke:none;"/><path id="path51" d="  M 451.67665,495.83633   C 447.35669,497.59631 442.07673,500.1563 436.31677,503.99627   C 436.31677,503.99627 424.47686,521.51614 421.35688,542.63598   C 418.2369,563.75582 425.11685,579.11571 438.47675,591.11562   L 448.47668,591.11562   C 448.47668,591.11562 437.99676,575.35574 439.59674,561.51584   C 441.11673,547.75594 459.3566,525.9961 459.5966,526.6361   C 459.5966,526.6361 463.51657,509.51623 451.67665,495.83633   z " style="fill:#7189cd;fill-rule:nonzero;fill-opacity:1;stroke:none;"/><path id="path53" d="  M 194.15856,492.79635   C 194.15856,492.79635 197.03854,491.51636 199.67852,491.51636   C 202.3185,491.51636 199.03853,493.51634 199.03853,493.51634   C 199.03853,493.51634 202.8785,494.47634 204.47849,496.31632   C 206.15847,498.15631 200.31852,500.47629 194.15856,500.63629   L 194.15856,492.79635   z " style="fill:#f4ac2d;fill-rule:nonzero;fill-opacity:1;stroke:none;"/><path id="path55" d="  M 474.07649,205.51848   C 474.07649,205.51848 465.11655,194.07856 454.95663,195.03856   C 444.71671,195.99855 441.99673,215.7584 453.83664,231.27829   L 454.71663,232.79828   L 464.07656,232.71828   C 464.07656,232.71828 462.39657,220.47837 461.75658,216.71839   C 461.03658,212.95842 468.63653,220.23837 471.75651,222.47835   C 474.87648,224.63834 489.11638,224.07834 487.27639,210.31844   C 485.3564,196.55854 474.07649,205.51848 474.07649,205.51848   z " style="fill:#ef3074;fill-rule:nonzero;fill-opacity:1;stroke:none;"/><path id="path57" d="  M 454.71663,232.79828   L 454.71663,232.79828   L 453.83664,231.27829   C 448.39668,224.15834 445.9967,216.1584 445.9967,209.51845   C 445.9967,201.59851 449.35667,195.51855 454.95663,195.03856   C 455.35663,194.95856 455.75662,194.95856 456.15662,194.95856   C 465.83655,194.95856 474.07649,205.51848 474.07649,205.51848   C 474.07649,205.51848 477.75646,202.7185 481.19644,202.7185   C 483.83642,202.7185 486.4764,204.39849 487.27639,210.31844   C 487.35639,211.19844 487.43639,211.99843 487.43639,212.71842   C 487.43639,220.95836 480.87644,223.43834 476.15647,223.43834   C 474.23649,223.43834 472.6365,223.03835 471.75651,222.47835   C 469.27652,220.71837 463.91656,215.6784 462.23658,215.6784   C 461.91658,215.6784 461.67658,215.8384 461.67658,216.3184   C 461.67658,216.3984 461.67658,216.5584 461.75658,216.71839   C 462.39657,220.47837 464.07656,232.71828 464.07656,232.71828   L 454.71663,232.79828   z " style="fill:#eb1f61;fill-rule:nonzero;fill-opacity:1;stroke:none;"/><path id="path59" d="  M 506.55625,205.51848   C 506.55625,205.51848 511.43621,209.99844 513.75619,215.7584   C 515.99618,221.51836 510.23622,226.39832 508.95623,227.27832   C 507.59624,228.23831 511.19621,236.71825 511.19621,236.71825   C 511.19621,236.71825 491.67636,239.43823 474.55648,237.51824   C 457.43661,235.67825 462.23658,226.31832 467.59654,222.47835   C 472.8765,218.63838 493.43634,209.83845 493.43634,209.83845   L 506.55625,205.51848   z " style="fill:#ef3074;fill-rule:nonzero;fill-opacity:1;stroke:none;"/><path id="path61" d="  M 152.63887,505.35626   L 124.15908,502.79628   C 124.15908,502.79628 115.99914,518.63616 116.47914,529.19608   C 117.03913,539.676 119.99911,553.3559 111.67917,571.99576   C 103.35923,590.63562 101.19925,595.35559 101.19925,595.35559   C 101.19925,595.35559 106.31921,596.31558 111.67917,595.35559   C 111.67917,595.35559 124.15908,584.47567 132.47902,568.15579   C 139.43897,554.55589 141.67895,538.39601 142.15895,533.27605   z " style="fill:#7947a8;fill-rule:nonzero;fill-opacity:1;stroke:none;"/><path id="path63" d="  M 142.15895,533.27605   C 142.31895,532.23606 142.31895,531.67606 142.31895,531.67606   C 142.31895,531.67606 157.03884,543.83597 161.8388,556.31588   C 166.63877,568.79579 157.99883,594.3156 157.99883,594.3156   C 157.99883,594.3156 162.3188,595.35559 167.99876,594.4756   C 167.99876,594.4756 177.83868,583.67568 181.35866,568.15579   C 184.87863,552.63591 182.31865,541.99599 167.83876,523.19612   C 153.35886,504.31626 152.63887,505.35626 152.63887,505.35626   z " style="fill:#5a3a9e;fill-rule:nonzero;fill-opacity:1;stroke:none;"/><path id="path65" d="  M 473.83649,165.83877   C 470.07652,167.67876 465.51655,167.67876 461.67658,165.91877   C 459.1966,164.63878 456.79662,161.7588 458.07661,159.19882   C 458.6366,158.07883 459.75659,157.35883 460.71659,156.47884   C 462.71657,154.63885 463.67657,151.83888 465.11655,149.43889   C 466.47654,146.95891 468.79653,144.63893 471.59651,144.79893   C 473.51649,144.87893 475.35648,146.15892 477.19647,145.51892   C 478.31646,145.19892 479.11645,144.23893 479.99644,143.51894   C 481.67643,142.15895 483.91642,141.51895 485.9964,142.07895   C 488.07638,142.63894 489.75637,144.55893 489.83637,146.63891   C 489.83637,148.1589 489.19638,149.59889 489.59637,151.03888   C 490.39637,153.43886 493.75634,153.91886 495.35633,155.91885   C 497.27632,158.39883 495.51633,162.2388 492.79635,163.75879   C 489.99637,165.27878 486.71639,165.11878 483.59642,165.19878   C 479.99644,165.35878 476.39647,165.75877 472.8765,166.55877   z " style="fill:#262540;fill-rule:nonzero;fill-opacity:1;stroke:none;"/><path id="path67" d="  M 418.1569,448.63668   C 418.1569,448.63668 413.83693,451.51666 415.03693,456.79662   C 416.15692,462.15658 417.51691,464.63656 421.03688,465.03656   C 424.47686,465.35655 430.47681,463.51657 431.3568,458.4766   C 432.1568,453.51664 424.63685,444.63671 418.1569,448.63668   z " style="fill:#f4ac2d;fill-rule:nonzero;fill-opacity:1;stroke:none;"/><path id="path69" d="  M 140.63896,464.63656   C 140.63896,464.63656 145.75892,441.91673 164.23878,432.5568   L 164.23878,446.23669   L 148.7989,470.79651   L 140.63896,464.63656   z " style="fill:#6c76c3;fill-rule:nonzero;fill-opacity:1;stroke:none;"/><path id="path71" d="  M 148.7989,470.79651   L 140.63896,464.63656   C 140.63896,464.63656 145.75892,441.91673 164.23878,432.5568   L 164.23878,446.23669   L 163.35879,447.59668   L 148.7989,470.79651   z " style="fill:#4c58b0;fill-rule:nonzero;fill-opacity:1;stroke:none;"/><path id="path73" d="  M 151.75888,463.11657   C 151.75888,463.11657 159.35882,461.51658 163.59879,470.23652   C 167.75876,478.87645 171.59873,483.75642 177.59868,486.87639   C 183.59864,489.99637 195.11855,488.47638 195.75855,493.11635   C 196.47854,497.75631 196.47854,504.47626 186.23862,503.11627   C 175.9987,501.75628 171.11873,500.63629 167.59876,498.23631   C 167.59876,498.23631 166.47877,503.99627 165.99877,507.99624   C 165.59877,511.99621 167.11876,517.11617 154.63885,519.99615   C 142.23895,522.87613 131.35903,521.75614 121.9991,515.75618   C 112.63917,509.75622 131.99902,473.35649 134.639,469.75652   C 137.35898,466.23655 145.99892,455.51663 155.11885,461.11658   L 151.75888,463.11657   z " style="fill:#7189cd;fill-rule:nonzero;fill-opacity:1;stroke:none;"/><path id="path75" d="  M 166.47877,450.15667   C 163.83879,448.15668 161.11881,447.99668 157.59883,448.87667   C 153.99886,449.75667 153.75886,456.31662 153.75886,456.31662   C 153.59886,455.03663 150.15889,453.35664 149.59889,457.11661   C 148.8789,461.35658 152.87887,461.03658 152.87887,461.03658   C 152.87887,461.51658 152.95887,462.31658 153.27886,463.11657   C 154.15886,463.03657 155.11885,463.11657 155.91885,463.43657   C 158.71882,464.55656 160.63881,465.51655 162.1588,467.75654   C 167.03876,467.51654 168.47875,464.31656 169.11875,459.1166   C 169.99874,452.07665 166.47877,450.15667 166.47877,450.15667   z " style="fill:#f4ac2d;fill-rule:nonzero;fill-opacity:1;stroke:none;"/><path id="path77" d="  M 151.91887,453.51664   C 151.91887,454.23664 151.83888,454.95663 152.07887,455.59663   C 152.23887,456.31662 152.79887,456.87662 153.43886,457.03661   C 154.39886,457.19661 155.27885,456.47662 155.67885,455.67662   C 156.15884,454.87663 156.39884,453.91664 156.87884,453.19664   C 157.59883,452.15665 158.87882,451.51666 160.15881,451.51666   C 161.03881,451.59665 161.9188,451.91665 162.79879,452.15665   C 166.79876,453.27664 171.35873,451.51666 173.51871,448.07668   C 174.31871,446.79669 174.79871,445.2767 174.47871,443.83671   C 174.15871,442.31672 172.79872,441.03673 171.35873,441.19673   C 169.75874,441.27673 168.63875,442.79672 167.11876,443.27672   C 165.43877,443.91671 163.51879,443.19672 161.7588,443.11672   C 158.71882,442.95672 155.51885,444.47671 153.91886,447.03669   C 152.31887,449.51667 152.23887,450.79666 151.91887,453.51664   z " style="fill:#262540;fill-rule:nonzero;fill-opacity:1;stroke:none;"/><path id="path79" d="  M 167.59876,498.23631   C 164.31878,496.71632 153.43886,487.99639 151.91887,481.91643   C 151.91887,481.91643 155.35885,504.47626 165.99877,507.99624   L 167.59876,498.23631   z " style="fill:#262540;fill-rule:nonzero;fill-opacity:1;stroke:none;"/><path id="path81" d="  M 479.03645,438.55675   C 479.03645,438.55675 479.35645,435.43677 480.71644,433.11679   C 482.07643,430.87681 482.07643,434.71678 482.07643,434.71678   C 482.07643,434.71678 484.87641,431.9168 487.27639,431.4368   C 489.75637,430.95681 488.79638,437.11676 485.7564,442.55672   L 479.03645,438.55675   z " style="fill:#f4ac2d;fill-rule:nonzero;fill-opacity:1;stroke:none;"/><path id="path83" d="  M 378.87719,483.99641   C 378.87719,483.99641 376.79721,481.67643 374.31723,480.63644   C 371.83725,479.67645 374.15723,482.79642 374.15723,482.79642   C 374.15723,482.79642 370.23726,482.23643 367.99727,483.27642   C 365.75729,484.31641 370.23726,488.71638 375.83722,491.27636   L 378.87719,483.99641   z " style="fill:#f4ac2d;fill-rule:nonzero;fill-opacity:1;stroke:none;"/><path id="path85" d="  M 435.67677,460.63659   C 435.67677,460.63659 427.67683,461.35658 422.15687,462.47657   C 416.63691,463.67657 413.19694,465.51655 408.47697,473.19649   C 403.83701,480.79644 397.35706,484.15641 393.99708,484.63641   C 388.15712,485.5164 383.59716,483.27642 381.51717,482.79642   C 376.87721,481.83643 371.03725,490.15637 377.19721,495.19633   C 383.35716,500.1563 402.31702,505.83625 415.67692,489.51637   C 415.67692,489.51637 417.8369,497.67631 427.19684,496.31632   C 427.19684,496.31632 432.1568,501.99628 436.31677,503.99627   C 436.31677,503.99627 447.19669,495.83633 463.19657,492.63635   C 463.19657,492.63635 461.03658,483.03642 457.03661,477.03647   C 457.03661,477.03647 472.6365,477.03647 481.35643,461.03658   C 489.99637,445.0367 486.1564,438.47675 481.03644,437.67676   C 475.83648,436.79676 473.19649,448.31668 469.03653,451.99665   C 464.87656,455.67662 460.15659,459.5166 447.67668,458.15661   C 435.19678,456.79662 435.67677,460.63659 435.67677,460.63659   z " style="fill:#e2d7ef;fill-rule:nonzero;fill-opacity:1;stroke:none;"/><path id="path87" d="  M 416.15692,447.35669   C 415.43692,448.15668 413.99693,449.83667 413.59694,450.87666   C 413.27694,451.91665 413.27694,453.11664 414.07693,453.91664   C 414.87693,454.87663 416.39692,454.87663 417.59691,454.47663   C 418.8769,454.07664 419.91689,453.35664 421.19688,453.03664   C 424.47686,452.23665 428.23683,454.95663 428.39683,458.3966   C 428.47683,460.47659 427.51683,462.39657 427.03684,464.39656   C 426.55684,466.39655 426.71684,468.95653 428.55683,469.99652   C 431.3568,471.67651 434.79678,468.07653 438.07675,468.71653   C 440.23674,469.11653 441.59673,471.27651 443.43672,472.4765   C 446.1567,474.31649 449.91667,473.91649 452.87665,472.4765   C 455.11663,471.35651 457.11661,469.59652 458.07661,467.27654   C 459.0366,464.95656 458.7966,462.07658 457.19661,460.15659   C 455.75662,458.4766 453.19664,457.35661 453.03664,455.19663   C 452.95664,453.75664 453.91664,452.47665 454.15664,451.11666   C 454.63663,448.55668 452.55665,446.1567 450.15667,445.3567   C 447.83668,444.47671 445.1167,444.47671 442.63672,445.2767   C 440.47674,445.9967 437.83676,447.59668 435.35678,447.19669   C 433.91679,446.87669 431.11681,445.2767 429.67682,444.79671   C 424.95685,443.43672 421.19688,443.67671 416.15692,447.35669   z " style="fill:#262540;fill-rule:nonzero;fill-opacity:1;stroke:none;"/><path id="path89" d="  M 479.27645,172.07873   C 486.3164,166.79876 496.95632,168.15875 503.67627,173.75871   C 510.47622,179.43867 513.75619,188.31861 514.39619,197.11854   C 514.55619,199.19852 514.47619,201.35851 513.4362,203.1185   C 512.6362,204.47849 511.27621,205.43848 509.91622,206.23847   C 503.91627,209.91845 497.03632,211.83843 490.07637,212.47843   C 484.47641,213.03842 478.39646,212.55843 473.99649,209.03845   C 469.03653,204.95848 467.59654,197.99853 467.67654,191.59858   C 467.75654,187.35861 468.31653,183.03864 470.23652,179.19867   C 472.0765,175.4387 475.51648,172.15872 479.59645,171.19873   z " style="fill:#7947a8;fill-rule:nonzero;fill-opacity:1;stroke:none;"/><path id="path91" d="  M 470.79651,215.3584   C 470.79651,215.3584 467.67654,215.8384 465.43655,217.27839   C 463.19657,218.79838 467.11654,218.55838 467.11654,218.55838   C 467.11654,218.55838 464.47656,221.51836 464.07656,223.99834   C 463.67657,226.39832 469.83652,225.19833 475.11648,221.91836   L 470.79651,215.3584   z " style="fill:#f4ac2d;fill-rule:nonzero;fill-opacity:1;stroke:none;"/><path id="path93" d="  M 449.67667,591.83562   C 449.67667,591.83562 450.39666,594.71559 447.27669,594.71559   L 429.51682,594.71559   C 427.91683,594.71559 429.51682,591.27562 439.03675,591.19562   C 450.15667,591.03562 449.67667,591.83562 449.67667,591.83562   z " style="fill:#ef3074;fill-rule:nonzero;fill-opacity:1;stroke:none;"/><path id="path95" d="  M 157.35883,595.03559   C 157.35883,595.03559 156.63884,597.91557 159.75882,597.91557   L 177.59868,597.91557   C 179.11867,597.91557 177.51869,594.4756 167.99876,594.3156   C 156.87884,594.1556 157.35883,595.03559 157.35883,595.03559   z " style="fill:#262540;fill-rule:nonzero;fill-opacity:1;stroke:none;"/><path id="path97" d="  M 100.71925,595.03559   C 100.71925,595.03559 99.999259,597.91557 103.11924,597.91557   L 120.8791,597.91557   C 122.47909,597.91557 120.8791,594.4756 111.35918,594.3156   C 100.23926,594.1556 100.71925,595.03559 100.71925,595.03559   z " style="fill:#262540;fill-rule:nonzero;fill-opacity:1;stroke:none;"/><path id="path99" d="  M 513.5162,591.83562   C 513.5162,591.83562 514.23619,594.71559 511.11621,594.71559   L 493.35635,594.71559   C 491.75636,594.71559 493.35635,591.27562 502.87627,591.19562   C 513.99619,591.03562 513.5162,591.83562 513.5162,591.83562   z " style="fill:#ef3074;fill-rule:nonzero;fill-opacity:1;stroke:none;"/><path id="path101" d="  M 441.83673,508.71623   L 450.87666,504.47626   L 454.47663,512.07621   L 451.59665,518.47616   L 444.71671,515.75618   L 441.83673,508.71623  z " style="fill:#85b0e2;fill-rule:nonzero;fill-opacity:1;stroke:none;"/><path id="path103" d="  M 461.35658,501.59628   L 470.47651,497.35632   L 474.07649,504.95626   L 471.11651,511.35621   L 464.31656,508.63623   L 461.35658,501.59628  z " style="fill:#7189cd;fill-rule:nonzero;fill-opacity:1;stroke:none;"/><path id="path105" d="  M 262.95805,52.479611   C 262.95805,52.479611 261.27806,47.519648 260.15807,45.519663   C 259.11808,43.519678 259.03808,48.399641 259.03808,48.399641   C 259.03808,48.399641 252.79813,45.679662 250.31815,47.839646   C 247.83816,49.99963 259.51808,57.759572 259.51808,57.759572   L 262.95805,52.479611   z " style="fill:#f4ac2d;fill-rule:nonzero;fill-opacity:1;stroke:none;"/><path id="path107" d="  M 308.63771,117.91913   L 282.23791,102.31924   C 282.23791,102.31924 274.07797,110.87918 259.59808,132.15902   C 245.03818,153.51886 231.99828,171.75873 231.99828,171.75873   C 231.99828,171.75873 236.31825,174.31871 241.67821,174.63871   C 241.67821,174.63871 275.99796,150.39889 288.15787,134.639   z " style="fill:#7189cd;fill-rule:nonzero;fill-opacity:1;stroke:none;"/><path id="path109" d="  M 303.67775,115.51914   L 309.75771,118.47912   C 309.75771,118.47912 310.4777,128.95904 310.3977,138.47897   C 310.2377,148.0789 309.43771,157.35883 301.51777,166.15877   C 293.59783,174.9587 278.15794,182.87865 278.15794,182.87865   C 271.03799,183.51864 267.75802,180.07867 267.75802,180.07867   C 294.23782,161.11881 288.15787,134.639 288.15787,134.639   L 303.67775,115.51914   z " style="fill:#6c76c3;fill-rule:nonzero;fill-opacity:1;stroke:none;"/><path id="path111" d="  M 323.5176,72.479463   C 323.5176,72.479463 318.47764,67.679499 304.07775,66.639506   C 289.67785,65.519515 281.03792,59.35956 272.95798,53.039607   C 264.79804,46.719654 254.95811,51.919615 260.15807,61.759543   C 265.35803,71.59947 278.07794,79.759409 290.31785,81.279398   C 290.31785,81.279398 283.9179,91.919319 281.35792,97.839275   C 278.87793,103.83923 280.15792,107.8392 285.59788,112.15917   C 291.11784,116.39914 303.27775,122.79909 309.03771,124.23908   C 314.79767,125.67907 326.39758,118.31912 334.23752,101.91925   C 334.23752,101.91925 340.15748,107.11921 337.1175,114.87915   C 334.15752,122.63909 321.99761,115.99914 320.15763,124.39908   C 318.23764,132.79902 330.63755,135.67899 340.71748,130.07904   C 350.7974,124.39908 361.59732,97.439278 338.95749,80.879401   L 330.15755,79.039415   C 330.15755,79.039415 323.9176,78.879416 323.5176,72.479463   z " style="fill:#ef3074;fill-rule:nonzero;fill-opacity:1;stroke:none;"/><path id="path113" d="  M 321.03762,76.639432   C 320.79762,75.999437 328.23757,68.559492 328.23757,68.559492   C 328.23757,68.559492 323.8376,67.599499 326.79758,63.599529   C 329.19756,60.319553 331.03755,64.559522 331.03755,64.559522   C 331.03755,64.559522 333.75753,59.679558 337.5175,60.479552   C 341.27747,61.199547 347.19743,64.159525 347.19743,64.159525   C 347.19743,64.159525 347.19743,67.679499 345.59744,70.799476   C 344.23745,73.359457 341.19747,80.079407 338.55749,79.359412   C 335.91751,78.639417 333.43753,77.919423 333.43753,77.919423   L 330.15755,79.039415   C 330.15755,79.039415 323.4376,82.719387 321.03762,76.639432   z " style="fill:#f4ac2d;fill-rule:nonzero;fill-opacity:1;stroke:none;"/><path id="path115" d="  M 322.79761,122.87909   C 322.79761,122.87909 318.39764,120.39911 315.27766,123.19909   C 312.07769,126.07907 315.75766,134.15901 322.95761,129.99904   L 322.79761,122.87909   z " style="fill:#f4ac2d;fill-rule:nonzero;fill-opacity:1;stroke:none;"/><path id="path117" d="  M 335.83751,60.879549   C 336.47751,59.839557 335.67751,58.319568 334.47752,57.99957   C 333.27753,57.679573 331.99754,58.319568 331.19755,59.199561   C 330.39755,60.159554 329.99756,61.359545 329.59756,62.559537   C 328.71757,65.039518 327.91757,67.5195 327.03758,69.999481   C 326.39758,72.079466 325.67759,74.23945 326.07758,76.319435   C 326.39758,77.919423 327.35758,79.359412 328.39757,80.559403   C 329.91756,82.39939 331.83754,83.919378 334.07753,84.479374   C 336.31751,85.119369 338.95749,84.559374 340.47748,82.719387   C 341.27747,81.679395 341.67747,80.399404 342.07747,79.199413   C 342.47746,77.759424 342.87746,76.319435 343.35746,74.879445   C 340.55748,74.879445 337.7575,73.999452 335.59751,72.319464   C 334.87752,71.759468 334.15752,71.119473 333.83753,70.319479   C 333.19753,68.479493 334.31752,66.639506 335.35752,65.039518   C 336.39751,63.43953 337.4375,61.359545 336.47751,59.679558   z " style="fill:#262540;fill-rule:nonzero;fill-opacity:1;stroke:none;"/><path id="path119" d="  M 335.03752,60.159554   C 334.95752,58.959563 335.83751,57.839572 336.9575,57.279576   C 337.4375,57.039577 337.9175,56.879579 338.39749,56.879579   C 339.59748,56.879579 340.55748,57.759572 341.59747,58.319568   C 343.83745,59.519559 346.55743,59.199561 349.11741,59.279561   C 350.6374,59.35956 352.47739,59.759557 352.95739,61.199547   C 353.43738,62.799535 351.99739,64.319524 350.4774,64.959519   C 347.91742,66.15951 344.79745,66.079511 342.23746,64.879519   C 339.59748,63.599529 337.5975,61.119547 334.87752,60.079555   z " style="fill:#262540;fill-rule:nonzero;fill-opacity:1;stroke:none;"/><path id="path121" d="  M 267.75802,180.07867   C 267.75802,180.07867 263.91805,183.83864 268.39801,183.91864   C 272.79798,183.91864 277.19795,187.99861 282.71791,188.07861   C 288.31786,188.15861 284.0779,185.91862 280.79792,185.19863   C 277.43794,184.47863 278.15794,182.87865 278.15794,182.87865   L 267.75802,180.07867   z " style="fill:#5a3a9e;fill-rule:nonzero;fill-opacity:1;stroke:none;"/><path id="path123" d="  M 231.99828,171.75873   C 231.99828,171.75873 228.39831,175.5187 232.55828,175.5987   C 236.63825,175.6787 240.71822,179.67867 245.91818,179.75867   C 251.03814,179.83867 247.19817,177.59868 244.07819,176.87869   C 241.03821,176.1587 241.67821,174.63871 241.67821,174.63871   L 231.99828,171.75873   z " style="fill:#5a3a9e;fill-rule:nonzero;fill-opacity:1;stroke:none;"/><path id="path125" d="  M 309.03771,124.23908   C 309.03771,124.23908 287.27787,118.63912 280.47792,102.07924   L 276.79795,108.2392   C 276.79795,108.2392 285.43789,123.43909 309.03771,124.23908   z " style="fill:#262540;fill-rule:nonzero;fill-opacity:1;stroke:none;"/><path id="path127" d="  M 334.23752,101.91925   L 336.31751,98.319272   C 336.31751,98.319272 340.23748,103.35923 337.7575,110.63918   C 337.7575,110.63918 336.8775,103.35923 334.23752,101.91925   z " style="fill:#262540;fill-rule:nonzero;fill-opacity:1;stroke:none;"/><path id="path129" d="  M 290.31785,81.279398   L 292.55783,77.999422   C 292.55783,77.999422 278.23794,77.759424 269.678,73.039459   C 269.678,73.039459 280.39792,81.199399 290.31785,81.279398   z " style="fill:#262540;fill-rule:nonzero;fill-opacity:1;stroke:none;"/><path id="path131" d="  M 473.75649,152.63887   C 473.75649,152.63887 467.99653,153.11887 468.47653,159.11882   C 468.95653,165.11878 470.07652,171.35873 476.79647,170.15874   L 477.43646,174.63871   C 477.43646,174.63871 482.79642,175.0387 486.95639,169.67874   L 485.3564,162.5588   C 485.3564,162.5588 486.1564,149.27889 473.75649,152.63887   z " style="fill:#f4ac2d;fill-rule:nonzero;fill-opacity:1;stroke:none;"/><path id="path133" d="  M 465.35655,153.91886   C 465.83655,155.75885 467.67654,157.03884 469.59652,157.35883   C 471.51651,157.67883 473.43649,157.27883 475.27648,156.95884   C 477.19647,156.55884 479.19645,156.31884 481.03644,156.79884   C 482.47643,157.19884 483.91642,158.55883 483.51642,159.99881   C 483.35642,160.55881 482.87642,161.03881 482.79642,161.5988   C 482.47643,162.87879 483.75642,163.99879 485.03641,164.23878   C 486.79639,164.55878 488.71638,163.99879 489.91637,162.71879   C 491.11636,161.3588 491.51636,159.43882 491.03636,157.75883   C 490.71637,156.55884 489.99637,155.59885 489.19638,154.71885   C 486.0764,151.35888 481.59643,149.27889 477.11647,149.1189   C 472.5565,148.8789 467.91653,150.63888 464.63656,153.83886   z " style="fill:#262540;fill-rule:nonzero;fill-opacity:1;stroke:none;"/><path id="path135" d="  M 489.91637,180.55866   C 489.91637,180.55866 485.9164,197.67854 476.95647,201.43851   C 467.99653,205.11848 468.95653,200.47851 468.95653,200.47851   C 468.95653,200.47851 469.03653,207.43846 478.07646,212.07843   C 478.07646,212.07843 495.11633,198.71853 489.91637,180.55866   z " style="fill:#262540;fill-rule:nonzero;fill-opacity:1;stroke:none;"/><path id="path137" d="  M 503.99627,209.19845   C 503.99627,209.19845 506.31625,197.91853 502.55628,187.27861   C 502.55628,187.27861 499.3563,210.63844 495.03633,212.31843   C 495.03633,212.31843 500.0763,211.27843 503.99627,209.19845   z " style="fill:#262540;fill-rule:nonzero;fill-opacity:1;stroke:none;"/><path id="path139" d="  M 504.15627,187.75861   C 504.15627,195.75855 502.87627,203.91849 498.71631,210.63844   C 494.55634,217.43839 487.19639,222.55835 479.27645,222.47835   C 476.87647,222.47835 474.47649,221.99836 472.5565,220.55837   C 470.71651,219.11838 469.43652,216.6384 469.99652,214.31841   C 470.39652,212.87842 471.43651,211.59843 472.6365,210.63844   C 475.03648,208.71845 478.07646,207.67846 480.47644,205.91847   C 482.39643,204.47849 483.91642,202.5585 485.19641,200.55851   C 488.79638,194.63856 490.55637,187.51861 489.91637,180.55866   z " style="fill:#7947a8;fill-rule:nonzero;fill-opacity:1;stroke:none;"/><path id="path141" d="  M 509.03623,230.55829   L 508.47623,227.83831   C 508.47623,227.83831 491.99636,230.1583 485.03641,230.55829   C 485.03641,230.55829 500.1563,231.59828 509.03623,230.55829   z " style="fill:#262540;fill-rule:nonzero;fill-opacity:1;stroke:none;"/><path id="path143" d="  M 406.71699,412.47694   L 453.43664,412.47694   C 456.79662,411.43695 458.4766,407.51698 456.47662,404.397   L 456.23662,403.99701   C 453.43664,399.83704 451.75665,394.71708 451.75665,389.27712   C 451.75665,370.63725 470.95651,356.55736 490.63637,365.75729   C 495.59633,368.15727 499.5963,372.23724 501.83628,377.27721   C 506.31625,387.27713 504.79626,397.03706 499.8363,404.23701   L 499.7563,404.31701   C 497.67631,407.43698 499.4363,411.43695 502.79628,412.47694   L 549.27593,412.47694   C 558.47586,412.47694 565.99581,404.957 565.99581,395.67707   L 565.99581,253.19812   C 565.99581,243.91819 558.47586,236.47825 549.27593,236.47825   L 406.71699,236.47825   C 397.51706,236.47825 389.99711,243.91819 389.99711,253.19812   L 389.99711,298.23779   C 389.99711,302.55776 385.19715,305.19774 381.67717,302.79776   L 381.59717,302.71776   C 374.39723,297.75779 364.5573,296.23781 354.63737,300.71777   C 349.59741,302.95776 345.43744,306.95773 343.11746,311.91769   C 333.91753,331.59754 347.99742,350.7974 366.63728,350.7974   C 372.07724,350.7974 377.19721,349.11741 381.35718,346.31743   L 381.75717,346.07744   C 385.27715,343.75745 389.99711,346.39743 389.99711,350.6374   L 389.99711,395.67707   C 389.99711,404.957 397.51706,412.47694 406.71699,412.47694   z " style="fill:#f4ac2d;fill-rule:nonzero;fill-opacity:1;stroke:none;"/><path id="path145" d="  M 268.55801,2.6399804   L 251.67814,75.119444   C 251.59814,75.679439 251.91813,76.159436 252.47813,76.319435   C 252.95813,76.399434 253.51812,76.079436 253.67812,75.59944   L 270.558,3.1199769   C 270.638,2.559981 270.318,1.9999852 269.758,1.9199858   C 269.27801,1.759987 268.71801,2.0799846 268.55801,2.6399804   z " style="fill:#7947a8;fill-rule:nonzero;fill-opacity:1;stroke:none;"/></g></g></svg>