<svg xmlns="http://www.w3.org/2000/svg" id="master-artboard" width="1400" height="980" x="0" y="0" enable-background="new 0 0 336 235.2" version="1.1" viewBox="0 0 1400 980"><rect id="ee-background" width="1400" height="980" x="0" y="0" fill="#fff" fill-opacity="0" pointer-events="none"/><g transform="matrix(1.4649245760393061, 0, 0, 1.4649245760393061, 209.9999905854056, 0)"><metadata id="metadata253"/><path id="path7" fill="#fcd20f" fill-opacity="1" fill-rule="nonzero" stroke="none" d="M 332.15754,270.638 L 269.358,270.638 L 269.358,187.43861 L 332.15754,187.43861 L 332.15754,270.638 z" transform="matrix(1.5572841697733864, 0, 0, 1.5572841697733864, -191.8569776386701, -160.7929430003865)"/><path id="path9" fill="none" stroke="#f7901d" stroke-dasharray="none" stroke-linecap="butt" stroke-linejoin="miter" stroke-miterlimit="10" stroke-opacity="1" stroke-width="1.2" d="M 276.47795,202.0785 L 288.79786,202.0785" transform="matrix(1.5572841697733864, 0, 0, 1.5572841697733864, -191.8569776386701, -160.7929430003865)"/><path id="path11" fill="none" stroke="#f7901d" stroke-dasharray="none" stroke-linecap="butt" stroke-linejoin="miter" stroke-miterlimit="10" stroke-opacity="1" stroke-width="1.2" d="M 276.47795,214.31841 L 322.71761,214.31841" transform="matrix(1.5572841697733864, 0, 0, 1.5572841697733864, -191.8569776386701, -160.7929430003865)"/><path id="path13" fill="none" stroke="#f7901d" stroke-dasharray="none" stroke-linecap="butt" stroke-linejoin="miter" stroke-miterlimit="10" stroke-opacity="1" stroke-width="1.2" d="M 276.47795,226.63832 L 322.71761,226.63832" transform="matrix(1.5572841697733864, 0, 0, 1.5572841697733864, -191.8569776386701, -160.7929430003865)"/><path id="path15" fill="none" stroke="#f7901d" stroke-dasharray="none" stroke-linecap="butt" stroke-linejoin="miter" stroke-miterlimit="10" stroke-opacity="1" stroke-width="1.2" d="M 276.47795,238.87823 L 322.71761,238.87823" transform="matrix(1.5572841697733864, 0, 0, 1.5572841697733864, -191.8569776386701, -160.7929430003865)"/><path id="path17" fill="none" stroke="#f7901d" stroke-dasharray="none" stroke-linecap="butt" stroke-linejoin="miter" stroke-miterlimit="10" stroke-opacity="1" stroke-width="1.2" d="M 276.47795,251.19814 L 322.71761,251.19814" transform="matrix(1.5572841697733864, 0, 0, 1.5572841697733864, -191.8569776386701, -160.7929430003865)"/><path id="path19" fill="#f36628" fill-opacity="1" fill-rule="nonzero" stroke="none" d="M 69.199487,240.55822 C 69.199487,240.55822 77.919423,214.15841 81.439397,204.15849 C 84.959371,194.23856 87.279353,173.59871 75.279442,171.27873 C 63.279531,169.03875 58.479567,185.91862 58.559566,201.8385 C 58.719565,217.59839 69.199487,240.55822 69.199487,240.55822 z" transform="matrix(1.5572841697733864, 0, 0, 1.5572841697733864, -191.8569776386701, -160.7929430003865)"/><path id="path21" fill="#f36628" fill-opacity="1" fill-rule="nonzero" stroke="none" d="M 67.119503,282.9579 C 67.119503,282.9579 58.399567,232.23828 42.479685,237.67824 C 26.559803,243.0382 41.679691,278.47794 67.119503,282.9579 z" transform="matrix(1.5572841697733864, 0, 0, 1.5572841697733864, -191.8569776386701, -160.7929430003865)"/><path id="path23" fill="#f36628" fill-opacity="1" fill-rule="nonzero" stroke="none" d="M 75.119444,265.83803 C 75.119444,265.83803 73.679454,248.63816 81.279398,233.51827 C 88.959341,218.47838 98.479271,220.07837 100.47926,226.95832 C 104.63922,241.91821 80.9594,256.0781 75.119444,265.83803 z" transform="matrix(1.5572841697733864, 0, 0, 1.5572841697733864, -191.8569776386701, -160.7929430003865)"/><path id="path25" fill="#f36628" fill-opacity="1" fill-rule="nonzero" stroke="none" d="M 79.199413,307.91772 C 79.199413,307.91772 78.719417,293.03783 83.999378,275.11796 C 89.359338,257.1181 103.51923,251.35814 110.87918,259.91807 C 114.71915,264.47804 109.59919,284.0779 97.039281,293.03783 C 86.479359,300.55777 79.199413,307.91772 79.199413,307.91772 z" transform="matrix(1.5572841697733864, 0, 0, 1.5572841697733864, -191.8569776386701, -160.7929430003865)"/><path id="path27" fill="#f36628" fill-opacity="1" fill-rule="nonzero" stroke="none" d="M 75.359442,321.19762 C 75.359442,321.19762 66.15951,297.2778 53.199606,291.43784 C 40.239702,285.51789 36.799727,294.71782 40.079703,304.15775 C 43.359679,313.59768 55.999585,322.23761 75.359442,321.19762 z" transform="matrix(1.5572841697733864, 0, 0, 1.5572841697733864, -191.8569776386701, -160.7929430003865)"/><path id="path29" fill="none" stroke="#a64b1d" stroke-dasharray="none" stroke-linecap="butt" stroke-linejoin="miter" stroke-miterlimit="10" stroke-opacity="1" stroke-width="1.36" d="M 74.159451,172.71872 C 74.159451,172.71872 57.919571,250.07815 83.919378,341.11747" transform="matrix(1.5572841697733864, 0, 0, 1.5572841697733864, -191.8569776386701, -160.7929430003865)"/><path id="path31" fill="none" stroke="#a64b1d" stroke-dasharray="none" stroke-linecap="butt" stroke-linejoin="miter" stroke-miterlimit="10" stroke-opacity="1" stroke-width="1.36" d="M 101.27925,263.11805 C 100.79925,263.51805 82.079392,293.27783 77.359427,314.55767" transform="matrix(1.5572841697733864, 0, 0, 1.5572841697733864, -191.8569776386701, -160.7929430003865)"/><path id="path33" fill="none" stroke="#a64b1d" stroke-dasharray="none" stroke-linecap="butt" stroke-linejoin="miter" stroke-miterlimit="10" stroke-opacity="1" stroke-width="1.36" d="M 44.719669,295.51781 C 44.719669,295.51781 51.119621,308.47771 79.359412,323.3576" transform="matrix(1.5572841697733864, 0, 0, 1.5572841697733864, -191.8569776386701, -160.7929430003865)"/><path id="path35" fill="none" stroke="#a64b1d" stroke-dasharray="none" stroke-linecap="butt" stroke-linejoin="miter" stroke-miterlimit="10" stroke-opacity="1" stroke-width="1.36" d="M 41.359694,243.5182 C 43.519678,257.59809 49.91963,272.63798 72.479463,285.59788" transform="matrix(1.5572841697733864, 0, 0, 1.5572841697733864, -191.8569776386701, -160.7929430003865)"/><path id="path37" fill="none" stroke="#a64b1d" stroke-dasharray="none" stroke-linecap="butt" stroke-linejoin="miter" stroke-miterlimit="10" stroke-opacity="1" stroke-width="1.36" d="M 95.199295,225.75833 C 95.199295,225.75833 80.9594,241.75821 71.59947,277.91794" transform="matrix(1.5572841697733864, 0, 0, 1.5572841697733864, -191.8569776386701, -160.7929430003865)"/><path id="path39" fill="#f36628" fill-opacity="1" fill-rule="nonzero" stroke="none" d="M 615.99544,327.03758 C 615.99544,327.03758 613.75545,309.59771 612.79546,303.03776 C 611.75547,296.4778 612.79546,283.4379 620.4754,283.4379 C 628.15535,283.4379 629.19534,294.47782 627.19535,304.31775 C 625.27537,314.07767 615.99544,327.03758 615.99544,327.03758 z" transform="matrix(1.5572843840253037, 0, 0, 1.5572843840253037, -222.45887859009372, -163.5749674915903)"/><path id="path41" fill="#f36628" fill-opacity="1" fill-rule="nonzero" stroke="none" d="M 612.31546,353.51738 C 612.31546,353.51738 623.67538,323.11761 632.87531,328.39757 C 642.07524,333.59753 628.55534,353.75738 612.31546,353.51738 z" transform="matrix(1.5572843840253037, 0, 0, 1.5572843840253037, -222.45887859009372, -163.5749674915903)"/><path id="path43" fill="#f36628" fill-opacity="1" fill-rule="nonzero" stroke="none" d="M 609.35549,341.99747 C 609.35549,341.99747 612.31546,331.43754 609.35549,321.19762 C 606.47551,311.0377 600.31555,310.8777 598.31557,314.87767 C 593.9156,323.5976 606.9555,335.19752 609.35549,341.99747 z" transform="matrix(1.5572841697733864, 0, 0, 1.5572841697733864, -191.8569776386701, -160.7929430003865)"/><path id="path45" fill="none" stroke="#a64b1d" stroke-dasharray="none" stroke-linecap="butt" stroke-linejoin="miter" stroke-miterlimit="10" stroke-opacity="1" stroke-width="1.36" d="M 621.0354,284.39789 C 621.0354,284.39789 621.91539,334.23752 594.95559,387.51713" transform="matrix(1.5572841697733864, 0, 0, 1.5572841697733864, -191.8569776386701, -160.7929430003865)"/><path id="path47" fill="none" stroke="#a64b1d" stroke-dasharray="none" stroke-linecap="butt" stroke-linejoin="miter" stroke-miterlimit="10" stroke-opacity="1" stroke-width="1.36" d="M 632.87531,332.15754 C 629.91533,340.63748 624.15538,349.11741 608.63549,354.47737" transform="matrix(1.5572843840253037, 0, 0, 1.5572843840253037, -222.45887859009372, -163.5749674915903)"/><path id="path49" fill="none" stroke="#a64b1d" stroke-dasharray="none" stroke-linecap="butt" stroke-linejoin="miter" stroke-miterlimit="10" stroke-opacity="1" stroke-width="1.36" d="M 601.67554,314.79767 C 601.67554,314.79767 608.63549,326.31758 610.15548,349.83741" transform="matrix(1.5572841697733864, 0, 0, 1.5572841697733864, -191.8569776386701, -160.7929430003865)"/><path id="path51" fill="#9aa6db" fill-opacity="1" fill-rule="nonzero" stroke="none" d="M 527.19609,247.43817 L 592.07561,247.43817 C 600.87555,247.43817 608.47549,248.31816 609.03549,244.23819 C 609.59548,240.15822 603.35553,239.27823 600.79555,235.75825 C 598.23557,232.23828 599.11556,219.91837 588.23564,219.91837 C 577.43572,219.91837 574.63574,228.63831 570.47577,227.03832 C 566.31581,225.51833 563.99582,206.79847 553.4359,207.03847 C 542.87598,207.35846 536.63602,231.59828 531.11607,229.5983 C 525.51611,227.59831 514.79619,228.39831 513.67619,235.43826 C 512.4762,242.4782 492.07635,238.95823 491.43636,244.47819 C 490.79636,250.07815 511.51621,247.43817 527.19609,247.43817 z" transform="matrix(1.5572841697733864, 0, 0, 1.5572841697733864, -191.8569776386701, -160.7929430003865)"/><path id="path57" fill="none" stroke="#404d26" stroke-dasharray="none" stroke-linecap="butt" stroke-linejoin="miter" stroke-miterlimit="10" stroke-opacity="1" stroke-width="1.2" d="M 579.03571,297.5178 C 579.03571,297.5178 557.91587,421.83688 528.15609,489.83637" transform="matrix(1.5572841697733864, 0, 0, 1.5572841697733864, -191.8569776386701, -160.7929430003865)"/><path id="path59" fill="none" stroke="#404d26" stroke-dasharray="none" stroke-linecap="butt" stroke-linejoin="miter" stroke-miterlimit="10" stroke-opacity="1" stroke-width="1.2" d="M 628.87534,377.8372 C 628.87534,377.8372 599.03556,454.71663 563.75582,489.83637" transform="matrix(1.5572841697733864, 0, 0, 1.5572841697733864, -191.8569776386701, -160.7929430003865)"/><path id="path61" fill="none" stroke="#404d26" stroke-dasharray="none" stroke-linecap="butt" stroke-linejoin="miter" stroke-miterlimit="10" stroke-opacity="1" stroke-width="1.2" d="M 490.39637,387.83713 C 490.39637,387.83713 509.03623,439.03675 508.39623,489.83637" transform="matrix(1.5572841697733864, 0, 0, 1.5572841697733864, -191.8569776386701, -160.7929430003865)"/><path id="path63" fill="none" stroke="#404d26" stroke-dasharray="none" stroke-linecap="butt" stroke-linejoin="miter" stroke-miterlimit="10" stroke-opacity="1" stroke-width="1.2" d="M 442.79672,467.51654 C 442.79672,467.51654 447.27669,479.83645 455.91662,489.83637" transform="matrix(1.5572841697733864, 0, 0, 1.5572841697733864, -191.8569776386701, -160.7929430003865)"/><path id="path65" fill="none" stroke="#404d26" stroke-dasharray="none" stroke-linecap="butt" stroke-linejoin="miter" stroke-miterlimit="10" stroke-opacity="1" stroke-width="1.2" d="M 480.47644,400.15704 C 480.47644,400.15704 485.3564,403.83701 497.35632,410.71696" transform="matrix(1.5572841697733864, 0, 0, 1.5572841697733864, -191.8569776386701, -160.7929430003865)"/><path id="path67" fill="none" stroke="#404d26" stroke-dasharray="none" stroke-linecap="butt" stroke-linejoin="miter" stroke-miterlimit="10" stroke-opacity="1" stroke-width="1.2" d="M 475.51648,421.83688 C 475.51648,421.83688 487.67639,440.79673 506.23625,455.03663" transform="matrix(1.5572841697733864, 0, 0, 1.5572841697733864, -191.8569776386701, -160.7929430003865)"/><path id="path69" fill="none" stroke="#404d26" stroke-dasharray="none" stroke-linecap="butt" stroke-linejoin="miter" stroke-miterlimit="10" stroke-opacity="1" stroke-width="1.2" d="M 526.8761,379.19719 C 526.8761,379.19719 524.47611,432.95679 537.91602,464.79656" transform="matrix(1.5572841697733864, 0, 0, 1.5572841697733864, -191.8569776386701, -160.7929430003865)"/><path id="path71" fill="none" stroke="#404d26" stroke-dasharray="none" stroke-linecap="butt" stroke-linejoin="miter" stroke-miterlimit="10" stroke-opacity="1" stroke-width="1.2" d="M 546.31595,329.67756 C 546.31595,329.67756 544.39597,387.83713 554.31589,410.71696" transform="matrix(1.5572841697733864, 0, 0, 1.5572841697733864, -191.8569776386701, -160.7929430003865)"/><path id="path73" fill="none" stroke="#404d26" stroke-dasharray="none" stroke-linecap="butt" stroke-linejoin="miter" stroke-miterlimit="10" stroke-opacity="1" stroke-width="1.2" d="M 591.75562,381.99717 C 591.75562,381.99717 572.23576,421.99687 545.83596,440.55674" transform="matrix(1.5572841697733864, 0, 0, 1.5572841697733864, -191.8569776386701, -160.7929430003865)"/><path id="path75" fill="none" stroke="#404d26" stroke-dasharray="none" stroke-linecap="butt" stroke-linejoin="miter" stroke-miterlimit="10" stroke-opacity="1" stroke-width="1.2" d="M 594.4756,337.2775 C 594.4756,337.2775 578.39572,353.19738 565.59581,364.7173" transform="matrix(1.5572841697733864, 0, 0, 1.5572841697733864, -191.8569776386701, -160.7929430003865)"/><path id="path77" fill="none" stroke="#404d26" stroke-dasharray="none" stroke-linecap="butt" stroke-linejoin="miter" stroke-miterlimit="10" stroke-opacity="1" stroke-width="1.2" d="M 563.75582,303.59775 L 571.43577,337.2775" transform="matrix(1.5572841697733864, 0, 0, 1.5572841697733864, -191.8569776386701, -160.7929430003865)"/><path id="path79" fill="none" stroke="#404d26" stroke-dasharray="none" stroke-linecap="butt" stroke-linejoin="miter" stroke-miterlimit="10" stroke-opacity="1" stroke-width="1.2" d="M 630.79533,401.91702 C 630.79533,401.91702 620.7954,413.67694 608.95549,421.83688" transform="matrix(1.5572843840253037, 0, 0, 1.5572843840253037, -222.45887859009372, -163.5749674915903)"/><path id="path81" fill="none" stroke="#404d26" stroke-dasharray="none" stroke-linecap="butt" stroke-linejoin="miter" stroke-miterlimit="10" stroke-opacity="1" stroke-width="1.2" d="M 619.03541,444.47671 C 619.03541,444.47671 595.35559,466.95654 575.83573,475.99647" transform="matrix(1.5572841697733864, 0, 0, 1.5572841697733864, -191.8569776386701, -160.7929430003865)"/><path id="path83" fill="none" stroke="#040606" stroke-dasharray="none" stroke-linecap="butt" stroke-linejoin="miter" stroke-miterlimit="10" stroke-opacity="1" stroke-width="1.28" d="M 635.1153,489.83637 L 413.19694,489.83637" transform="matrix(1.5572841697733864, 0, 0, 1.5572841697733864, -191.8569776386701, -160.7929430003865)"/><path id="path85" fill="#ccd1ee" fill-opacity="1" fill-rule="nonzero" stroke="none" d="M 71.439471,404.23701 C 63.599529,404.23701 57.359575,397.91705 57.359575,390.15711 C 57.359575,382.31717 63.599529,375.99721 71.439471,375.99721 C 79.199413,375.99721 85.519367,382.31717 85.519367,390.15711 C 85.519367,397.91705 79.199413,404.23701 71.439471,404.23701 z M 109.43919,398.15705 L 109.43919,382.07717 L 99.199265,382.55717 C 98.55927,380.15718 97.599277,377.9172 96.399286,375.75722 L 103.99923,368.95727 L 92.559314,357.51735 L 85.759365,365.1173 C 83.67938,363.9173 81.359397,362.95731 78.959415,362.31732 L 79.519411,352.15739 L 63.359531,352.15739 L 63.919527,362.31732 C 61.519544,362.95731 59.199561,363.9173 57.039577,365.1173 L 50.239628,357.51735 L 38.879712,368.95727 L 46.399656,375.75722 C 45.199665,377.9172 44.239672,380.15718 43.599677,382.55717 L 33.439752,382.07717 L 33.439752,398.15705 L 43.599677,397.67705 C 44.239672,400.07704 45.199665,402.31702 46.399656,404.477 L 38.879712,411.27695 L 50.239628,422.71687 L 57.039577,415.11693 C 59.199561,416.31692 61.519544,417.27691 63.919527,417.9169 L 63.359531,428.07683 L 79.519411,428.07683 L 78.959415,417.9169 C 81.359397,417.27691 83.67938,416.31692 85.759365,415.11693 L 92.559314,422.71687 L 103.99923,411.27695 L 96.399286,404.477 C 97.599277,402.31702 98.55927,400.07704 99.199265,397.67705 L 109.43919,398.15705 z" transform="matrix(1.5572841697733864, 0, 0, 1.5572841697733864, -191.8569776386701, -160.7929430003865)"/><path id="path87" fill="#ccd1ee" fill-opacity="1" fill-rule="nonzero" stroke="none" d="M 196.79854,299.03778 C 187.91861,299.03778 180.71866,291.83784 180.71866,282.9579 C 180.71866,274.07797 187.91861,266.87802 196.79854,266.87802 C 205.67848,266.87802 212.87842,274.07797 212.87842,282.9579 C 212.87842,291.83784 205.67848,299.03778 196.79854,299.03778 z M 240.07822,292.15784 L 240.07822,273.75797 L 228.47831,274.39797 C 227.75831,271.59799 226.63832,269.03801 225.27833,266.55803 L 233.91827,258.79808 L 220.87836,245.83818 L 213.11842,254.47811 C 210.71844,253.03813 208.07846,251.99813 205.35848,251.27814 L 205.99847,239.59823 L 187.59861,239.59823 L 188.15861,251.27814 C 185.43863,251.99813 182.79865,253.03813 180.39866,254.47811 L 172.63872,245.83818 L 159.67882,258.79808 L 168.31875,266.55803 C 166.87876,269.03801 165.83877,271.59799 165.03878,274.39797 L 153.43886,273.75797 L 153.43886,292.15784 L 165.03878,291.51784 C 165.83877,294.31782 166.87876,296.8778 168.31875,299.27778 L 159.67882,307.11773 L 172.63872,320.07763 L 180.39866,311.43769 C 182.79865,312.87768 185.43863,313.91767 188.15861,314.63767 L 187.59861,326.23758 L 205.99847,326.23758 L 205.35848,314.63767 C 208.07846,313.91767 210.71844,312.87768 213.11842,311.43769 L 220.87836,320.07763 L 233.91827,307.11773 L 225.27833,299.27778 C 226.63832,296.8778 227.75831,294.31782 228.47831,291.51784 L 240.07822,292.15784 z" transform="matrix(1.5572841697733864, 0, 0, 1.5572841697733864, -191.8569776386701, -160.7929430003865)"/><path id="path89" fill="#d8eea7" fill-opacity="1" fill-rule="nonzero" stroke="none" d="M 79.279413,482.79642 L 465.91655,482.79642 C 465.91655,482.79642 445.9167,453.43664 416.55691,445.7567 C 387.27713,438.15675 378.5572,450.79666 361.91732,422.79687 C 345.27744,394.79708 329.91756,377.5172 309.9177,376.87721 C 289.91785,376.15721 257.0381,397.51706 219.83837,374.55723 C 176.31869,347.67742 141.03896,371.11725 139.03897,406.39699 C 137.03898,441.67673 70.559477,430.07681 79.279413,482.79642 z" transform="matrix(1.5572841697733864, 0, 0, 1.5572841697733864, -191.8569776386701, -160.7929430003865)"/><path id="path91" fill="#3d8445" fill-opacity="1" fill-rule="nonzero" stroke="none" d="M 327.35758,482.79642 C 327.35758,482.79642 334.79752,461.59658 341.75747,463.11657 C 348.71742,464.63656 353.35738,475.03648 361.51732,466.79654 C 369.59726,458.4766 365.59729,429.75682 380.15718,427.27683 C 394.63708,424.79685 386.55714,459.5166 396.07707,453.67664 C 407.75698,446.47669 419.99689,408.23698 434.71678,411.75695 C 449.51667,415.27692 449.19667,482.79642 449.19667,482.79642 L 327.35758,482.79642 z" transform="matrix(1.5572841697733864, 0, 0, 1.5572841697733864, -191.8569776386701, -160.7929430003865)"/><path id="path95" fill="#6eb73b" fill-opacity="1" fill-rule="nonzero" stroke="none" d="M 45.039666,483.19642 C 45.039666,483.19642 29.039785,423.19687 40.959697,421.43688 C 52.959608,419.67689 51.599618,434.07678 63.119532,433.43679 C 74.639447,432.79679 56.079585,328.39757 83.439382,323.9976 C 110.79918,319.67763 127.19906,423.83686 140.95896,413.27694 C 154.71885,402.63702 183.83864,344.95744 187.83861,482.71642 L 45.039666,483.19642 z" transform="matrix(1.5572841697733864, 0, 0, 1.5572841697733864, -191.8569776386701, -160.7929430003865)"/><path id="path97" fill="none" stroke="#404d26" stroke-dasharray="none" stroke-linecap="butt" stroke-linejoin="miter" stroke-miterlimit="10" stroke-opacity="1" stroke-width="1.28" d="M 83.439382,323.9976 C 83.439382,323.9976 89.03934,416.39692 112.15917,483.19642" transform="matrix(1.5572841697733864, 0, 0, 1.5572841697733864, -191.8569776386701, -160.7929430003865)"/><path id="path99" fill="none" stroke="#404d26" stroke-dasharray="none" stroke-linecap="butt" stroke-linejoin="miter" stroke-miterlimit="10" stroke-opacity="1" stroke-width="1.28" d="M 92.159317,326.31758 C 92.159317,326.31758 89.759335,344.47745 86.159362,354.39737" transform="matrix(1.5572841697733864, 0, 0, 1.5572841697733864, -191.8569776386701, -160.7929430003865)"/><path id="path101" fill="none" stroke="#404d26" stroke-dasharray="none" stroke-linecap="butt" stroke-linejoin="miter" stroke-miterlimit="10" stroke-opacity="1" stroke-width="1.28" d="M 68.959489,351.1174 C 68.959489,351.1174 71.039474,359.67734 89.839335,383.27716" transform="matrix(1.5572841697733864, 0, 0, 1.5572841697733864, -191.8569776386701, -160.7929430003865)"/><path id="path103" fill="none" stroke="#404d26" stroke-dasharray="none" stroke-linecap="butt" stroke-linejoin="miter" stroke-miterlimit="10" stroke-opacity="1" stroke-width="1.28" d="M 115.51914,366.31729 C 115.51914,366.31729 111.75917,428.55683 101.35925,445.4367" transform="matrix(1.5572841697733864, 0, 0, 1.5572841697733864, -191.8569776386701, -160.7929430003865)"/><path id="path105" fill="none" stroke="#404d26" stroke-dasharray="none" stroke-linecap="butt" stroke-linejoin="miter" stroke-miterlimit="10" stroke-opacity="1" stroke-width="1.28" d="M 40.959697,421.43688 C 40.959697,421.43688 49.439634,448.15668 79.359412,483.19642" transform="matrix(1.5572841697733864, 0, 0, 1.5572841697733864, -191.8569776386701, -160.7929430003865)"/><path id="path107" fill="none" stroke="#404d26" stroke-dasharray="none" stroke-linecap="butt" stroke-linejoin="miter" stroke-miterlimit="10" stroke-opacity="1" stroke-width="1.28" d="M 67.359501,391.6771 C 67.359501,391.6771 78.479419,432.4768 107.3592,468.15653" transform="matrix(1.5572841697733864, 0, 0, 1.5572841697733864, -191.8569776386701, -160.7929430003865)"/><path id="path109" fill="none" stroke="#404d26" stroke-dasharray="none" stroke-linecap="butt" stroke-linejoin="miter" stroke-miterlimit="10" stroke-opacity="1" stroke-width="1.28" d="M 54.559596,429.83682 C 54.559596,429.83682 57.119577,441.19673 58.159569,454.87663" transform="matrix(1.5572841697733864, 0, 0, 1.5572841697733864, -191.8569776386701, -160.7929430003865)"/><path id="path111" fill="none" stroke="#404d26" stroke-dasharray="none" stroke-linecap="butt" stroke-linejoin="miter" stroke-miterlimit="10" stroke-opacity="1" stroke-width="1.28" d="M 38.639714,453.51664 C 38.639714,453.51664 52.319612,463.19657 71.759468,473.99649" transform="matrix(1.5572841697733864, 0, 0, 1.5572841697733864, -191.8569776386701, -160.7929430003865)"/><path id="path113" fill="none" stroke="#1d2847" stroke-dasharray="none" stroke-linecap="butt" stroke-linejoin="miter" stroke-miterlimit="10" stroke-opacity="1" stroke-width="1.36" d="M 40.879697,482.79642 L 430.15681,482.79642" transform="matrix(1.5572841697733864, 0, 0, 1.5572841697733864, -191.8569776386701, -160.7929430003865)"/><path id="path115" fill="#334da8" fill-opacity="1" fill-rule="nonzero" stroke="none" d="M 127.51906,531.67606 C 115.91914,531.67606 106.55921,522.23613 106.55921,510.71622 L 106.55921,304.23775 C 106.55921,292.63783 115.91914,283.1979 127.51906,283.1979 L 217.59839,283.1979 C 229.1983,283.1979 238.63823,292.63783 238.63823,304.23775 L 238.63823,510.71622 C 238.63823,522.23613 229.1983,531.67606 217.59839,531.67606 L 127.51906,531.67606 z" transform="matrix(1.5572841697733864, 0, 0, 1.5572841697733864, -191.8569776386701, -160.7929430003865)"/><path id="path117" fill="#435db4" fill-opacity="1" fill-rule="nonzero" stroke="none" d="M 137.83898,531.67606 C 126.23906,531.67606 116.79913,522.23613 116.79913,510.71622 L 116.79913,304.23775 C 116.79913,292.63783 126.23906,283.1979 137.83898,283.1979 L 227.91831,283.1979 C 239.51823,283.1979 248.87816,292.63783 248.87816,304.23775 L 248.87816,510.71622 C 248.87816,522.23613 239.51823,531.67606 227.91831,531.67606 L 137.83898,531.67606 z" transform="matrix(1.5572841697733864, 0, 0, 1.5572841697733864, -191.8569776386701, -160.7929430003865)"/><path id="path119" fill="#1d2847" fill-opacity="1" fill-rule="nonzero" stroke="none" d="M 227.91831,289.59785 L 206.95847,289.59785 C 205.83848,289.59785 204.87848,290.31785 204.55848,291.35784 L 203.59849,294.47782 C 203.0385,296.23781 201.43851,297.4378 199.59852,297.4378 L 166.07877,297.4378 C 164.31878,297.4378 162.71879,296.23781 162.1588,294.47782 L 161.19881,291.35784 C 160.87881,290.31785 159.83882,289.59785 158.79882,289.59785 L 137.83898,289.59785 C 129.75904,289.59785 123.19909,296.15781 123.19909,304.23775 L 123.19909,510.71622 C 123.19909,518.79616 129.75904,525.27611 137.83898,525.27611 L 227.91831,525.27611 C 235.99825,525.27611 242.5582,518.79616 242.5582,510.71622 L 242.5582,304.23775 C 242.5582,296.15781 235.99825,289.59785 227.91831,289.59785 z" transform="matrix(1.5572841697733864, 0, 0, 1.5572841697733864, -191.8569776386701, -160.7929430003865)"/><path id="path121" fill="#1d2847" fill-opacity="1" fill-rule="nonzero" stroke="none" d="M 192.15858,292.47783 L 173.59871,292.47783 C 173.03872,292.47783 172.55872,291.99784 172.55872,291.43784 L 172.55872,291.43784 C 172.55872,290.87785 173.03872,290.47785 173.59871,290.47785 L 192.15858,290.47785 C 192.71857,290.47785 193.19857,290.87785 193.19857,291.43784 L 193.19857,291.43784 C 193.19857,291.99784 192.71857,292.47783 192.15858,292.47783 z" transform="matrix(1.5572841697733864, 0, 0, 1.5572841697733864, -191.8569776386701, -160.7929430003865)"/><path id="path123" fill="none" stroke="#fff" stroke-dasharray="none" stroke-linecap="round" stroke-linejoin="round" stroke-miterlimit="10" stroke-opacity="1" stroke-width="1.92" d="M 111.11918,325.03759 L 111.11918,355.83736" transform="matrix(1.5572841697733864, 0, 0, 1.5572841697733864, -191.8569776386701, -160.7929430003865)"/><path id="path125" fill="none" stroke="#fff" stroke-dasharray="none" stroke-linecap="round" stroke-linejoin="round" stroke-miterlimit="10" stroke-opacity="1" stroke-width="1.92" d="M 111.11918,365.43729 L 111.11918,379.83719" transform="matrix(1.5572841697733864, 0, 0, 1.5572841697733864, -191.8569776386701, -160.7929430003865)"/><path id="path127" fill="#435db4" fill-opacity="1" fill-rule="nonzero" stroke="none" d="M 399.27704,522.07613 L 423.67686,382.87716 L 603.35553,382.87716 L 579.03571,522.07613 L 399.27704,522.07613 z" transform="matrix(1.5572841697733864, 0, 0, 1.5572841697733864, -191.8569776386701, -160.7929430003865)"/><path id="path129" fill="#1d2847" fill-opacity="1" fill-rule="nonzero" stroke="none" d="M 574.07575,516.23618 L 406.31699,516.23618 L 428.55683,388.71712 L 596.31558,388.71712 L 574.07575,516.23618 z" transform="matrix(1.5572841697733864, 0, 0, 1.5572841697733864, -191.8569776386701, -160.7929430003865)"/><path id="path131" fill="#334da8" fill-opacity="1" fill-rule="nonzero" stroke="none" d="M 280.39792,532.15606 L 579.67571,532.15606 L 579.67571,522.07613 L 280.39792,522.07613 L 280.39792,532.15606 z" transform="matrix(1.5572841697733864, 0, 0, 1.5572841697733864, -191.8569776386701, -160.7929430003865)"/><path id="path133" fill="#435db4" fill-opacity="1" fill-rule="nonzero" stroke="none" d="M 280.39792,532.15606 L 417.9169,532.15606 L 417.9169,522.07613 L 280.39792,522.07613 L 280.39792,532.15606 z" transform="matrix(1.5572841697733864, 0, 0, 1.5572841697733864, -191.8569776386701, -160.7929430003865)"/><path id="path135" fill="none" stroke="#334da8" stroke-dasharray="none" stroke-linecap="butt" stroke-linejoin="miter" stroke-miterlimit="10" stroke-opacity="1" stroke-width="1.28" d="M 579.67571,522.07613 L 280.39792,522.07613" transform="matrix(1.5572841697733864, 0, 0, 1.5572841697733864, -191.8569776386701, -160.7929430003865)"/><path id="path137" fill="#f8a377" fill-opacity="1" fill-rule="nonzero" stroke="none" d="M 534.39604,486.71639 C 534.39604,486.71639 536.23603,491.91636 535.59603,494.47634 C 534.95604,497.03632 532.95605,499.2763 532.79605,503.03627 C 532.71605,506.79625 533.03605,513.5162 534.31604,513.67619 C 535.51603,513.91619 534.63604,508.71623 535.75603,508.23624 C 536.79602,507.83624 540.476,515.91618 540.476,515.91618 L 551.35592,515.91618 C 551.35592,515.91618 547.59594,492.47635 547.03595,488.47638 C 546.47595,484.47641 534.39604,486.71639 534.39604,486.71639 z" transform="matrix(1.5572841697733864, 0, 0, 1.5572841697733864, -191.8569776386701, -160.7929430003865)"/><path id="path139" fill="#f8a377" fill-opacity="1" fill-rule="nonzero" stroke="none" d="M 349.35741,423.99686 C 349.35741,423.99686 331.83754,422.55687 327.35758,421.51688 C 322.95761,420.39689 311.27769,423.99686 311.27769,423.99686 L 330.79755,440.15674 C 330.79755,440.15674 335.67751,437.03676 341.03747,436.15677 C 346.39743,435.27678 350.07741,435.59677 350.07741,435.59677 L 349.35741,423.99686 z" transform="matrix(1.5572841697733864, 0, 0, 1.5572841697733864, -191.8569776386701, -160.7929430003865)"/><path id="path141" fill="#f8a377" fill-opacity="1" fill-rule="nonzero" stroke="none" d="M 424.55686,323.4376 C 424.39686,327.83757 423.19687,338.87749 423.83686,343.99745 C 424.55686,349.03741 427.19684,352.63739 432.5568,351.83739 C 437.83676,350.9574 442.55672,373.43723 442.55672,373.43723 L 453.99664,375.11722 L 462.23658,362.63731 L 454.47663,348.87742 C 454.47663,348.87742 460.07659,333.67753 457.19661,324.79759 C 454.23664,315.91766 433.11679,308.95771 425.19685,311.83769 C 417.27691,314.71767 424.55686,323.4376 424.55686,323.4376 z" transform="matrix(1.5572841697733864, 0, 0, 1.5572841697733864, -191.8569776386701, -160.7929430003865)"/><path id="path143" fill="#f36628" fill-opacity="1" fill-rule="nonzero" stroke="none" d="M 435.83677,361.27732 L 448.95667,366.47729 L 451.67665,372.47724 L 451.67665,364.7973 L 461.51658,354.47737 L 464.07656,360.15733 L 490.23637,463.83656 L 451.27666,463.83656 L 428.39683,372.47724 L 435.27678,367.99727 L 435.83677,361.27732 z" transform="matrix(1.5572841697733864, 0, 0, 1.5572841697733864, -191.8569776386701, -160.7929430003865)"/><path id="path145" fill="#fff" fill-opacity="1" fill-rule="nonzero" stroke="none" d="M 511.67621,515.91618 L 432.0768,515.91618 L 446.95669,463.83656 L 507.43624,463.83656 L 511.67621,515.91618 z" transform="matrix(1.5572841697733864, 0, 0, 1.5572841697733864, -191.8569776386701, -160.7929430003865)"/><path id="path147" fill="#5a6bbc" fill-opacity="1" fill-rule="nonzero" stroke="none" d="M 435.27678,367.99727 C 439.11675,378.5572 456.63662,452.39665 459.3566,462.39657 C 462.07658,472.3965 463.59657,499.9163 463.59657,499.9163 C 463.59657,499.9163 440.47674,500.39629 435.27678,499.9163 C 430.07681,499.5163 436.95676,467.51654 436.71677,460.15659 C 436.47677,452.79665 422.47687,414.79693 422.47687,414.79693 C 422.47687,414.79693 396.23706,437.67676 392.23709,438.15675 C 388.23712,438.55675 346.95743,437.03676 346.95743,437.03676 L 346.95743,422.55687 C 346.95743,422.55687 381.59717,420.55688 385.35715,418.5569 C 389.11712,416.55691 412.07695,390.15711 417.59691,383.51716 C 423.11687,376.79721 428.23683,368.23727 435.27678,367.99727 z" transform="matrix(1.5572841697733864, 0, 0, 1.5572841697733864, -191.8569776386701, -160.7929430003865)"/><path id="path149" fill="#405190" fill-opacity="1" fill-rule="nonzero" stroke="none" d="M 414.07693,398.47705 C 411.11695,398.79705 407.91698,417.8369 404.07701,423.27686 C 401.67702,426.79684 398.15705,432.1568 396.07707,436.15677 C 404.477,430.55681 422.47687,414.79693 422.47687,414.79693 C 420.79688,410.79696 417.11691,398.15705 414.07693,398.47705 z" transform="matrix(1.5572841697733864, 0, 0, 1.5572841697733864, -191.8569776386701, -160.7929430003865)"/><path id="path151" fill="#5a6bbc" fill-opacity="1" fill-rule="nonzero" stroke="none" d="M 533.51605,489.83637 L 548.63594,489.83637 L 542.63598,456.47662 C 540.71599,444.15671 536.79602,432.3168 530.95607,421.27688 C 521.03614,402.63702 505.59625,374.71722 499.2763,369.83726 C 495.11633,366.63728 476.23647,359.51734 464.07656,360.15733 C 464.07656,360.15733 477.91646,445.1167 479.91645,458.4766 C 481.91643,471.8365 490.23637,498.15631 490.23637,498.15631 L 518.23616,498.15631 L 511.67621,459.91659 L 504.23626,424.15686 L 520.07615,445.3567 L 533.51605,489.83637 z" transform="matrix(1.5572841697733864, 0, 0, 1.5572841697733864, -191.8569776386701, -160.7929430003865)"/><path id="path153" fill="#405190" fill-opacity="1" fill-rule="nonzero" stroke="none" d="M 504.23626,424.15686 C 504.23626,424.15686 494.79633,410.95696 492.63635,403.67701 C 490.39637,396.31706 489.27638,386.15714 490.23637,383.27716 C 491.27636,380.47718 487.91639,379.27719 486.3964,391.5171 C 484.95641,403.67701 484.95641,414.47693 492.23635,426.47684 C 499.5963,438.47675 494.39634,445.5167 500.23629,456.15662 C 506.07625,466.79654 513.5962,471.03651 513.5962,471.03651 L 504.23626,424.15686 z" transform="matrix(1.5572841697733864, 0, 0, 1.5572841697733864, -191.8569776386701, -160.7929430003865)"/><path id="path155" fill="#040606" fill-opacity="1" fill-rule="nonzero" stroke="none" d="M 415.03693,310.5577 C 418.7969,302.23776 427.91683,307.19772 437.99676,308.39772 C 448.07668,309.59771 457.51661,310.8777 460.79659,318.07764 C 464.07656,325.19759 459.99659,339.83748 454.47663,348.87742 C 454.47663,348.87742 450.07667,343.35746 449.99667,339.51749 C 449.99667,335.75751 454.47663,333.27753 452.63665,329.59756 C 450.79666,325.91759 448.07668,328.23757 447.43669,329.83756 C 446.87669,331.43754 446.55669,333.11753 445.8367,332.23754 C 445.1167,331.43754 446.39669,327.99757 446.0767,325.19759 C 445.6767,322.39761 444.31671,318.15764 437.99676,319.11764 C 431.5968,320.07763 424.95685,318.63764 424.95685,318.63764 L 424.55686,323.4376 C 424.55686,323.4376 410.71696,319.83763 415.03693,310.5577 z" transform="matrix(1.5572841697733864, 0, 0, 1.5572841697733864, -191.8569776386701, -160.7929430003865)"/><path id="path157" fill="#9aa6db" fill-opacity="1" fill-rule="nonzero" stroke="none" d="M 132.23902,169.75874 L 282.07791,169.75874 C 305.83773,169.75874 315.59766,166.71877 303.35775,158.23883 C 291.11784,149.75889 287.43787,149.27889 283.3579,140.79896 C 279.27793,132.31902 269.838,126.79906 256.7981,128.47905 C 243.75819,130.15904 234.87826,134.879 224.79833,124.63908 C 214.71841,114.39915 205.35848,98.719269 180.87866,108.0792 C 155.27885,117.75913 154.07886,141.19895 133.43901,145.91892 C 112.87916,150.55888 90.159332,169.75874 132.23902,169.75874 z" transform="matrix(1.5572841697733864, 0, 0, 1.5572841697733864, -191.8569776386701, -160.7929430003865)"/><path id="path159" fill="#435db4" fill-opacity="1" fill-rule="nonzero" stroke="none" d="M 256.2381,363.43731 C 256.2381,363.43731 265.19804,361.83732 268.63801,351.5174 C 272.15798,341.19747 281.59791,330.39755 298.15779,331.91754 C 314.71767,333.43753 323.11761,345.59744 320.87762,363.43731 C 318.63764,381.27718 303.27775,383.99716 291.91784,383.83716 C 280.63792,383.59716 272.79798,371.83725 267.91802,367.99727 C 263.03805,364.1573 256.2381,363.43731 256.2381,363.43731 z" transform="matrix(1.5572841697733864, 0, 0, 1.5572841697733864, -191.8569776386701, -160.7929430003865)"/><path id="path163" fill="#fee96d" fill-opacity="1" fill-rule="nonzero" stroke="none" d="M 385.03715,226.95832 L 344.39745,226.95832 L 344.39745,173.11872 L 385.03715,173.11872 L 385.03715,226.95832 z" transform="matrix(1.5572841697733864, 0, 0, 1.5572841697733864, -191.8569776386701, -160.7929430003865)"/><path id="path165" fill="none" stroke="#f7901d" stroke-dasharray="none" stroke-linecap="butt" stroke-linejoin="miter" stroke-miterlimit="10" stroke-opacity="1" stroke-width=".96" d="M 349.03741,182.63865 L 356.95736,182.63865" transform="matrix(1.5572841697733864, 0, 0, 1.5572841697733864, -191.8569776386701, -160.7929430003865)"/><path id="path167" fill="none" stroke="#f7901d" stroke-dasharray="none" stroke-linecap="butt" stroke-linejoin="miter" stroke-miterlimit="10" stroke-opacity="1" stroke-width=".96" d="M 349.03741,190.55859 L 378.87719,190.55859" transform="matrix(1.5572841697733864, 0, 0, 1.5572841697733864, -191.8569776386701, -160.7929430003865)"/><path id="path169" fill="none" stroke="#f7901d" stroke-dasharray="none" stroke-linecap="butt" stroke-linejoin="miter" stroke-miterlimit="10" stroke-opacity="1" stroke-width=".96" d="M 349.03741,198.47853 L 378.87719,198.47853" transform="matrix(1.5572841697733864, 0, 0, 1.5572841697733864, -191.8569776386701, -160.7929430003865)"/><path id="path171" fill="none" stroke="#f7901d" stroke-dasharray="none" stroke-linecap="butt" stroke-linejoin="miter" stroke-miterlimit="10" stroke-opacity="1" stroke-width=".96" d="M 349.03741,206.47847 L 378.87719,206.47847" transform="matrix(1.5572841697733864, 0, 0, 1.5572841697733864, -191.8569776386701, -160.7929430003865)"/><path id="path173" fill="none" stroke="#f7901d" stroke-dasharray="none" stroke-linecap="butt" stroke-linejoin="miter" stroke-miterlimit="10" stroke-opacity="1" stroke-width=".96" d="M 349.03741,214.39841 L 378.87719,214.39841" transform="matrix(1.5572841697733864, 0, 0, 1.5572841697733864, -191.8569776386701, -160.7929430003865)"/><path id="path175" fill="#435db4" fill-opacity="1" fill-rule="nonzero" stroke="none" d="M 338.1575,283.9179 C 343.59745,278.71794 398.71705,281.75791 402.55702,284.95789 C 406.39699,288.15787 403.83701,310.3177 403.91701,318.55764 C 403.99701,323.4376 408.47697,333.11753 414.15693,333.67753 C 407.59698,337.1175 397.11706,334.71752 391.9171,331.67754 C 386.63714,328.63757 384.95715,329.27756 375.03722,329.27756 L 342.79746,329.27756 C 336.23751,329.27756 334.31752,322.79761 334.31752,312.95768 C 334.31752,303.11775 334.47752,287.27787 338.1575,283.9179 z" transform="matrix(1.5572841697733864, 0, 0, 1.5572841697733864, -191.8569776386701, -160.7929430003865)"/><path id="path179" fill="#fff" fill-opacity="1" fill-rule="nonzero" stroke="none" d="M 218.07838,472.4765 L 221.19836,525.27611 L 136.07899,525.27611 C 136.07899,525.27611 138.23898,513.5162 138.23898,503.99627 C 138.23898,484.95641 149.59889,472.4765 149.59889,472.4765 L 218.07838,472.4765 z" transform="matrix(1.5572841697733864, 0, 0, 1.5572841697733864, -191.8569776386701, -160.7929430003865)"/><path id="path181" fill="#c9cac8" fill-opacity="1" fill-rule="nonzero" stroke="none" d="M 192.63857,525.27611 L 221.19836,525.27611 L 218.07838,472.4765 L 207.19847,472.4765 L 192.63857,525.27611 z" transform="matrix(1.5572841697733864, 0, 0, 1.5572841697733864, -191.8569776386701, -160.7929430003865)"/><path id="path183" fill="#f57c57" fill-opacity="1" fill-rule="nonzero" stroke="none" d="M 244.39819,314.23767 C 244.39819,314.23767 243.5182,326.23758 245.03818,328.39757 C 246.63817,330.47755 245.99818,331.83754 244.55819,332.47754 C 243.1182,333.11753 243.1182,344.23745 239.83822,345.03744 C 236.47825,345.83744 233.59827,343.27746 232.39828,346.79743 C 231.11829,350.3974 229.5983,358.95734 229.5983,358.95734 L 208.63845,357.51735 L 214.47841,341.91747 C 214.47841,341.91747 210.47844,330.39755 213.11842,320.39763 C 215.8384,310.3977 243.67819,304.23775 244.39819,314.23767 z" transform="matrix(1.5572841697733864, 0, 0, 1.5572841697733864, -191.8569776386701, -160.7929430003865)"/><path id="path185" fill="#5a6bbc" fill-opacity="1" fill-rule="nonzero" stroke="none" d="M 203.59849,352.79739 L 238.71823,357.75735 C 239.59823,357.91735 240.07822,358.63734 239.91822,359.43734 L 237.83824,367.51728 C 237.83824,367.51728 239.59823,379.91719 238.95823,389.27712 C 238.23824,398.55705 230.71829,431.03681 228.71831,441.03673 C 226.71832,451.03666 225.11833,475.67648 220.07837,475.91647 C 214.95841,476.15647 155.59885,475.91647 145.35892,475.91647 C 135.119,475.91647 150.47889,465.51655 155.59885,456.39662 C 160.71881,447.27669 166.95876,416.55691 175.1187,399.03704 C 183.35864,381.51717 201.59851,361.83732 202.0785,357.99735 C 202.4785,354.15738 201.67851,352.55739 203.59849,352.79739 z" transform="matrix(1.5572841697733864, 0, 0, 1.5572841697733864, -191.8569776386701, -160.7929430003865)"/><path id="path187" fill="#405190" fill-opacity="1" fill-rule="nonzero" stroke="none" d="M 200.55851,388.47712 C 196.87854,383.83716 194.79856,384.95715 196.79854,392.79709 C 198.79853,400.63703 201.27851,407.67698 208.63845,412.31695 C 215.19841,416.55691 216.79839,441.51673 227.59831,447.91668 C 227.99831,445.2767 228.31831,442.87672 228.71831,441.03673 C 230.31829,432.87679 235.67825,409.67697 237.91824,396.39706 C 237.91824,396.39706 203.67849,392.39709 200.55851,388.47712 z" transform="matrix(1.5572841697733864, 0, 0, 1.5572841697733864, -191.8569776386701, -160.7929430003865)"/><path id="path189" fill="#f57c57" fill-opacity="1" fill-rule="nonzero" stroke="none" d="M 245.27818,398.47705 C 245.27818,398.47705 257.91809,415.59692 262.07806,416.79691 C 266.15803,417.9969 307.27772,421.35688 310.7977,421.35688 C 314.39767,421.35688 322.47761,426.39684 325.67759,427.91683 C 328.95756,429.51682 337.3575,436.55677 333.03753,439.11675 C 328.71757,441.67673 321.11762,441.51673 316.79765,439.11675 C 312.47769,436.79676 308.95771,433.67679 305.03774,433.67679 C 301.11777,433.67679 263.03805,434.63678 254.71811,432.1568 C 243.1182,428.63682 225.19833,409.11697 222.31835,406.55699 L 245.27818,398.47705 z" transform="matrix(1.5572841697733864, 0, 0, 1.5572841697733864, -191.8569776386701, -160.7929430003865)"/><path id="path191" fill="#f8a377" fill-opacity="1" fill-rule="nonzero" stroke="none" d="M 307.19772,436.63677 C 307.51772,434.15678 307.03773,431.5968 310.7177,432.87679 C 314.31767,434.23678 318.07764,437.27676 321.03762,438.15675 C 323.9176,438.95675 320.95762,442.39672 318.63764,442.39672 C 316.23766,442.39672 306.87773,439.19675 307.19772,436.63677 z" transform="matrix(1.5572841697733864, 0, 0, 1.5572841697733864, -191.8569776386701, -160.7929430003865)"/><path id="path193" fill="#f8a377" fill-opacity="1" fill-rule="nonzero" stroke="none" d="M 306.79773,423.43686 C 306.79773,423.43686 321.83762,420.63688 325.67759,421.27688 C 329.51756,421.91687 327.03758,423.43686 322.71761,424.79685 C 312.71768,427.91683 302.71776,425.43685 306.79773,423.43686 z" transform="matrix(1.5572841697733864, 0, 0, 1.5572841697733864, -191.8569776386701, -160.7929430003865)"/><path id="path195" fill="#a64b1d" fill-opacity="1" fill-rule="nonzero" stroke="none" d="M 222.71835,326.79758 C 222.71835,326.79758 218.71838,322.79761 217.59839,326.79758 C 216.4784,330.79755 220.95836,334.15752 220.15837,336.39751 C 219.35838,338.55749 216.0784,347.27743 213.59842,346.79743 C 211.11844,346.39743 214.23841,341.51747 211.35843,337.0375 C 208.47846,332.55754 204.71848,327.27758 207.11847,317.27765 C 209.59845,307.27772 217.35839,309.9177 220.07837,306.15773 C 222.71835,302.39776 224.95833,298.55779 235.35826,299.67778 C 245.83818,300.79777 250.47814,294.63782 254.95811,299.51778 C 259.35808,304.39775 258.71808,313.27768 247.59817,315.67766 C 236.47825,318.15764 234.23826,314.79767 231.91828,317.51765 C 229.5983,320.15763 225.59833,326.55758 222.71835,326.79758 z" transform="matrix(1.5572841697733864, 0, 0, 1.5572841697733864, -191.8569776386701, -160.7929430003865)"/><path id="path197" fill="#5a6bbc" fill-opacity="1" fill-rule="nonzero" stroke="none" d="M 198.15853,385.67714 L 219.91837,410.71696 L 247.83816,399.91704 C 247.83816,399.91704 234.71826,380.15718 230.23829,374.79722 C 225.83833,369.51726 218.07838,363.9973 211.35843,365.1173 C 204.71848,366.23729 192.71857,378.4772 198.15853,385.67714 z" transform="matrix(1.5572841697733864, 0, 0, 1.5572841697733864, -191.8569776386701, -160.7929430003865)"/><path id="path199" fill="none" stroke="#405190" stroke-dasharray="none" stroke-linecap="butt" stroke-linejoin="miter" stroke-miterlimit="10" stroke-opacity="1" stroke-width="1.36" d="M 225.83833,370.39726 C 225.83833,370.39726 231.83828,374.71722 239.03823,386.95713" transform="matrix(1.5572841697733864, 0, 0, 1.5572841697733864, -191.8569776386701, -160.7929430003865)"/><path id="path201" fill="none" stroke="#1d2847" stroke-dasharray="none" stroke-linecap="butt" stroke-linejoin="miter" stroke-miterlimit="10" stroke-opacity="1" stroke-width="1.36" d="M 91.199324,531.67606 L 249.19815,531.67606" transform="matrix(1.5572841697733864, 0, 0, 1.5572841697733864, -191.8569776386701, -160.7929430003865)"/><path id="path203" fill="none" stroke="#1d2847" stroke-dasharray="none" stroke-linecap="butt" stroke-linejoin="miter" stroke-miterlimit="10" stroke-opacity="1" stroke-width="1.36" d="M 275.51796,531.67606 L 604.95552,531.67606" transform="matrix(1.5572841697733864, 0, 0, 1.5572841697733864, -191.8569776386701, -160.7929430003865)"/></g></svg>