<svg xmlns="http://www.w3.org/2000/svg" xmlns:svg="http://www.w3.org/2000/svg" id="svg323" width="144mm" height="144mm" version="1.0"><metadata id="metadata327"/><path id="path5" fill="#f1efef" fill-opacity="1" fill-rule="nonzero" stroke="none" d="M 500.0763,324.2376 L 500.0763,380.79718 C 500.0763,391.0371 491.75636,399.27704 481.51643,399.27704 L 278.79793,399.27704 C 268.55801,399.27704 260.23807,391.0371 260.23807,380.79718 L 260.23807,333.03753 L 235.03826,306.47773 L 481.51643,305.67774 C 491.75636,305.67774 500.0763,313.99767 500.0763,324.2376 z"/><path id="path7" fill="#e0dddb" fill-opacity="1" fill-rule="nonzero" stroke="none" d="M 290.15785,339.99748 L 474.15649,339.11749 L 474.15649,333.43753 L 290.15785,334.31752 L 290.15785,339.99748 z"/><path id="path9" fill="#e0dddb" fill-opacity="1" fill-rule="nonzero" stroke="none" d="M 290.15785,358.55734 L 474.15649,357.75735 L 474.15649,352.07739 L 290.15785,352.95739 L 290.15785,358.55734 z"/><path id="path11" fill="#e0dddb" fill-opacity="1" fill-rule="nonzero" stroke="none" d="M 290.15785,376.71721 L 362.95731,376.39721 L 362.95731,370.71725 L 290.15785,371.03725 L 290.15785,376.71721 z"/><path id="path13" fill="#f1efef" fill-opacity="1" fill-rule="nonzero" stroke="none" d="M 140.71896,0 L 260.31807,0 C 266.23803,0 271.03799,4.7999644 271.03799,10.719921 L 271.03799,69.199487 C 271.03799,75.119444 266.23803,79.919408 260.31807,79.919408 L 158.87882,79.919408 C 152.95887,79.919408 148.1589,75.119444 148.1589,69.199487 L 148.1589,7.3599455 L 140.71896,0 z"/><path id="path15" fill="#ebe9e8" fill-opacity="1" fill-rule="nonzero" stroke="none" d="M 290.95784,106.47921 L 290.95784,127.51906 C 290.95784,130.47903 293.35783,132.79902 296.31781,132.79902 L 413.75694,132.79902 C 416.71691,132.79902 419.0369,130.47903 419.0369,127.51906 L 419.0369,115.99914 L 432.5568,101.59925 L 296.31781,101.11925 C 293.35783,101.11925 290.95784,103.51923 290.95784,106.47921 z"/><path id="path17" fill="#d9d7d4" fill-opacity="1" fill-rule="nonzero" stroke="none" d="M 211.83843,64.719521 L 211.83843,102.15924 C 211.83843,108.95919 206.31847,114.47915 199.51852,114.47915 L 65.039518,114.47915 C 58.239569,114.47915 52.799609,108.95919 52.799609,102.15924 L 52.799609,70.479478 L 35.999733,52.879608 L 199.51852,52.399612 C 206.31847,52.399612 211.83843,57.919571 211.83843,64.719521 z"/><path id="path19" fill="#ebe9e8" fill-opacity="1" fill-rule="nonzero" stroke="none" d="M 72.559463,75.119444 L 194.63856,74.559448 L 194.63856,70.799476 L 72.559463,71.359471 L 72.559463,75.119444 z"/><path id="path21" fill="#ebe9e8" fill-opacity="1" fill-rule="nonzero" stroke="none" d="M 72.559463,87.439352 L 194.63856,86.879356 L 194.63856,83.119384 L 72.559463,83.67938 L 72.559463,87.439352 z"/><path id="path23" fill="#ebe9e8" fill-opacity="1" fill-rule="nonzero" stroke="none" d="M 72.559463,99.519263 L 120.8791,99.279265 L 120.8791,95.519292 L 72.559463,95.759291 L 72.559463,99.519263 z"/><path id="path25" fill="#ebe9e8" fill-opacity="1" fill-rule="nonzero" stroke="none" d="M 13.599899,188.4786 L 13.599899,245.03818 C 13.599899,255.27811 21.919838,263.51805 32.159762,263.51805 L 234.87826,263.51805 C 245.11818,263.51805 253.43812,255.27811 253.43812,245.03818 L 253.43812,197.19854 L 278.71794,170.71874 L 32.239761,169.91874 C 21.919838,169.91874 13.599899,178.23868 13.599899,188.4786 z"/><path id="path27" fill="#e0dddb" fill-opacity="1" fill-rule="nonzero" stroke="none" d="M 223.51834,204.15849 L 39.519707,203.35849 L 39.599707,197.67854 L 223.59834,198.55853 L 223.51834,204.15849 z"/><path id="path29" fill="#e0dddb" fill-opacity="1" fill-rule="nonzero" stroke="none" d="M 223.51834,222.79835 L 39.519707,221.91836 L 39.599707,216.3184 L 223.59834,217.11839 L 223.51834,222.79835 z"/><path id="path31" fill="#e0dddb" fill-opacity="1" fill-rule="nonzero" stroke="none" d="M 223.51834,240.95822 L 150.71888,240.55822 L 150.79888,234.95826 L 223.59834,235.27826 L 223.51834,240.95822 z"/><path id="path33" fill="#f1efef" fill-opacity="1" fill-rule="nonzero" stroke="none" d="M 413.83693,44.55967 C 414.07693,58.159569 403.27701,69.439486 389.67711,69.679484 C 376.07721,69.999481 364.8773,59.199561 364.5573,45.599662 C 364.3173,31.999763 375.11722,20.719847 388.71712,20.479848 C 402.31702,20.159851 413.51694,30.959771 413.83693,44.55967 z"/><path id="path35" fill="#d9d7d4" fill-opacity="1" fill-rule="nonzero" stroke="none" d="M 380.71718,38.879712 C 381.59717,38.799713 382.47717,39.839705 382.55717,41.199695 C 382.71717,42.559685 381.99717,43.679676 381.11718,43.759676 C 380.15718,43.839675 379.35719,42.799683 379.19719,41.439693 C 379.11719,40.079703 379.75719,38.959711 380.71718,38.879712 z"/><path id="path37" fill="#d9d7d4" fill-opacity="1" fill-rule="nonzero" stroke="none" d="M 382.87716,32.639758 C 382.87716,32.879756 380.79718,32.639758 378.4772,33.519752 C 376.15721,34.399745 374.71722,35.839735 374.55723,35.679736 C 374.39723,35.599736 375.75722,33.75975 378.2372,32.879756 C 380.71718,31.919764 382.95716,32.479759 382.87716,32.639758 z"/><path id="path39" fill="#d9d7d4" fill-opacity="1" fill-rule="nonzero" stroke="none" d="M 396.31706,38.559714 C 395.43707,38.479715 394.63708,39.599707 394.55708,40.959697 C 394.47708,42.319687 395.19707,43.439678 396.15707,43.439678 C 397.11706,43.519678 397.91705,42.399686 397.91705,41.039696 C 397.99705,39.759705 397.27706,38.559714 396.31706,38.559714 z"/><path id="path41" fill="#d9d7d4" fill-opacity="1" fill-rule="nonzero" stroke="none" d="M 393.91708,32.39976 C 393.83708,32.239761 395.99707,31.599766 398.55705,32.479759 C 401.11703,33.279753 402.47702,35.03974 402.31702,35.11974 C 402.23702,35.279739 400.71703,33.839749 398.31705,33.119755 C 395.99707,32.319761 393.99708,32.639758 393.91708,32.39976 z"/><path id="path43" fill="#d9d7d4" fill-opacity="1" fill-rule="nonzero" stroke="none" d="M 401.35703,44.799668 C 401.35703,44.799668 401.35703,45.279665 401.19703,46.159658 C 400.95703,46.959652 400.55703,48.159643 399.75704,49.519633 C 398.95704,50.799624 397.67705,52.239613 395.99707,53.359605 C 394.31708,54.559596 392.1571,55.439589 389.75711,55.519589 C 387.35713,55.679588 385.11715,55.039592 383.27716,54.079599 C 381.43717,53.039607 380.07718,51.759617 379.11719,50.559625 C 378.1572,49.359634 377.6772,48.239643 377.3572,47.359649 C 377.11721,46.559655 377.03721,46.079659 377.03721,46.079659 C 377.19721,45.999659 377.5972,47.919645 379.51719,50.239628 C 380.47718,51.35962 381.83717,52.559611 383.59716,53.439604 C 385.27715,54.399597 387.43713,54.959593 389.67711,54.879593 C 391.9171,54.719595 393.99708,53.919601 395.59707,52.799609 C 397.27706,51.759617 398.47705,50.479626 399.35704,49.199636 C 401.03703,46.719654 401.19703,44.799668 401.35703,44.799668 z"/><path id="path45" fill="#ebe9e8" fill-opacity="1" fill-rule="nonzero" stroke="none" d="M 50.799624,321.83762 L 54.399597,321.83762 L 62.15954,311.51769 L 62.15954,304.63774 C 62.15954,304.63774 67.679499,304.31775 67.039503,313.27768 C 66.399508,322.15761 67.119503,319.91763 67.119503,319.91763 C 67.119503,319.91763 78.799416,319.91763 79.759409,320.95762 C 80.479404,321.59762 80.799401,332.71754 80.879401,338.79749 C 80.9594,341.83747 79.039415,344.63745 76.079436,345.35744 C 75.679439,345.43744 75.199443,345.51744 74.799446,345.51744 C 71.919467,345.51744 56.959578,343.27746 56.959578,343.27746 L 50.799624,343.27746 L 50.799624,321.83762 z"/><path id="path47" fill="#ebe9e8" fill-opacity="1" fill-rule="nonzero" stroke="none" d="M 40.639699,319.99763 L 42.799683,343.27746 L 48.879638,343.27746 L 48.879638,320.47763 L 40.639699,319.99763 z"/><path id="path49" fill="#ebe9e8" fill-opacity="1" fill-rule="nonzero" stroke="none" d="M 541.03599,119.11912 C 539.356,117.11913 536.39603,117.19913 534.47604,118.79912 C 532.47606,120.39911 531.67606,122.23909 531.43606,124.87907 C 530.87607,122.23909 529.59608,120.55911 527.51609,119.27912 C 525.35611,117.91913 522.31613,118.23912 520.95614,120.47911 C 520.15615,121.7591 519.99615,123.43909 520.31615,124.95907 C 520.55614,126.55906 521.11614,128.15905 522.15613,129.27904 C 525.8361,133.19901 527.75609,133.83901 532.31606,136.47899 C 536.47603,133.19901 537.83602,132.39902 540.95599,127.99905 C 541.83599,126.79906 542.15598,125.11907 542.31598,123.51909 C 542.39598,121.9991 541.99599,120.31911 541.03599,119.11912 z"/><path id="path51" fill="#242d38" fill-opacity="1" fill-rule="nonzero" stroke="none" d="M 321.27762,478.87645 L 182.55865,478.23646 C 165.83877,478.15646 152.39887,464.55656 152.47887,447.83668 L 153.91886,99.999259 C 153.99886,83.279383 167.59876,69.759483 184.31863,69.839483 L 323.03761,70.479478 C 339.75748,70.559477 353.19738,84.159377 353.11738,100.87925 L 351.67739,448.79668 C 351.5974,465.43655 337.9975,478.95645 321.27762,478.87645 z"/><path id="path53" fill="#fff" fill-opacity="1" fill-rule="nonzero" stroke="none" d="M 322.87761,82.479389 L 295.91781,82.39939 C 292.31783,82.39939 289.43786,85.439367 289.35786,89.199339 L 289.35786,94.079303 C 289.35786,97.839275 286.39788,100.87925 282.79791,100.87925 L 230.39829,100.63925 C 226.71832,100.63925 223.83834,97.519278 223.83834,93.759305 L 223.91834,88.879342 C 223.91834,85.119369 220.95836,82.079392 217.35839,81.999393 L 207.91846,81.999393 L 184.39863,81.839394 C 172.63872,81.839394 163.11879,91.279324 163.11879,102.95924 L 161.6788,442.55672 C 161.5988,454.23664 171.03873,463.75656 182.71865,463.75656 L 321.19762,464.39656 C 332.95753,464.47656 342.47746,455.03663 342.47746,443.35672 L 343.91745,103.75923 C 343.99745,92.079318 334.55752,82.559388 322.87761,82.479389 z"/><path id="path55" fill="#3a5565" fill-opacity="1" fill-rule="nonzero" stroke="none" d="M 246.71817,421.59688 C 246.71817,423.19687 245.43818,424.47686 243.83819,424.47686 C 242.23821,424.47686 240.95822,423.19687 240.95822,421.59688 C 240.95822,419.99689 242.23821,418.6369 243.83819,418.6369 C 245.43818,418.6369 246.71817,419.99689 246.71817,421.59688 z"/><path id="path57" fill="#3a5565" fill-opacity="1" fill-rule="nonzero" stroke="none" d="M 257.75809,421.59688 C 257.75809,423.19687 256.4781,424.47686 254.87811,424.47686 C 253.27812,424.47686 251.99813,423.19687 251.99813,421.59688 C 251.99813,419.99689 253.27812,418.6369 254.87811,418.6369 C 256.4781,418.6369 257.75809,419.99689 257.75809,421.59688 z"/><path id="path59" fill="#3a5565" fill-opacity="1" fill-rule="nonzero" stroke="none" d="M 268.79801,421.59688 C 268.79801,423.19687 267.51802,424.47686 265.91803,424.47686 C 264.31804,424.47686 263.03805,423.19687 263.03805,421.59688 C 263.03805,419.99689 264.31804,418.6369 265.91803,418.6369 C 267.51802,418.6369 268.79801,419.99689 268.79801,421.59688 z"/><path id="path61" fill="#3a5565" fill-opacity="1" fill-rule="nonzero" stroke="none" d="M 188.8786,177.27869 C 188.8786,177.27869 188.8786,176.95869 188.8786,176.47869 C 188.9586,175.9987 189.0386,175.2787 189.2786,174.31871 C 189.5186,173.43872 189.99859,172.31872 190.87859,171.19873 C 191.67858,169.99874 192.95857,168.87875 194.63856,168.07875 C 196.23855,167.19876 198.39853,166.95876 200.63851,167.03876 C 202.8785,167.03876 205.35848,167.03876 207.91846,167.03876 C 213.19842,167.03876 219.19838,167.03876 225.83833,167.03876 C 252.55813,167.11876 289.91785,167.19876 332.47754,167.27876 L 333.27753,167.27876 L 332.71754,167.83876 C 328.39757,172.39872 323.7576,177.27869 319.11764,182.23865 L 319.19764,181.99865 C 319.19764,186.55862 319.19764,191.43858 319.19764,196.31855 L 319.19764,205.83848 C 319.19764,207.35846 319.27763,208.95845 318.79764,210.55844 C 318.39764,212.07843 317.67765,213.51842 316.55766,214.71841 C 315.51766,215.9184 314.23767,216.87839 312.71768,217.51839 C 311.27769,218.07838 309.67771,218.31838 308.15772,218.23838 C 305.11774,218.23838 302.07776,218.23838 299.11778,218.23838 C 287.11787,218.23838 275.59796,218.23838 264.63804,218.23838 C 242.6382,218.23838 222.87835,218.15838 206.31847,218.15838 C 204.23849,218.15838 202.1585,218.15838 200.23852,218.15838 C 198.23853,218.23838 196.15855,217.99839 194.47856,217.11839 C 191.03858,215.4384 188.8786,211.91843 188.7186,208.63845 C 188.7186,201.9985 188.7186,196.31855 188.7986,191.67858 C 188.7986,187.03861 188.7986,183.43864 188.7986,180.95866 C 188.8786,179.75867 188.8786,178.87867 188.8786,178.15868 C 188.8786,177.59868 188.8786,177.27869 188.8786,177.27869 C 188.8786,177.27869 188.9586,177.59868 188.9586,178.15868 C 188.9586,178.87867 188.9586,179.75867 188.9586,180.95866 C 188.9586,183.43864 189.0386,187.03861 189.0386,191.67858 C 189.0386,196.31855 189.0386,201.9985 189.1186,208.55846 C 189.2786,211.83843 191.35858,215.11841 194.71856,216.71839 C 196.31855,217.59839 198.23853,217.75839 200.23852,217.67839 C 202.1585,217.67839 204.23849,217.67839 206.31847,217.67839 C 222.87835,217.67839 242.6382,217.59839 264.63804,217.59839 C 275.59796,217.59839 287.11787,217.59839 299.11778,217.59839 C 302.07776,217.59839 305.11774,217.59839 308.15772,217.59839 C 309.67771,217.59839 311.1177,217.43839 312.47769,216.87839 C 313.83768,216.3184 315.03767,215.3584 316.07766,214.31841 C 317.03765,213.19842 317.75765,211.83843 318.15764,210.39844 C 318.55764,208.87845 318.47764,207.35846 318.47764,205.83848 L 318.47764,196.31855 L 318.47764,181.99865 L 318.47764,181.83865 L 318.55764,181.75865 C 323.27761,176.79869 327.91757,171.99873 332.23754,167.35876 L 332.47754,167.99876 C 289.91785,167.75876 252.55813,167.59876 225.83833,167.51876 C 219.19838,167.43876 213.19842,167.43876 207.91846,167.43876 C 205.27848,167.35876 202.8785,167.35876 200.63851,167.35876 C 198.39853,167.27876 196.31855,167.43876 194.71856,168.31875 C 193.03857,169.03875 191.83858,170.15874 190.95859,171.27873 C 190.15859,172.39872 189.67859,173.51871 189.3586,174.39871 C 188.8786,176.23869 188.9586,177.27869 188.8786,177.27869 z"/><path id="path63" fill="#3a5565" fill-opacity="1" fill-rule="nonzero" stroke="none" d="M 302.63776,185.75862 L 202.9585,185.27863 L 202.9585,182.23865 L 302.63776,182.71865 L 302.63776,185.75862 z"/><path id="path65" fill="#3a5565" fill-opacity="1" fill-rule="nonzero" stroke="none" d="M 302.63776,195.83855 L 202.9585,195.35855 L 202.9585,192.31858 L 302.63776,192.79857 L 302.63776,195.83855 z"/><path id="path67" fill="#3a5565" fill-opacity="1" fill-rule="nonzero" stroke="none" d="M 302.63776,205.67848 L 263.19805,205.51848 L 263.19805,202.3985 L 302.63776,202.6385 L 302.63776,205.67848 z"/><path id="path69" fill="#ef2e56" fill-opacity="1" fill-rule="nonzero" stroke="none" d="M 324.3976,244.79819 L 324.3976,275.43796 C 324.3976,280.95792 319.91763,285.43789 314.39767,285.43789 L 204.55848,285.43789 C 198.95853,285.43789 194.47856,280.95792 194.47856,275.43796 L 194.47856,249.51815 L 180.79866,235.11826 L 314.39767,234.71826 C 319.91763,234.71826 324.3976,239.19823 324.3976,244.79819 z"/><path id="path71" fill="#fff" fill-opacity="1" fill-rule="nonzero" stroke="none" d="M 210.71844,253.27812 L 310.3977,252.79813 L 310.3977,249.75815 L 210.71844,250.23815 L 210.71844,253.27812 z"/><path id="path73" fill="#fff" fill-opacity="1" fill-rule="nonzero" stroke="none" d="M 210.71844,263.35805 L 310.3977,262.87805 L 310.3977,259.83808 L 210.71844,260.31807 L 210.71844,263.35805 z"/><path id="path75" fill="#fff" fill-opacity="1" fill-rule="nonzero" stroke="none" d="M 210.71844,273.19798 L 250.15815,273.03798 L 250.15815,269.918 L 210.71844,270.158 L 210.71844,273.19798 z"/><path id="path77" fill="#ef2e56" fill-opacity="1" fill-rule="nonzero" stroke="none" d="M 264.63804,127.35906 C 266.47803,126.63906 267.83802,124.63908 267.83802,122.39909 C 267.83802,119.43912 265.59803,117.03913 262.79805,116.95913 C 259.99807,116.95913 257.75809,119.35912 257.75809,122.31909 C 257.75809,124.63908 259.03808,126.63906 260.95807,127.35906 C 253.19812,128.55905 253.51812,137.03898 253.51812,137.03898 L 271.91799,137.11898 C 271.91799,137.11898 272.31798,128.55905 264.63804,127.35906 z"/><path id="path79" fill="#f6849f" fill-opacity="1" fill-rule="nonzero" stroke="none" d="M 271.91799,137.11898 L 253.51812,137.03898 C 253.51812,137.03898 253.51812,136.95899 253.51812,136.87899 C 253.51812,135.67899 253.83812,128.47905 260.95807,127.35906 L 260.95807,127.35906 L 260.95807,127.35906 C 259.03808,126.63906 257.75809,124.63908 257.75809,122.39909 L 257.75809,122.31909 C 257.75809,119.35912 259.99807,116.95913 262.79805,116.95913 L 262.79805,116.95913 C 265.59803,117.03913 267.83802,119.43912 267.83802,122.39909 L 267.83802,122.39909 C 267.83802,124.63908 266.47803,126.63906 264.63804,127.35906 L 264.63804,127.35906 L 264.63804,127.35906 C 271.59799,128.47905 271.91799,135.519 271.91799,136.87899 C 271.91799,137.03898 271.91799,137.11898 271.91799,137.11898 z"/><path id="path81" fill="#ef2e56" fill-opacity="1" fill-rule="nonzero" stroke="none" d="M 254.55811,127.35906 C 256.3981,126.63906 257.75809,124.63908 257.75809,122.39909 C 257.75809,119.43912 255.51811,117.03913 252.71813,116.95913 C 249.91815,116.95913 247.67817,119.35912 247.59817,122.31909 C 247.59817,124.63908 248.95816,126.63906 250.87814,127.35906 C 243.1182,128.55905 243.4382,137.03898 243.4382,137.03898 L 261.83806,137.11898 C 261.83806,137.11898 262.23806,128.55905 254.55811,127.35906 z"/><path id="path83" fill="#ef2e56" fill-opacity="1" fill-rule="nonzero" stroke="none" d="M 282.55791,147.03891 L 233.19827,146.79891 L 233.19827,140.63896 L 282.63791,140.87896 L 282.55791,147.03891 z"/><path id="path85" fill="#f25981" fill-opacity="1" fill-rule="nonzero" stroke="none" d="M 282.55791,147.03891 L 233.19827,146.79891 L 233.19827,140.63896 L 282.63791,140.87896 L 282.55791,147.03891 z"/><path id="path87" fill="#3a5565" fill-opacity="1" fill-rule="nonzero" stroke="none" d="M 191.19858,314.55767 C 191.19858,314.55767 191.19858,314.31767 191.19858,313.83768 C 191.27858,313.35768 191.43858,312.63768 191.91858,311.83769 C 192.39857,311.0377 193.19857,310.0777 194.55856,309.51771 C 195.83855,308.95771 197.51854,309.19771 199.27852,309.11771 C 206.47847,309.11771 216.87839,309.11771 229.8383,309.11771 C 255.8381,309.19771 291.91784,309.27771 332.79753,309.35771 L 333.59753,309.35771 L 333.03753,309.9177 C 328.71757,314.55767 324.1576,319.43763 319.51763,324.3176 L 319.67763,324.0776 L 319.67763,325.27759 C 319.67763,328.07757 319.67763,330.95755 319.67763,333.75753 C 319.67763,334.47752 319.67763,335.19752 319.59763,335.91751 C 319.59763,336.63751 319.43763,337.3575 319.03764,338.0775 C 318.39764,339.43749 317.27765,340.47748 315.83766,340.95747 C 315.11767,341.19747 314.39767,341.27747 313.67768,341.27747 L 311.59769,341.27747 C 310.2377,341.27747 308.87771,341.27747 307.43772,341.27747 C 304.71774,341.27747 301.99776,341.27747 299.35778,341.27747 C 288.55786,341.27747 278.15794,341.27747 268.23801,341.27747 C 248.47816,341.19747 230.63829,341.19747 215.5984,341.19747 C 211.91843,341.19747 208.31846,341.19747 204.95848,341.11747 C 203.27849,341.11747 201.59851,341.11747 199.99852,341.11747 C 199.27852,341.11747 198.47853,341.11747 197.67854,341.11747 C 196.95854,341.11747 196.15855,341.19747 195.35855,341.03747 C 193.83856,340.71748 192.63857,339.67748 191.83858,338.47749 C 191.51858,337.9175 191.19858,337.1975 191.11858,336.55751 C 191.03858,335.83751 191.03858,335.19752 191.03858,334.55752 C 191.03858,331.99754 191.03858,329.67756 191.03858,327.59757 C 191.11858,323.4376 191.11858,320.15763 191.11858,317.91765 C 191.11858,316.87765 191.19858,315.99766 191.19858,315.43766 C 191.19858,314.87767 191.19858,314.55767 191.19858,314.55767 C 191.19858,314.55767 191.19858,314.87767 191.27858,315.43766 C 191.27858,315.99766 191.27858,316.87765 191.27858,317.91765 C 191.27858,320.15763 191.27858,323.4376 191.35858,327.59757 C 191.35858,329.67756 191.35858,331.99754 191.35858,334.55752 C 191.35858,335.19752 191.35858,335.83751 191.43858,336.47751 C 191.59858,337.1175 191.83858,337.7575 192.15858,338.31749 C 192.87857,339.43749 194.07856,340.31748 195.43855,340.63748 C 196.15855,340.79748 196.87854,340.71748 197.67854,340.71748 C 198.47853,340.71748 199.27852,340.71748 199.99852,340.71748 C 201.59851,340.71748 203.27849,340.71748 204.95848,340.71748 C 208.31846,340.71748 211.91843,340.71748 215.5984,340.71748 C 230.63829,340.63748 248.47816,340.63748 268.23801,340.63748 C 278.15794,340.63748 288.55786,340.63748 299.35778,340.55748 C 301.99776,340.55748 304.71774,340.55748 307.43772,340.55748 C 308.87771,340.55748 310.2377,340.55748 311.59769,340.55748 L 313.67768,340.55748 C 314.39767,340.63748 314.95767,340.55748 315.59766,340.31748 C 316.79765,339.91748 317.91765,338.95749 318.47764,337.7575 C 318.71764,337.1975 318.87764,336.55751 318.95764,335.83751 C 318.95764,335.19752 318.95764,334.47752 318.95764,333.75753 L 318.95764,325.27759 L 318.95764,324.0776 L 318.95764,323.9976 L 319.03764,323.8376 C 323.6776,318.95764 328.23757,314.07767 332.55754,309.43771 L 332.79753,309.9977 C 291.91784,309.8377 255.8381,309.67771 229.8383,309.59771 C 216.87839,309.51771 206.47847,309.43771 199.27852,309.35771 C 197.51854,309.43771 195.83855,309.19771 194.55856,309.75771 C 193.35857,310.2377 192.47857,311.1177 191.99858,311.91769 C 191.51858,312.71768 191.35858,313.43768 191.27858,313.83768 C 191.19858,314.31767 191.19858,314.55767 191.19858,314.55767 z"/><path id="path89" fill="#3a5565" fill-opacity="1" fill-rule="nonzero" stroke="none" d="M 307.11773,322.63761 L 207.43846,322.23761 L 207.43846,319.11764 L 307.11773,319.59763 L 307.11773,322.63761 z"/><path id="path91" fill="#3a5565" fill-opacity="1" fill-rule="nonzero" stroke="none" d="M 307.11773,332.55754 L 266.63802,332.31754 L 266.63802,329.27756 L 307.11773,329.43756 L 307.11773,332.55754 z"/><path id="path93" fill="#ef2e56" fill-opacity="1" fill-rule="nonzero" stroke="none" d="M 320.95762,369.27726 L 320.95762,390.31711 C 320.95762,393.19709 318.55764,395.59707 315.59766,395.59707 L 198.15853,395.59707 C 195.19855,395.59707 192.79857,393.19709 192.79857,390.31711 L 192.79857,378.79719 L 179.35867,364.3973 L 315.59766,363.9173 C 318.55764,363.9173 320.95762,366.31729 320.95762,369.27726 z"/><path id="path95" fill="#fff" fill-opacity="1" fill-rule="nonzero" stroke="none" d="M 205.03848,377.3572 L 304.71774,376.87721 L 304.71774,373.83723 L 205.03848,374.31723 L 205.03848,377.3572 z"/><path id="path97" fill="#fff" fill-opacity="1" fill-rule="nonzero" stroke="none" d="M 205.03848,387.19713 L 304.71774,386.79713 L 304.71774,383.67716 L 205.03848,384.15715 L 205.03848,387.19713 z"/><path id="path99" fill="#ef2e56" fill-opacity="1" fill-rule="nonzero" stroke="none" d="M 497.27632,101.91925 C 497.27632,110.55918 490.23637,117.51913 481.59643,117.51913 C 472.9565,117.51913 465.99655,110.55918 465.99655,101.91925 C 465.99655,93.279309 472.9565,86.239361 481.59643,86.239361 C 490.23637,86.239361 497.27632,93.279309 497.27632,101.91925 z"/><path id="path101" fill="#f6849f" fill-opacity="1" fill-rule="nonzero" stroke="none" d="M 481.59643,117.51913 C 472.9565,117.51913 465.99655,110.55918 465.99655,101.91925 C 465.99655,93.279309 472.9565,86.239361 481.59643,86.239361 C 490.23637,86.239361 497.27632,93.279309 497.27632,101.91925 C 497.27632,110.55918 490.23637,117.51913 481.59643,117.51913 z"/><path id="path103" fill="#242d38" fill-opacity="1" fill-rule="nonzero" stroke="none" d="M 476.39647,97.439278 C 477.03647,97.359279 477.51646,98.079273 477.59646,98.879268 C 477.67646,99.759261 477.19647,100.47926 476.63647,100.47926 C 475.99647,100.55926 475.51648,99.91926 475.43648,99.039266 C 475.35648,98.159273 475.83648,97.439278 476.39647,97.439278 z"/><path id="path105" fill="#242d38" fill-opacity="1" fill-rule="nonzero" stroke="none" d="M 477.91646,93.519307 C 477.83646,93.679306 476.55647,93.679306 475.11648,94.159303 C 473.67649,94.639299 472.7165,95.439293 472.5565,95.279294 C 472.3965,95.199295 473.19649,93.999304 474.87648,93.439308 C 476.55647,92.799313 477.91646,93.279309 477.91646,93.519307 z"/><path id="path107" fill="#242d38" fill-opacity="1" fill-rule="nonzero" stroke="none" d="M 489.19638,99.83926 C 489.03638,99.999259 488.23638,99.119266 486.87639,98.959267 C 485.5164,98.799268 484.47641,99.519263 484.39641,99.359264 C 484.31641,99.279265 484.47641,98.959267 484.87641,98.639269 C 485.3564,98.319272 486.0764,98.079273 486.95639,98.159273 C 487.75639,98.239272 488.47638,98.719269 488.79638,99.039266 C 489.19638,99.439263 489.27638,99.759261 489.19638,99.83926 z"/><path id="path109" fill="#242d38" fill-opacity="1" fill-rule="nonzero" stroke="none" d="M 490.55637,97.279279 C 490.39637,97.439278 489.19638,96.799283 487.51639,96.719284 C 485.7564,96.639284 484.47641,97.19928 484.39641,96.959282 C 484.23641,96.799283 485.5964,95.83929 487.51639,95.919289 C 489.43637,95.999289 490.71637,97.119281 490.55637,97.279279 z"/><path id="path111" fill="#242d38" fill-opacity="1" fill-rule="nonzero" stroke="none" d="M 489.43637,101.59925 C 489.51637,101.59925 489.51637,102.87924 488.47638,104.55923 C 487.43639,106.23921 485.11641,108.2392 481.91643,108.3992 C 478.79645,108.4792 476.31647,106.63921 475.19648,105.03922 C 473.99649,103.35923 473.91649,102.07924 473.99649,102.07924 C 474.15649,101.99924 474.39649,103.19924 475.59648,104.63922 C 476.79647,106.07921 479.11645,107.6792 481.91643,107.5992 C 484.71641,107.5192 486.95639,105.75922 487.99639,104.23923 C 489.11638,102.79924 489.27638,101.51925 489.43637,101.59925 z"/><path id="path113" fill="#ef2e56" fill-opacity="1" fill-rule="nonzero" stroke="none" d="M 43.999674,378.5572 C 43.599677,390.71711 33.519752,400.23704 21.359842,399.91704 C 9.1999319,399.51704 -0.31999763,389.43712 0,377.27721 C 0.31999763,365.1173 10.479922,355.59737 22.639832,355.91736 C 34.799742,356.31736 44.319672,366.39729 43.999674,378.5572 z"/><path id="path115" fill="#f6849f" fill-opacity="1" fill-rule="nonzero" stroke="none" d="M 21.999837,399.91704 C 21.759839,399.91704 21.59984,399.91704 21.359842,399.91704 C 9.4399301,399.59704 0,389.75711 0,377.9172 C 0,377.7572 0,377.5172 0,377.27721 C 0.31999763,365.35729 10.159925,355.91736 21.999837,355.91736 C 22.159836,355.91736 22.399834,355.91736 22.639832,355.91736 C 34.559744,356.23736 43.999674,366.07729 43.999674,377.9172 C 43.999674,378.1572 43.999674,378.3172 43.999674,378.5572 C 43.599677,390.47711 33.839749,399.91704 21.999837,399.91704 z"/><path id="path117" fill="#ef2e56" fill-opacity="1" fill-rule="nonzero" stroke="none" d="M 17.679869,371.83725 C 16.879875,370.71725 15.359886,370.63725 14.239895,371.35725 C 13.199902,372.07724 12.719906,372.95724 12.479908,374.31723 C 12.239909,372.95724 11.679913,371.99724 10.719921,371.19725 C 9.6799283,370.47726 8.0799401,370.47726 7.2799461,371.51725 C 6.7999496,372.15724 6.6399508,373.03724 6.7199502,373.83723 C 6.7999496,374.63722 6.9599484,375.51722 7.4399449,376.07721 C 9.1999319,378.3172 10.159925,378.71719 12.319909,380.31718 C 14.639892,378.87719 15.359886,378.4772 17.199873,376.39721 C 17.679869,375.83722 17.919867,374.95722 18.079866,374.15723 C 18.239865,373.35723 18.079866,372.47724 17.679869,371.83725 z"/><path id="path119" fill="#ef2e56" fill-opacity="1" fill-rule="nonzero" stroke="none" d="M 37.039726,372.39724 C 36.319731,371.27725 34.719743,371.19725 33.679751,371.91725 C 32.639758,372.63724 32.079762,373.51723 31.839764,374.87722 C 31.679765,373.51723 31.119769,372.55724 30.079777,371.75725 C 29.039785,371.03725 27.519796,371.03725 26.639803,372.07724 C 26.159806,372.71724 25.999807,373.59723 26.079807,374.39723 C 26.159806,375.19722 26.399804,376.07721 26.879801,376.63721 C 28.559788,378.87719 29.519781,379.27719 31.759765,380.87718 C 34.079748,379.43719 34.799742,379.03719 36.639729,376.95721 C 37.119725,376.31721 37.359723,375.51722 37.519722,374.71722 C 37.599721,373.91723 37.519722,373.03724 37.039726,372.39724 z"/><path id="path121" fill="#fff" fill-opacity="1" fill-rule="nonzero" stroke="none" d="M 29.119784,383.27716 C 28.719787,386.87713 25.199813,389.83711 21.59984,389.67711 C 17.999867,389.51711 14.79989,386.23714 14.639892,382.63717 L 29.119784,383.27716 z"/><path id="path123" fill="#ba746a" fill-opacity="1" fill-rule="nonzero" stroke="none" d="M 105.35922,381.11718 C 105.75922,378.87719 104.87922,370.63725 104.87922,370.63725 C 104.87922,370.63725 96.239287,369.67726 95.759291,361.11733 C 95.199295,352.55739 95.759291,332.79753 95.759291,332.79753 L 111.43917,325.11759 L 128.79905,338.23749 L 126.15907,381.03718 L 105.35922,381.11718 z"/><path id="path125" fill="#242d38" fill-opacity="1" fill-rule="nonzero" stroke="none" d="M 98.079273,347.11743 C 98.079273,347.75742 98.639269,348.23742 99.199265,348.23742 C 99.83926,348.23742 100.31926,347.75742 100.31926,347.11743 C 100.31926,346.47743 99.83926,345.99744 99.199265,345.99744 C 98.639269,345.99744 98.079273,346.47743 98.079273,347.11743 z"/><path id="path127" fill="#242d38" fill-opacity="1" fill-rule="nonzero" stroke="none" d="M 96.479285,346.31743 C 96.639284,346.47743 97.439278,345.75744 98.639269,345.75744 C 99.83926,345.67744 100.71925,346.23744 100.79925,346.07744 C 100.87925,345.99744 100.71925,345.75744 100.31926,345.43744 C 99.999259,345.19744 99.359264,344.95744 98.55927,345.03744 C 97.839275,345.03744 97.279279,345.35744 96.879282,345.67744 C 96.559285,345.99744 96.399286,346.23744 96.479285,346.31743 z"/><path id="path129" fill="#242d38" fill-opacity="1" fill-rule="nonzero" stroke="none" d="M 110.87918,346.87743 C 110.87918,347.51743 111.35918,347.99742 111.99917,347.99742 C 112.55917,347.99742 113.03916,347.51743 113.03916,346.87743 C 113.03916,346.31743 112.55917,345.83744 111.99917,345.83744 C 111.35918,345.83744 110.87918,346.31743 110.87918,346.87743 z"/><path id="path131" fill="#242d38" fill-opacity="1" fill-rule="nonzero" stroke="none" d="M 109.27919,346.15744 C 109.43919,346.23744 110.23918,345.59744 111.35918,345.51744 C 112.55917,345.43744 113.43916,345.99744 113.59916,345.83744 C 113.67916,345.75744 113.51916,345.51744 113.11916,345.27744 C 112.71917,345.03744 112.07917,344.79745 111.35918,344.79745 C 110.63918,344.87745 109.99919,345.19744 109.67919,345.51744 C 109.27919,345.75744 109.19919,346.07744 109.27919,346.15744 z"/><path id="path133" fill="#242d38" fill-opacity="1" fill-rule="nonzero" stroke="none" d="M 105.19922,355.99736 C 105.19922,355.91736 104.47923,355.83736 103.27923,355.75736 C 102.95924,355.67737 102.71924,355.67737 102.63924,355.43737 C 102.55924,355.19737 102.63924,354.87737 102.79924,354.47737 C 103.03924,353.75738 103.27923,352.87739 103.59923,352.07739 C 104.71922,348.55742 105.51922,345.75744 105.35922,345.67744 C 105.27922,345.59744 104.23923,348.39742 103.11924,351.91739 C 102.87924,352.79739 102.63924,353.59738 102.39924,354.39737 C 102.23924,354.71737 102.07924,355.11737 102.23924,355.59737 C 102.31924,355.83736 102.55924,355.99736 102.71924,355.99736 C 102.95924,356.07736 103.11924,356.07736 103.27923,356.07736 C 104.47923,356.07736 105.19922,356.07736 105.19922,355.99736 z"/><path id="path135" fill="#fff" fill-opacity="1" fill-rule="nonzero" stroke="none" d="M 109.11919,357.11735 C 108.4792,357.43735 105.75922,359.11734 103.35923,359.03734 C 103.35923,359.03734 104.87922,361.19732 107.27921,360.15733 C 109.83919,359.11734 109.11919,357.11735 109.11919,357.11735 z"/><path id="path137" fill="#ab5350" fill-opacity="1" fill-rule="nonzero" stroke="none" d="M 104.87922,370.63725 C 104.87922,370.63725 110.63918,370.63725 116.23914,366.79728 C 116.23914,366.79728 113.67916,373.03724 105.03922,372.71724 L 104.87922,370.63725 z"/><path id="path139" fill="#242d38" fill-opacity="1" fill-rule="nonzero" stroke="none" d="M 140.15896,344.55745 C 140.15896,344.55745 143.59894,364.3173 126.95906,367.83728 L 127.43906,344.07745 L 140.15896,344.55745 z"/><path id="path141" fill="#242d38" fill-opacity="1" fill-rule="nonzero" stroke="none" d="M 139.59897,340.15748 C 138.31898,335.27752 136.23899,331.51754 133.91901,328.63757 C 136.31899,329.59756 137.91898,330.63755 138.23898,330.31755 C 138.39897,330.07755 137.91898,329.35756 136.87899,328.47757 C 135.91899,327.59757 134.23901,326.63758 132.31902,325.99759 C 131.99902,325.91759 131.75902,325.83759 131.51903,325.75759 C 132.63902,325.27759 133.59901,324.6376 134.479,323.8376 C 136.47899,321.91762 137.35898,318.71764 136.15899,316.15766 C 135.039,313.91767 132.39902,312.63768 129.91904,312.87768 C 127.43906,313.19768 125.19907,314.87767 123.99908,317.03765 C 123.67908,317.59765 123.43909,318.07764 123.27909,318.71764 C 123.27909,317.83765 123.35909,316.87765 123.51909,315.83766 C 124.07908,312.55768 125.27907,310.0777 125.11907,309.9977 C 124.95907,309.9177 123.35909,312.31769 122.79909,315.75766 C 122.79909,316.07766 122.71909,316.39766 122.71909,316.63765 C 122.39909,315.75766 122.0791,314.87767 121.7591,314.15767 C 120.9591,312.47769 120.15911,311.51769 119.91911,311.67769 C 119.43912,311.91769 120.9591,315.51766 121.5991,320.39763 C 119.51911,319.75763 117.83913,319.51763 116.95913,319.51763 C 114.07915,319.51763 109.27919,318.07764 102.39924,323.6776 C 100.39926,324.95759 98.239272,326.79758 96.559285,329.27756 C 93.839305,333.19753 92.959311,337.4375 92.879312,340.47748 C 92.799313,341.99747 92.959311,343.19746 93.11931,344.07745 C 93.279309,344.87745 93.359308,345.35744 93.439308,345.35744 C 93.599307,345.27744 93.19931,343.43746 93.359308,340.47748 C 93.519307,338.71749 93.919304,336.39751 94.799298,334.07753 C 93.11931,339.99748 95.519292,344.79745 95.519292,344.79745 L 110.71918,342.47746 C 109.75919,339.11749 110.47918,333.75753 110.95918,331.19755 C 113.59916,343.67745 124.31908,349.67741 124.31908,349.67741 L 140.39896,347.11743 C 140.23896,345.67744 139.91896,341.51747 139.59897,340.15748 z"/><path id="path143" fill="#ef2e56" fill-opacity="1" fill-rule="nonzero" stroke="none" d="M 176.55869,531.11607 C 177.03869,531.35606 216.3984,539.11601 214.95841,533.83605 C 213.51842,528.63608 176.87869,520.15615 176.87869,520.15615 L 176.55869,531.11607 z"/><path id="path145" fill="#242d38" fill-opacity="1" fill-rule="nonzero" stroke="none" d="M 194.47856,527.67609 C 194.63856,527.67609 194.95856,528.55608 194.87856,529.75608 C 194.87856,530.95607 194.63856,531.91606 194.39856,531.83606 C 194.23856,531.83606 194.23856,530.87607 194.23856,529.75608 C 194.23856,528.63608 194.23856,527.67609 194.47856,527.67609 z"/><path id="path147" fill="#242d38" fill-opacity="1" fill-rule="nonzero" stroke="none" d="M 192.39857,526.9561 C 192.55857,526.8761 192.87857,527.99609 192.71857,529.35608 C 192.63857,530.79607 192.15858,531.75606 191.91858,531.75606 C 191.75858,531.67606 191.91858,530.63607 192.07858,529.35608 C 192.15858,528.07609 192.15858,526.9561 192.39857,526.9561 z"/><path id="path149" fill="#242d38" fill-opacity="1" fill-rule="nonzero" stroke="none" d="M 189.83859,526.7161 C 189.99859,526.7161 190.23859,527.75609 190.31859,529.11608 C 190.31859,530.47607 190.07859,531.51606 189.91859,531.51606 C 189.67859,531.51606 189.5986,530.39607 189.5986,529.11608 C 189.5986,527.83609 189.5986,526.7161 189.83859,526.7161 z"/><path id="path151" fill="#242d38" fill-opacity="1" fill-rule="nonzero" stroke="none" d="M 184.95863,522.87613 C 184.95863,522.87613 185.19863,522.87613 185.59863,522.95613 C 185.99862,523.03613 186.55862,523.11613 187.35861,523.27612 C 188.7986,523.59612 190.95859,524.15612 193.67857,524.87611 C 196.31855,525.59611 199.43852,526.5561 202.8785,527.67609 C 204.63848,528.31609 206.39847,528.87608 208.23846,529.67608 C 210.07844,530.47607 211.99843,531.51606 213.51842,532.95605 C 213.67842,533.19605 213.91842,533.35605 214.07841,533.67605 C 214.31841,534.07604 214.07841,534.63604 213.75842,534.79604 C 213.19842,535.19604 212.63842,535.11604 212.07843,535.19604 C 211.11844,535.27603 210.07844,535.27603 209.11845,535.35603 C 207.11847,535.35603 205.19848,535.27603 203.35849,535.19604 C 199.67852,534.95604 196.47854,534.47604 193.75856,534.07604 C 191.03858,533.59605 188.7986,533.19605 187.35861,532.87605 C 186.63862,532.79605 186.07862,532.63605 185.59863,532.55606 C 185.19863,532.47606 184.95863,532.39606 184.95863,532.39606 C 185.03863,532.31606 185.83862,532.39606 187.35861,532.63605 C 189.0386,532.87605 191.19858,533.19605 193.83856,533.59605 C 196.55854,533.91605 199.75852,534.31604 203.35849,534.55604 C 205.19848,534.63604 207.11847,534.71604 209.03845,534.63604 C 210.07844,534.63604 211.03844,534.55604 212.07843,534.47604 C 212.55843,534.47604 213.11842,534.47604 213.35842,534.23604 C 213.51842,534.15604 213.51842,534.07604 213.43842,533.99604 C 213.43842,533.83605 213.19842,533.67605 213.03842,533.51605 C 211.59843,532.07606 209.75845,531.11607 207.99846,530.31607 C 206.23847,529.51608 204.39849,528.95608 202.7185,528.31609 C 199.27852,527.1161 196.15855,526.1561 193.51857,525.35611 C 190.87859,524.55611 188.7186,523.99612 187.27861,523.59612 C 185.75862,523.19612 184.95863,522.95613 184.95863,522.87613 z"/><path id="path153" fill="#242d38" fill-opacity="1" fill-rule="nonzero" stroke="none" d="M 205.91847,528.71608 C 206.15847,528.79608 205.75848,530.31607 205.83848,532.15606 C 205.99847,533.99604 206.55847,535.43603 206.39847,535.51603 C 206.23847,535.59603 205.27848,534.23604 205.19848,532.15606 C 205.03848,530.15607 205.75848,528.63608 205.91847,528.71608 z"/><path id="path155" fill="#ef2e56" fill-opacity="1" fill-rule="nonzero" stroke="none" d="M 46.319657,523.35612 C 45.759661,523.27612 5.9999556,528.79608 9.039933,533.27605 C 12.15991,537.75602 49.519633,533.83605 49.519633,533.83605 L 46.319657,523.35612 z"/><path id="path157" fill="#242d38" fill-opacity="1" fill-rule="nonzero" stroke="none" d="M 30.479774,532.47606 C 30.319775,532.55606 29.75978,531.75606 29.359783,530.63607 C 28.959785,529.51608 28.959785,528.55608 29.119784,528.47609 C 29.359783,528.47609 29.67978,529.35608 29.999778,530.39607 C 30.399775,531.51606 30.639773,532.39606 30.479774,532.47606 z"/><path id="path159" fill="#242d38" fill-opacity="1" fill-rule="nonzero" stroke="none" d="M 32.719758,532.47606 C 32.559759,532.55606 31.839764,531.59606 31.519767,530.31607 C 31.199769,528.95608 31.359768,527.83609 31.519767,527.83609 C 31.759765,527.83609 31.919764,528.87608 32.239761,530.15607 C 32.559759,531.35606 32.879756,532.39606 32.719758,532.47606 z"/><path id="path161" fill="#242d38" fill-opacity="1" fill-rule="nonzero" stroke="none" d="M 35.199739,531.83606 C 35.03974,531.91606 34.399745,531.03607 33.919749,529.75608 C 33.519752,528.47609 33.359753,527.43609 33.519752,527.35609 C 33.75975,527.27609 34.159747,528.31609 34.639743,529.51608 C 35.03974,530.71607 35.359738,531.75606 35.199739,531.83606 z"/><path id="path163" fill="#242d38" fill-opacity="1" fill-rule="nonzero" stroke="none" d="M 41.039696,533.91605 C 41.039696,533.91605 40.799698,533.99604 40.399701,533.99604 C 39.999704,534.07604 39.439708,534.15604 38.639714,534.23604 C 37.119725,534.47604 34.879742,534.63604 32.159762,534.87604 C 29.439782,535.03604 26.159806,535.19604 22.479833,535.19604 C 20.639847,535.19604 18.799861,535.19604 16.799876,535.03604 C 14.79989,534.95604 12.719906,534.55604 10.719921,533.67605 C 10.479922,533.51605 10.239924,533.43605 9.9199265,533.19605 C 9.6799283,532.87605 9.6799283,532.31606 9.9199265,531.99606 C 10.319924,531.43606 10.879919,531.35606 11.359916,531.11607 C 12.319909,530.71607 13.199902,530.39607 14.159895,529.99607 C 15.999881,529.35608 17.839868,528.79608 19.599855,528.23609 C 23.119829,527.27609 26.399804,526.6361 29.119784,526.1561 C 31.759765,525.67611 33.999748,525.35611 35.519737,525.19611 C 36.239732,525.11611 36.799727,525.03611 37.279724,524.95611 C 37.679721,524.95611 37.919719,524.87611 37.919719,524.95611 C 37.919719,524.95611 37.039726,525.19611 35.599736,525.43611 C 33.919749,525.75611 31.759765,526.1561 29.199784,526.6361 C 26.479804,527.19609 23.279828,527.91609 19.839853,528.87608 C 18.079866,529.35608 16.23988,529.91607 14.399893,530.63607 C 13.5199,530.95607 12.559907,531.35606 11.599914,531.75606 C 11.119918,531.99606 10.639921,532.15606 10.479922,532.39606 C 10.399923,532.55606 10.399923,532.63605 10.479922,532.71605 C 10.559922,532.79605 10.79992,532.95605 11.039918,533.03605 C 12.879905,533.91605 14.87989,534.23604 16.799876,534.39604 C 18.799861,534.55604 20.719847,534.55604 22.479833,534.55604 C 26.159806,534.55604 29.359783,534.47604 32.159762,534.31604 C 34.879742,534.23604 37.119725,534.07604 38.639714,533.99604 C 40.159703,533.91605 41.039696,533.83605 41.039696,533.91605 z"/><path id="path165" fill="#242d38" fill-opacity="1" fill-rule="nonzero" stroke="none" d="M 19.279857,535.19604 C 19.119858,535.19604 18.95986,533.67605 18.239865,531.99606 C 17.51987,530.23607 16.479878,529.11608 16.639877,528.95608 C 16.719876,528.79608 18.079866,529.83608 18.87986,531.67606 C 19.679854,533.51605 19.439856,535.19604 19.279857,535.19604 z"/><path id="path167" fill="#3a5565" fill-opacity="1" fill-rule="nonzero" stroke="none" d="M 169.59874,475.11648 L 149.35889,475.11648 L 74.719447,477.03647 L 53.439604,474.23649 C 50.079629,473.51649 47.919645,473.19649 47.19965,473.43649 C 45.119666,474.15649 42.319687,476.15647 39.919704,478.95645 C 31.759765,488.71638 36.879727,503.67627 49.119636,506.95624 L 60.639551,510.07622 L 35.519737,518.15616 L 43.999674,542.31598 C 43.999674,542.31598 81.519396,534.15604 117.91913,525.59611 L 176.23869,541.35599 L 184.63863,514.31619 C 184.63863,514.31619 180.87866,513.1162 174.71871,511.11621 C 180.95866,509.19623 184.87863,507.67624 185.43863,506.79625 C 189.1186,501.11629 195.59855,474.71648 169.59874,475.11648 z"/><path id="path169" fill="#314250" fill-opacity="1" fill-rule="nonzero" stroke="none" d="M 131.03903,529.11608 L 117.91913,525.59611 L 174.31871,511.19621 L 131.03903,529.11608 z"/><path id="path171" fill="#314250" fill-opacity="1" fill-rule="nonzero" stroke="none" d="M 116.23914,492.95635 L 60.71955,477.11647 L 158.39883,478.55646 L 116.23914,492.95635 z"/><path id="path173" fill="#242d38" fill-opacity="1" fill-rule="nonzero" stroke="none" d="M 52.879608,540.556 C 52.799609,540.556 52.079614,539.19601 51.119621,537.03602 C 50.079629,534.79604 48.799639,531.75606 47.599647,528.31609 C 46.319657,524.79611 45.279665,521.67614 44.639669,519.35615 C 43.999674,517.03617 43.679676,515.59618 43.759676,515.51618 C 43.839675,515.51618 44.319672,516.87617 45.119666,519.19615 C 45.91966,521.43614 46.959652,524.63611 48.239643,528.07609 C 49.519633,531.51606 50.719624,534.63604 51.519618,536.87602 C 52.399612,539.11601 52.959608,540.476 52.879608,540.556 z"/><path id="path175" fill="#242d38" fill-opacity="1" fill-rule="nonzero" stroke="none" d="M 186.55862,484.07641 C 186.55862,484.07641 186.39862,484.15641 186.15862,484.23641 C 185.91862,484.31641 185.59863,484.47641 185.11863,484.63641 C 184.15864,484.95641 182.79865,485.4364 181.11866,485.9964 C 177.59868,487.19639 172.47872,488.95638 166.31877,491.03636 C 153.75886,495.27633 136.39899,500.87629 117.11913,506.95624 C 97.919275,512.9562 80.399404,518.23616 67.759498,521.99613 C 61.439545,523.83612 56.319583,525.27611 52.719609,526.3161 C 50.959623,526.7961 49.599633,527.19609 48.55964,527.43609 C 48.159643,527.59609 47.839646,527.67609 47.519648,527.75609 C 47.27965,527.83609 47.119651,527.83609 47.119651,527.83609 C 47.119651,527.83609 47.27965,527.75609 47.519648,527.67609 C 47.759646,527.59609 48.159643,527.51609 48.55964,527.35609 C 49.519633,527.0361 50.879623,526.6361 52.63961,526.0761 C 56.239583,524.95611 61.279546,523.43612 67.599499,521.51614 C 80.239406,517.67617 97.679276,512.31621 116.95913,506.31625 C 136.15899,500.23629 153.59886,494.63634 166.15877,490.55637 C 172.39872,488.55638 177.43869,486.95639 181.03866,485.7564 C 182.71865,485.19641 184.07864,484.79641 185.11863,484.47641 C 185.51863,484.31641 185.83862,484.23641 186.15862,484.15641 C 186.39862,484.07641 186.47862,484.07641 186.55862,484.07641 z"/><path id="path177" fill="#242d38" fill-opacity="1" fill-rule="nonzero" stroke="none" d="M 146.15892,483.11642 C 146.15892,483.11642 145.83892,483.27642 145.27892,483.43642 C 144.63893,483.67642 143.83893,483.99641 142.79894,484.39641 C 140.63896,485.11641 137.51898,486.2364 133.59901,487.59639 C 125.83907,490.23637 115.03915,493.75634 103.11924,497.59631 C 91.199324,501.43629 80.319405,504.79626 72.479463,507.11624 C 68.479493,508.31623 65.359516,509.27623 63.119532,509.91622 C 62.07954,510.15622 61.199547,510.39622 60.559551,510.55622 C 59.999556,510.71622 59.679558,510.79622 59.679558,510.79622 C 59.679558,510.79622 59.919556,510.63622 60.559551,510.47622 C 61.199547,510.23622 61.999541,509.99622 63.039533,509.67622 C 65.279516,508.87623 68.479493,507.91624 72.319464,506.71625 C 80.239406,504.15627 90.959326,500.71629 102.87924,496.87632 C 114.79915,493.11635 125.59907,489.59637 133.43901,487.11639 C 137.27898,485.8364 140.47896,484.87641 142.71894,484.15641 C 143.75894,483.83642 144.63893,483.51642 145.27892,483.35642 C 145.83892,483.19642 146.15892,483.11642 146.15892,483.11642 z"/><path id="path179" fill="#242d38" fill-opacity="1" fill-rule="nonzero" stroke="none" d="M 115.91914,492.87635 C 115.83914,493.11635 103.43923,489.67637 88.239346,485.3564 C 73.039459,480.95644 60.71955,477.27646 60.71955,477.11647 C 60.79955,476.95647 73.199458,480.31644 88.399345,484.71641 C 103.67923,489.03638 115.99914,492.71635 115.91914,492.87635 z"/><path id="path181" fill="#242d38" fill-opacity="1" fill-rule="nonzero" stroke="none" d="M 176.47869,512.4762 C 176.63869,512.5562 174.47871,518.47616 171.67873,525.75611 C 168.87875,532.95605 166.47877,538.79601 166.23877,538.71601 C 166.07877,538.71601 168.23875,532.71605 171.03873,525.51611 C 173.83871,518.23616 176.31869,512.3962 176.47869,512.4762 z"/><path id="path183" fill="#242d38" fill-opacity="1" fill-rule="nonzero" stroke="none" d="M 171.27873,523.67612 C 171.19873,523.83612 166.31877,522.71613 160.39881,521.11614 C 154.39886,519.51615 149.59889,518.07616 149.67889,517.91616 C 149.67889,517.67617 154.55886,518.87616 160.55881,520.39615 C 166.55877,521.99613 171.35873,523.43612 171.27873,523.67612 z"/><path id="path185" fill="#242d38" fill-opacity="1" fill-rule="nonzero" stroke="none" d="M 88.319346,501.51629 C 88.319346,501.59628 87.599351,501.43629 86.239361,501.11629 C 84.799372,500.79629 82.959385,500.31629 80.719402,499.7563 C 75.999437,498.55631 69.519485,496.95632 62.399538,494.79633 C 55.35959,492.71635 49.039637,490.31637 44.639669,488.31638 C 42.399686,487.27639 40.639699,486.3964 39.519707,485.7564 C 38.319716,485.11641 37.679721,484.71641 37.679721,484.63641 C 37.679721,484.63641 38.399716,484.95641 39.599707,485.5164 C 40.799698,486.0764 42.639684,486.87639 44.799668,487.83639 C 49.279635,489.75637 55.519589,491.99636 62.639536,494.15634 C 69.679484,496.23632 76.159436,497.99631 80.799401,499.2763 C 83.039385,499.9163 84.959371,500.47629 86.319361,500.87629 C 87.679351,501.27629 88.319346,501.51629 88.319346,501.51629 z"/><path id="path187" fill="#ef2e56" fill-opacity="1" fill-rule="nonzero" stroke="none" d="M 129.35904,379.91719 L 127.67905,379.91719 L 127.43906,374.23723 L 104.87922,375.59722 C 104.87922,375.59722 105.11922,378.3172 105.11922,380.15718 C 91.199324,381.51717 69.039489,388.55712 68.479493,419.83689 L 86.239361,420.23689 C 84.719372,434.55678 84.959371,443.11672 83.439382,448.47668 C 80.9594,457.35661 73.119458,476.07647 74.719447,477.03647 C 76.319435,477.99646 149.27889,479.35645 152.71887,477.43646 C 156.23884,475.51648 149.91889,451.03666 148.3189,444.39671 C 147.27891,440.15674 147.11891,430.47681 147.03891,422.95687 L 167.51876,422.07687 C 167.51876,422.07687 168.95875,379.75719 129.35904,379.91719 z"/><path id="path189" fill="#242d38" fill-opacity="1" fill-rule="nonzero" stroke="none" d="M 127.59905,379.67719 C 127.59905,379.75719 126.31906,379.99719 124.23908,380.23718 C 122.1591,380.47718 119.35912,380.71718 116.15914,380.79718 C 113.03916,380.79718 110.15918,380.71718 108.0792,380.55718 C 105.99921,380.39718 104.79922,380.23718 104.79922,380.15718 C 104.79922,380.07718 106.07921,380.07718 108.0792,380.07718 C 110.15918,380.15718 113.03916,380.15718 116.15914,380.07718 C 119.27912,379.99719 122.1591,379.83719 124.23908,379.75719 C 126.23906,379.67719 127.51906,379.59719 127.59905,379.67719 z"/><path id="path191" fill="#242d38" fill-opacity="1" fill-rule="nonzero" stroke="none" d="M 108.95919,375.35722 C 109.11919,375.35722 109.27919,376.47721 109.27919,377.8372 C 109.27919,379.19719 109.11919,380.23718 108.95919,380.23718 C 108.79919,380.23718 108.6392,379.19719 108.6392,377.8372 C 108.6392,376.47721 108.79919,375.35722 108.95919,375.35722 z"/><path id="path193" fill="#242d38" fill-opacity="1" fill-rule="nonzero" stroke="none" d="M 114.95915,374.95722 C 115.19915,374.95722 115.35915,376.15721 115.35915,377.5972 C 115.43914,379.11719 115.27915,380.31718 115.11915,380.31718 C 114.95915,380.31718 114.71915,379.11719 114.71915,377.6772 C 114.63915,376.15721 114.79915,374.95722 114.95915,374.95722 z"/><path id="path195" fill="#242d38" fill-opacity="1" fill-rule="nonzero" stroke="none" d="M 121.1991,374.71722 C 121.3591,374.71722 121.6791,375.91722 121.6791,377.4372 C 121.6791,378.95719 121.5191,380.15718 121.2791,380.15718 C 121.1191,380.15718 121.0391,378.87719 120.9591,377.4372 C 120.9591,375.91722 120.9591,374.71722 121.1991,374.71722 z"/><path id="path197" fill="#242d38" fill-opacity="1" fill-rule="nonzero" stroke="none" d="M 125.67907,374.55723 C 125.91907,374.55723 125.99907,375.67722 126.23906,377.11721 C 126.39906,378.5572 126.55906,379.75719 126.39906,379.75719 C 126.15907,379.83719 125.67907,378.71719 125.51907,377.19721 C 125.35907,375.75722 125.51907,374.47723 125.67907,374.55723 z"/><path id="path199" fill="#242d38" fill-opacity="1" fill-rule="nonzero" stroke="none" d="M 89.11934,419.83689 C 88.879342,419.83689 88.719343,416.79691 88.719343,413.11694 C 88.639343,409.43697 88.799342,406.39699 88.959341,406.39699 C 89.199339,406.39699 89.359338,409.43697 89.439337,413.11694 C 89.439337,416.79691 89.279339,419.83689 89.11934,419.83689 z"/><path id="path201" fill="#242d38" fill-opacity="1" fill-rule="nonzero" stroke="none" d="M 146.39892,422.07687 C 146.15892,422.07687 145.75892,418.8769 145.43892,414.87693 C 145.11893,410.87696 144.95893,407.59698 145.19892,407.59698 C 145.35892,407.59698 145.75892,410.79696 146.07892,414.79693 C 146.47891,418.7969 146.55891,422.07687 146.39892,422.07687 z"/><path id="path203" fill="#242d38" fill-opacity="1" fill-rule="nonzero" stroke="none" d="M 89.11934,419.83689 C 89.11934,419.91689 87.919349,419.91689 86.079362,419.91689 C 83.919378,419.91689 81.439397,419.91689 78.719417,419.83689 C 75.999437,419.83689 73.519455,419.91689 71.359471,419.91689 C 69.439486,419.91689 68.319494,419.91689 68.319494,419.75689 C 68.239495,419.67689 69.439486,419.51689 71.279472,419.43689 C 73.199458,419.27689 75.839438,419.19689 78.719417,419.19689 C 81.599396,419.19689 84.159377,419.27689 86.079362,419.43689 C 87.919349,419.59689 89.11934,419.75689 89.11934,419.83689 z"/><path id="path205" fill="#242d38" fill-opacity="1" fill-rule="nonzero" stroke="none" d="M 167.51876,422.07687 C 167.51876,422.23687 162.6388,422.39687 156.63884,422.39687 C 150.63888,422.39687 145.75892,422.23687 145.75892,422.07687 C 145.75892,421.83688 150.63888,421.67688 156.63884,421.67688 C 162.6388,421.67688 167.51876,421.83688 167.51876,422.07687 z"/><path id="path207" fill="#ba746a" fill-opacity="1" fill-rule="nonzero" stroke="none" d="M 166.55877,422.23687 C 166.55877,422.23687 171.91873,471.9965 156.63884,476.87647 C 141.43895,481.75643 111.35918,458.6366 111.35918,458.6366 L 119.99911,441.03673 C 119.99911,441.03673 140.07896,454.95663 144.31893,451.83665 C 148.5589,448.71668 146.39892,422.23687 146.39892,422.23687 L 166.55877,422.23687 z"/><path id="path209" fill="#ba746a" fill-opacity="1" fill-rule="nonzero" stroke="none" d="M 68.79949,419.83689 C 68.79949,419.83689 63.359531,469.11653 78.559418,473.99649 C 93.839305,478.87645 123.91908,455.67662 123.91908,455.67662 L 115.27915,438.15675 C 115.27915,438.15675 95.119295,451.03666 90.959326,447.75668 C 88.559344,445.9167 88.479345,420.07689 88.479345,420.07689 C 81.359397,419.75689 74.799446,419.43689 68.79949,419.83689 z"/><path id="path211" fill="#242d38" fill-opacity="1" fill-rule="nonzero" stroke="none" d="M 157.11884,430.07681 L 146.95891,479.67645 C 146.95891,479.67645 84.799372,479.19645 84.159377,479.03645 C 83.519381,478.79645 77.519426,430.07681 77.519426,430.07681 L 157.11884,430.07681 z"/><path id="path213" fill="#fff" fill-opacity="1" fill-rule="nonzero" stroke="none" d="M 112.47917,455.19663 C 112.47917,457.11661 114.07915,458.7166 116.15914,458.7166 C 118.23912,458.7166 119.91911,457.11661 119.91911,455.19663 C 119.91911,453.27664 118.23912,451.75665 116.15914,451.75665 C 114.07915,451.75665 112.47917,453.27664 112.47917,455.19663 z"/><path id="path215" fill="#ba746a" fill-opacity="1" fill-rule="nonzero" stroke="none" d="M 125.51907,346.39743 C 126.23906,345.75744 128.47905,345.59744 129.27904,346.15744 C 130.07904,346.71743 130.55903,347.67742 130.71903,348.63742 C 131.03903,350.23741 130.71903,351.99739 129.59904,353.19738 C 128.47905,354.31738 126.47906,354.71737 125.19907,353.75738 z"/><path id="path217" fill="#ab5350" fill-opacity="1" fill-rule="nonzero" stroke="none" d="M 127.11906,352.39739 C 127.11906,352.31739 127.51906,352.23739 127.99905,351.83739 C 128.55905,351.5174 129.03904,350.7974 128.95904,349.83741 C 128.87905,348.95742 128.23905,348.31742 127.67905,348.07742 C 127.11906,347.83742 126.71906,347.83742 126.71906,347.67742 C 126.63906,347.59743 127.11906,347.43743 127.83905,347.59743 C 128.55905,347.75742 129.59904,348.55742 129.67904,349.83741 C 129.83904,351.0374 128.95904,351.99739 128.31905,352.31739 C 127.59905,352.63739 127.11906,352.47739 127.11906,352.39739 z"/><path id="path219" fill="#ef2e56" fill-opacity="1" fill-rule="nonzero" stroke="none" d="M 433.83679,519.11615 L 431.19681,505.03626 L 405.91699,509.51623 L 409.59697,530.63607 L 411.19695,530.47607 C 418.2369,529.59608 446.87669,525.27611 451.27666,522.95613 C 456.15662,520.39615 433.83679,519.11615 433.83679,519.11615 z"/><path id="path221" fill="#242d38" fill-opacity="1" fill-rule="nonzero" stroke="none" d="M 451.67665,521.51614 C 451.67665,521.75614 442.31672,523.67612 430.63681,525.8361 C 418.9569,527.99609 409.51697,529.51608 409.43697,529.27608 C 409.43697,529.11608 418.7969,527.1161 430.47681,524.95611 C 442.15672,522.87613 451.59665,521.27614 451.67665,521.51614 z"/><path id="path223" fill="#242d38" fill-opacity="1" fill-rule="nonzero" stroke="none" d="M 434.79678,521.91613 C 434.55678,521.83613 434.63678,521.03614 435.03678,520.23615 C 435.43677,519.43615 435.99677,518.87616 436.15677,519.03616 C 436.39677,519.19615 436.15677,519.83615 435.75677,520.63614 C 435.43677,521.35614 435.03678,521.99613 434.79678,521.91613 z"/><path id="path225" fill="#242d38" fill-opacity="1" fill-rule="nonzero" stroke="none" d="M 436.55677,522.55613 C 436.31677,522.47613 436.31677,521.67614 436.63677,520.71614 C 436.95676,519.67615 437.51676,519.03616 437.75676,519.19615 C 437.91676,519.27615 437.75676,520.07615 437.43676,520.95614 C 437.11676,521.83613 436.79676,522.55613 436.55677,522.55613 z"/><path id="path227" fill="#242d38" fill-opacity="1" fill-rule="nonzero" stroke="none" d="M 417.03691,527.83609 C 416.95691,527.91609 416.55691,527.59609 415.83692,527.1161 C 415.19692,526.5561 414.31693,525.8361 413.27694,525.27611 C 412.15695,524.71611 411.03696,524.55611 410.31696,524.55611 C 409.51697,524.63611 409.03697,524.79611 408.95697,524.71611 C 408.87697,524.63611 409.27697,524.23612 410.15696,523.99612 C 411.11695,523.75612 412.39695,523.83612 413.59694,524.47611 C 414.87693,525.11611 415.75692,525.9961 416.31692,526.6361 C 416.87691,527.27609 417.11691,527.75609 417.03691,527.83609 z"/><path id="path229" fill="#242d38" fill-opacity="1" fill-rule="nonzero" stroke="none" d="M 434.39678,519.27615 C 434.55678,519.43615 434.15678,519.99615 433.51679,520.39615 C 432.87679,520.79614 432.1568,520.79614 432.0768,520.55614 C 431.9968,520.39615 432.4768,519.99615 433.11679,519.67615 C 433.67679,519.27615 434.23678,519.03616 434.39678,519.27615 z"/><path id="path231" fill="#242d38" fill-opacity="1" fill-rule="nonzero" stroke="none" d="M 433.75679,517.99616 C 433.75679,518.23616 433.19679,518.55616 432.3168,518.71616 C 431.4368,518.87616 430.71681,518.79616 430.71681,518.55616 C 430.71681,518.31616 431.3568,517.99616 432.1568,517.83616 C 432.95679,517.67617 433.67679,517.75616 433.75679,517.99616 z"/><path id="path233" fill="#242d38" fill-opacity="1" fill-rule="nonzero" stroke="none" d="M 428.55683,379.67719 L 416.15692,412.87694 L 402.15702,344.79745 z M 464.23656,370.23726 C 456.39662,354.47737 414.47693,293.35783 414.47693,293.35783 L 392.0771,295.67781 L 391.9971,295.51781 L 366.95728,298.31779 L 366.95728,298.31779 L 353.11738,299.83778 L 403.19701,518.23616 L 437.75676,517.59617 L 429.43682,477.19647 C 435.19678,462.87657 468.55653,379.03719 464.23656,370.23726"/><path id="path235" fill="#f89f8c" fill-opacity="1" fill-rule="nonzero" stroke="none" d="M 400.79703,192.47857 C 400.47703,190.15859 401.67702,180.71866 401.67702,180.71866 C 401.67702,180.71866 410.39696,180.07867 411.19695,171.43873 C 411.99695,162.87879 412.15695,142.95894 412.15695,142.95894 L 396.55706,134.719 L 378.71719,147.35891 L 374.15723,159.35882 L 380.15718,174.23871 L 379.99719,179.19867 L 379.99719,190.47859 L 400.79703,192.47857 z"/><path id="path237" fill="#242d38" fill-opacity="1" fill-rule="nonzero" stroke="none" d="M 410.95696,157.35883 C 410.95696,157.99883 410.39696,158.47883 409.83696,158.47883 C 409.19697,158.47883 408.71697,157.91883 408.79697,157.35883 C 408.79697,156.71884 409.27697,156.23884 409.91696,156.23884 C 410.47696,156.23884 410.95696,156.79884 410.95696,157.35883 z"/><path id="path239" fill="#242d38" fill-opacity="1" fill-rule="nonzero" stroke="none" d="M 411.03696,156.23884 C 410.87696,156.39884 410.07696,155.67885 408.87697,155.51885 C 407.75698,155.43885 406.79699,155.99884 406.71699,155.83885 C 406.63699,155.75885 406.79699,155.51885 407.19698,155.27885 C 407.59698,154.95885 408.23698,154.79885 408.95697,154.87885 C 409.75696,154.87885 410.31696,155.27885 410.63696,155.59885 C 411.03696,155.91885 411.11695,156.15884 411.03696,156.23884 z"/><path id="path241" fill="#242d38" fill-opacity="1" fill-rule="nonzero" stroke="none" d="M 397.03706,156.07884 C 397.51706,156.39884 397.67705,157.11884 397.27706,157.59883 C 396.95706,158.07883 396.23706,158.15883 395.75707,157.83883 C 395.27707,157.43883 395.11707,156.79884 395.51707,156.31884 C 395.83707,155.75885 396.55706,155.67885 397.03706,156.07884 z"/><path id="path243" fill="#242d38" fill-opacity="1" fill-rule="nonzero" stroke="none" d="M 397.91705,155.83885 C 397.75705,155.91885 396.95706,155.19885 395.75707,155.11885 C 394.55708,155.03885 393.67708,155.59885 393.51709,155.43885 C 393.51709,155.35885 393.67708,155.11885 394.07708,154.79885 C 394.47708,154.55886 395.11707,154.31886 395.83707,154.39886 C 396.55706,154.47886 397.19706,154.79885 397.51706,155.11885 C 397.83705,155.43885 397.91705,155.75885 397.91705,155.83885 z"/><path id="path245" fill="#242d38" fill-opacity="1" fill-rule="nonzero" stroke="none" d="M 401.83702,165.99877 C 401.83702,165.91877 402.55702,165.83877 403.75701,165.75877 C 404.07701,165.75877 404.397,165.75877 404.477,165.51877 C 404.557,165.27878 404.477,164.95878 404.31701,164.55878 C 404.07701,163.75879 403.83701,162.95879 403.59701,162.0788 C 402.55702,158.55883 401.83702,155.67885 401.99702,155.59885 C 402.07702,155.59885 402.31702,156.31884 402.71702,157.43883 C 403.03701,158.55883 403.51701,160.15881 404.07701,161.9188 C 404.31701,162.79879 404.557,163.67879 404.717,164.47878 C 404.877,164.79878 405.037,165.19878 404.797,165.67877 C 404.717,165.91877 404.477,166.07877 404.31701,166.07877 C 404.07701,166.15877 403.91701,166.15877 403.75701,166.15877 C 402.55702,166.07877 401.83702,166.07877 401.83702,165.99877 z"/><path id="path247" fill="#fff" fill-opacity="1" fill-rule="nonzero" stroke="none" d="M 397.91705,166.95876 C 396.71706,166.15877 401.11703,169.03875 403.59701,169.11875 C 403.59701,169.11875 401.99702,171.19873 399.59704,170.15874 C 397.11706,168.95875 397.91705,166.95876 397.91705,166.95876 z"/><path id="path249" fill="#f5795c" fill-opacity="1" fill-rule="nonzero" stroke="none" d="M 401.67702,180.71866 C 401.67702,180.71866 395.91707,180.55866 390.39711,176.47869 C 390.39711,176.47869 392.79709,182.87865 401.43703,182.79865 L 401.67702,180.71866 z"/><path id="path251" fill="#f5795c" fill-opacity="1" fill-rule="nonzero" stroke="none" d="M 381.19718,161.7588 C 381.19718,161.7588 381.11718,161.8388 380.87718,161.9988 C 380.63718,162.0788 380.31718,162.1588 379.91719,162.0788 C 379.11719,161.8388 378.3972,160.63881 378.3172,159.27882 C 378.2372,158.63882 378.3172,157.99883 378.5572,157.43883 C 378.71719,156.87884 379.03719,156.47884 379.43719,156.39884 C 379.83719,156.31884 380.07718,156.47884 380.23718,156.71884 C 380.31718,156.87884 380.31718,157.03884 380.31718,157.03884 C 380.31718,157.11884 380.47718,156.95884 380.39718,156.63884 C 380.39718,156.47884 380.23718,156.31884 380.07718,156.23884 C 379.91719,156.07884 379.59719,155.99884 379.35719,156.07884 C 378.79719,156.15884 378.3172,156.71884 378.0772,157.27883 C 377.8372,157.83883 377.6772,158.55883 377.7572,159.35882 C 377.9172,160.79881 378.71719,162.1588 379.83719,162.3988 C 380.39718,162.4788 380.79718,162.3188 380.95718,162.1588 C 381.19718,161.9188 381.27718,161.7588 381.19718,161.7588 z"/><path id="path253" fill="#ef2e56" fill-opacity="1" fill-rule="nonzero" stroke="none" d="M 374.63722,144.07893 C 373.67723,143.35894 372.71724,142.39895 372.31724,141.03896 C 371.83725,139.75896 371.99724,138.31898 372.63724,137.35898 C 372.87724,136.79899 373.35723,136.39899 373.75723,136.07899 C 373.35723,139.11897 375.27722,142.15895 375.83722,145.27892 C 375.51722,144.87893 375.11722,144.47893 374.63722,144.07893 z M 414.39693,144.39893 C 413.91693,144.55893 413.35694,144.63893 412.95694,144.71893 C 414.55693,143.83893 415.91692,142.55894 416.79691,140.95896 C 417.9969,138.63897 418.1569,135.75899 416.79691,133.59901 C 415.35692,131.43903 412.31695,130.47903 410.07696,131.75902 C 411.11695,129.99904 410.31696,127.51906 408.63697,126.39906 C 406.87699,125.19907 404.637,125.19907 402.71702,125.83907 C 400.71703,126.47906 399.03704,127.67905 397.35706,128.87905 C 397.19706,127.51906 396.15707,126.31906 394.95707,125.67907 C 393.67708,125.03907 392.23709,124.95907 390.8771,125.19907 C 386.87713,125.75907 383.43716,129.11904 382.71717,133.11901 C 381.51717,131.83902 379.51719,131.27903 377.8372,131.67902 C 376.07721,132.07902 374.55723,133.43901 373.99723,135.119 L 373.91723,135.359 C 373.19724,135.599 372.47724,136.15899 371.99724,136.95899 C 371.27725,138.15898 371.11725,139.75896 371.59725,141.27895 C 372.07724,142.79894 373.19724,143.91893 374.23723,144.63893 C 374.71722,145.03893 375.19722,145.35892 375.43722,145.83892 C 375.75722,146.23892 375.91722,146.63891 375.91722,147.11891 C 375.83722,149.99889 374.31723,152.71887 373.59723,155.51885 C 372.63724,159.43882 374.79722,164.79878 376.07721,168.63875 C 377.3572,172.47872 377.7572,173.99871 380.15718,174.23871 L 380.55718,163.91879 C 377.9172,166.15877 374.31723,158.63882 376.71721,155.59885 C 379.03719,152.63887 381.51717,153.67886 381.91717,155.51885 C 382.23717,156.79884 382.55717,157.67883 382.55717,157.67883 L 385.27715,157.67883 L 384.95715,155.43885 C 384.95715,155.43885 384.39715,145.43892 389.19712,144.79893 C 390.8771,144.55893 391.2771,144.71893 392.79709,145.43892 C 394.39708,146.23892 395.99707,146.23892 397.67705,146.15892 C 399.35704,146.07892 401.67702,144.23893 401.59703,142.47894 C 403.59701,144.79893 406.63699,146.07892 409.59697,145.75892 C 410.39696,145.67892 411.19695,145.43892 411.91695,145.19892 C 412.55694,145.35892 413.59694,145.43892 414.63693,145.11893 C 415.67692,144.71893 416.47691,144.07893 416.95691,143.43894 C 417.35691,142.87894 417.43691,142.39895 417.35691,142.39895 C 417.19691,142.31895 416.31692,143.83893 414.39693,144.39893"/><path id="path255" fill="#ef2e56" fill-opacity="1" fill-rule="nonzero" stroke="none" d="M 460.15659,156.95884 L 460.15659,174.07871 C 460.15659,177.99868 463.35657,181.19866 467.27654,181.19866 L 496.95632,181.19866 L 496.95632,191.03858 L 502.31628,181.59865 C 505.59625,181.35866 508.15624,178.63868 508.15624,175.3587 L 508.15624,156.95884 C 508.15624,153.03887 504.95626,149.91889 501.03629,149.91889 L 467.27654,149.91889 C 463.35657,149.91889 460.15659,153.03887 460.15659,156.95884 z"/><path id="path257" fill="#fff" fill-opacity="1" fill-rule="nonzero" stroke="none" d="M 476.39647,166.47877 C 476.39647,168.07875 475.11648,169.35875 473.51649,169.35875 C 471.8365,169.35875 470.55651,168.07875 470.55651,166.47877 C 470.55651,164.87878 471.8365,163.51879 473.51649,163.51879 C 475.11648,163.51879 476.39647,164.87878 476.39647,166.47877 z"/><path id="path259" fill="#fff" fill-opacity="1" fill-rule="nonzero" stroke="none" d="M 487.43639,166.47877 C 487.43639,168.07875 486.1564,169.35875 484.55641,169.35875 C 482.87642,169.35875 481.59643,168.07875 481.59643,166.47877 C 481.59643,164.87878 482.87642,163.51879 484.55641,163.51879 C 486.1564,163.51879 487.43639,164.87878 487.43639,166.47877 z"/><path id="path261" fill="#fff" fill-opacity="1" fill-rule="nonzero" stroke="none" d="M 498.47631,166.47877 C 498.47631,168.07875 497.19632,169.35875 495.51633,169.35875 C 493.91634,169.35875 492.63635,168.07875 492.63635,166.47877 C 492.63635,164.87878 493.91634,163.51879 495.51633,163.51879 C 497.19632,163.51879 498.47631,164.87878 498.47631,166.47877 z"/><path id="path263" fill="#3a5565" fill-opacity="1" fill-rule="nonzero" stroke="none" d="M 483.67642,207.99846 C 483.11642,206.63847 445.1967,240.07822 437.67676,241.27821 L 415.59692,212.47843 C 415.59692,212.47843 410.95696,205.19848 401.11703,192.79857 C 394.79708,184.71863 377.27721,186.39862 372.63724,196.15855 C 364.7973,212.79842 364.5573,234.87826 358.47734,270.238 L 353.35738,300.31778 L 360.95733,299.43778 L 414.63693,293.83782 L 415.99692,257.91809 C 426.63684,268.63801 429.91682,270.95799 435.43677,270.078 C 449.35667,267.91802 497.99631,224.15834 497.99631,224.15834 C 497.99631,224.15834 484.23641,209.35845 483.67642,207.99846 z"/><path id="path265" fill="#242d38" fill-opacity="1" fill-rule="nonzero" stroke="none" d="M 491.43636,230.23829 C 491.43636,230.31829 490.31637,229.5983 488.71638,228.15831 C 487.11639,226.71832 485.03641,224.71834 482.95642,222.23835 C 480.79644,219.75837 479.11645,217.35839 477.99646,215.5184 C 476.87647,213.67842 476.23647,212.55843 476.31647,212.47843 C 476.39647,212.39843 477.11647,213.51842 478.39646,215.27841 C 479.59645,216.95839 481.35643,219.27838 483.43642,221.75836 C 485.5164,224.23834 487.59639,226.31832 489.11638,227.83831 C 490.55637,229.2783 491.51636,230.1583 491.43636,230.23829 z"/><path id="path267" fill="#242d38" fill-opacity="1" fill-rule="nonzero" stroke="none" d="M 435.51677,252.63813 C 435.35678,252.63813 435.67677,250.07815 436.15677,246.87817 C 436.71677,243.75819 437.35676,241.19821 437.51676,241.27821 C 437.75676,241.27821 437.43676,243.83819 436.87676,247.03817 C 436.31677,250.15815 435.67677,252.71813 435.51677,252.63813 z"/><path id="path269" fill="#242d38" fill-opacity="1" fill-rule="nonzero" stroke="none" d="M 440.31674,251.43814 C 440.15674,251.51814 439.43674,249.27815 438.63675,246.55817 C 437.91676,243.75819 437.43676,241.43821 437.59676,241.43821 C 437.83676,241.35821 438.55675,243.5982 439.35675,246.31818 C 440.07674,249.11815 440.55674,251.43814 440.31674,251.43814 z"/><path id="path271" fill="#c3c2c0" fill-opacity="1" fill-rule="nonzero" stroke="none" d="M 415.43692,272.95798 L 415.99692,257.91809 C 415.99692,257.91809 416.07692,257.91809 416.07692,257.91809 L 415.43692,272.95798 z"/><path id="path273" fill="#314250" fill-opacity="1" fill-rule="nonzero" stroke="none" d="M 415.43692,273.03798 L 387.43713,220.15837 L 416.07692,257.35809 L 416.07692,257.91809 C 416.07692,257.91809 415.99692,257.91809 415.99692,257.91809 L 415.43692,272.95798 L 415.43692,273.03798 z"/><path id="path275" fill="#242d38" fill-opacity="1" fill-rule="nonzero" stroke="none" d="M 385.67714,217.51839 C 385.67714,217.51839 386.15714,218.07838 386.95713,219.11838 C 387.83713,220.31837 388.95712,221.83836 390.31711,223.59834 C 393.11709,227.43832 397.03706,232.55828 401.43703,238.23824 C 405.83699,243.91819 409.83696,248.95816 412.79694,252.79813 C 414.15693,254.55811 415.27692,256.0781 416.15692,257.19809 C 416.95691,258.23809 417.35691,258.87808 417.35691,258.87808 C 417.27691,258.95808 416.79691,258.39809 415.99692,257.35809 C 415.03693,256.2381 413.83693,254.79811 412.39695,253.11813 C 409.43697,249.43815 405.277,244.39819 400.87703,238.71823 C 396.47706,233.03827 392.63709,227.75831 389.91711,223.91834 C 388.55712,221.99836 387.43713,220.39837 386.71714,219.27838 C 385.99714,218.15838 385.59714,217.59839 385.67714,217.51839 z"/><path id="path277" fill="#242d38" fill-opacity="1" fill-rule="nonzero" stroke="none" d="M 386.55714,234.07827 C 386.47714,234.07827 386.31714,233.51827 386.07714,232.47828 C 385.75714,231.43829 385.43714,229.9183 385.03715,228.07831 L 385.43714,228.23831 C 383.75716,229.1183 381.91717,230.1583 379.91719,231.27829 L 379.51719,231.43829 L 379.43719,231.03829 C 379.19719,230.31829 379.03719,229.5983 378.79719,228.79831 C 378.4772,227.59831 378.1572,226.47832 377.8372,225.35833 L 378.3172,225.51833 C 376.31721,226.63832 374.47723,227.67831 372.87724,228.55831 L 372.55724,228.79831 L 372.47724,228.39831 C 372.07724,225.35833 371.83725,223.43834 371.99724,223.43834 C 372.07724,223.43834 372.47724,225.27833 373.03724,228.31831 L 372.63724,228.15831 C 374.23723,227.19832 375.99721,226.15832 377.9972,224.95833 L 378.3172,224.71834 L 378.4772,225.11833 C 378.79719,226.23832 379.11719,227.43832 379.43719,228.63831 C 379.67719,229.3583 379.91719,230.1583 380.07718,230.87829 L 379.59719,230.63829 C 381.59717,229.5983 383.51716,228.63831 385.19715,227.75831 L 385.51714,227.59831 L 385.59714,227.91831 C 385.91714,229.8383 386.15714,231.35829 386.31714,232.39828 C 386.55714,233.43827 386.55714,234.07827 386.55714,234.07827 z"/><path id="path279" fill="#242d38" fill-opacity="1" fill-rule="nonzero" stroke="none" d="M 393.11709,204.15849 C 393.03709,204.23849 392.55709,203.91849 391.5971,203.35849 C 390.71711,202.7985 389.43712,201.9185 387.83713,200.87851 L 388.23712,200.79851 C 387.67713,202.5585 387.03713,204.55848 386.39714,206.71847 L 386.23714,207.11847 L 385.91714,206.95847 C 385.19715,206.55847 384.55715,206.15847 383.83716,205.75848 C 382.79716,205.11848 381.75717,204.55848 380.79718,203.91849 L 381.27718,203.75849 C 380.63718,205.91847 379.99719,207.99846 379.51719,209.67845 L 379.35719,210.07844 L 379.03719,209.83845 C 376.63721,207.91846 375.11722,206.71847 375.19722,206.63847 C 375.27722,206.55847 376.87721,207.59846 379.35719,209.43845 L 378.95719,209.59845 C 379.43719,207.83846 379.99719,205.75848 380.63718,203.51849 L 380.71718,203.1185 L 381.11718,203.35849 C 382.07717,203.91849 383.11716,204.55848 384.23715,205.11848 C 384.87715,205.59848 385.59714,205.91847 386.23714,206.31847 L 385.75714,206.55847 C 386.47714,204.39849 387.11713,202.3185 387.67713,200.55851 L 387.83713,200.23852 L 388.15712,200.47851 C 389.67711,201.51851 390.9571,202.4785 391.8371,203.1185 C 392.63709,203.75849 393.11709,204.15849 393.11709,204.15849 z"/><path id="path281" fill="#d9d7d4" fill-opacity="1" fill-rule="nonzero" stroke="none" d="M 412.71694,214.47841 C 412.71694,214.47841 412.23695,214.07841 411.43695,213.35842 C 410.71696,212.55843 409.59697,211.43843 408.31698,210.07844 L 408.79697,210.07844 C 407.83698,211.67843 406.79699,213.51842 405.597,215.4384 L 405.437,215.8384 L 405.117,215.5184 C 404.557,215.03841 403.99701,214.47841 403.35701,213.99841 C 402.47702,213.11842 401.59703,212.31843 400.71703,211.51843 L 401.27703,211.43843 C 400.15704,213.43842 399.11704,215.27841 398.23705,216.87839 L 398.07705,217.19839 L 397.83705,216.87839 C 395.83707,214.55841 394.63708,213.03842 394.71708,212.95842 C 394.79708,212.87842 396.15707,214.23841 398.23705,216.5584 L 397.75705,216.6384 C 398.63705,215.03841 399.59704,213.11842 400.71703,211.11844 L 400.87703,210.71844 L 401.19703,211.03844 C 402.07702,211.83843 402.95702,212.63842 403.83701,213.43842 C 404.397,213.99841 405.037,214.55841 405.597,215.03841 L 405.037,215.11841 C 406.23699,213.19842 407.27698,211.35843 408.23698,209.75845 L 408.47697,209.43845 L 408.71697,209.67845 C 409.99696,211.11844 411.03696,212.31843 411.67695,213.11842 C 412.39695,213.91842 412.79694,214.39841 412.71694,214.47841 z"/><path id="path283" fill="#242d38" fill-opacity="1" fill-rule="nonzero" stroke="none" d="M 464.55656,248.15816 C 464.47656,248.15816 464.07656,247.67817 463.43657,246.87817 C 462.71657,245.99818 461.83658,244.79819 460.71659,243.2782 L 461.11658,243.2782 C 459.99659,244.71819 458.7166,246.47817 457.35661,248.23816 L 457.11661,248.55816 L 456.79662,248.23816 C 456.31662,247.67817 455.83662,247.11817 455.27663,246.47817 C 454.47663,245.51818 453.75664,244.55819 453.03664,243.67819 L 453.51664,243.67819 C 452.15665,245.51818 450.95666,247.19817 449.83667,248.71816 L 449.59667,249.03816 L 449.43667,248.71816 C 447.75668,246.07818 446.79669,244.39819 446.87669,244.39819 C 446.95669,244.31819 448.07668,245.83818 449.83667,248.39816 L 449.43667,248.39816 C 450.47666,246.87817 451.67665,245.19818 452.95664,243.2782 L 453.27664,242.9582 L 453.51664,243.2782 C 454.23664,244.15819 455.03663,245.03818 455.83662,245.99818 C 456.31662,246.63817 456.87662,247.27817 457.35661,247.83816 L 456.79662,247.83816 C 458.23661,246.07818 459.5166,244.39819 460.71659,242.9582 L 460.95659,242.6382 L 461.11658,242.9582 C 462.23658,244.47819 463.11657,245.75818 463.67657,246.63817 C 464.23656,247.59817 464.55656,248.07816 464.55656,248.15816 z"/><path id="path285" fill="#d9d7d4" fill-opacity="1" fill-rule="nonzero" stroke="none" d="M 432.4768,245.43818 C 432.3968,245.43818 431.9168,245.11818 431.11681,244.47819 C 430.23681,243.75819 429.03682,242.7982 427.59683,241.59821 L 427.99683,241.51821 C 427.27683,243.1982 426.39684,245.19818 425.51685,247.27817 L 425.35685,247.67817 L 425.03685,247.43817 C 424.39686,246.95817 423.75686,246.47817 423.11687,245.99818 C 422.07687,245.27818 421.11688,244.55819 420.23689,243.91819 L 420.71688,243.75819 C 419.83689,245.91818 419.0369,247.83816 418.3169,249.51815 L 418.2369,249.83815 L 417.9169,249.59815 C 415.67692,247.43817 414.31693,246.07818 414.39693,245.99818 C 414.47693,245.91818 415.99692,247.19817 418.3169,249.19815 L 417.8369,249.35815 C 418.5569,247.59817 419.27689,245.67818 420.07689,243.5182 L 420.23689,243.1182 L 420.63688,243.3582 C 421.51688,244.07819 422.55687,244.71819 423.51686,245.43818 C 424.15686,245.91818 424.79685,246.39817 425.43685,246.87817 L 424.87685,247.03817 C 425.83685,244.95819 426.71684,242.9582 427.51683,241.27821 L 427.67683,240.95822 L 427.91683,241.19821 C 429.35682,242.3982 430.47681,243.4382 431.27681,244.23819 C 432.0768,244.95819 432.4768,245.35818 432.4768,245.43818 z"/><path id="path287" fill="#d9d7d4" fill-opacity="1" fill-rule="nonzero" stroke="none" d="M 478.39646,237.91824 C 478.31646,237.91824 478.15646,237.35824 477.99646,236.23825 C 477.83646,235.19826 477.67646,233.67827 477.43646,231.75828 L 477.75646,231.99828 C 476.07647,232.71828 474.15649,233.59827 472.0765,234.47826 L 471.67651,234.63826 L 471.59651,234.23826 C 471.43651,233.51827 471.27651,232.71828 471.11651,231.91828 C 470.95651,230.71829 470.71651,229.5183 470.47651,228.39831 L 470.95651,228.63831 C 468.87653,229.5983 466.95654,230.39829 465.27655,231.19829 L 464.95656,231.35829 L 464.95656,230.95829 C 464.79656,227.83831 464.71656,225.91833 464.87656,225.91833 C 464.95656,225.91833 465.19655,227.83831 465.43655,230.87829 L 465.11655,230.71829 C 466.71654,229.9183 468.63653,229.0383 470.71651,227.99831 L 471.11651,227.83831 L 471.19651,228.23831 C 471.35651,229.3583 471.59651,230.55829 471.8365,231.75828 C 471.9965,232.55828 472.0765,233.35827 472.2365,234.07827 L 471.75651,233.83827 C 473.91649,232.95827 475.83648,232.15828 477.59646,231.51829 L 477.91646,231.35829 L 477.99646,231.67828 C 478.15646,233.59827 478.23646,235.11826 478.31646,236.23825 C 478.39646,237.27824 478.39646,237.91824 478.39646,237.91824 z"/><path id="path289" fill="#242d38" fill-opacity="1" fill-rule="nonzero" stroke="none" d="M 414.39693,223.67834 C 414.47693,223.75834 413.91693,224.07834 412.95694,224.55834 C 412.07695,225.11833 410.71696,225.83833 409.03697,226.71832 L 409.11697,226.31832 C 410.39696,227.67831 411.91695,229.1983 413.43694,230.79829 L 413.75694,231.11829 L 413.43694,231.35829 C 412.71694,231.75828 412.07695,232.15828 411.43695,232.55828 C 410.31696,233.19827 409.27697,233.83827 408.31698,234.39826 L 408.39697,233.91827 C 409.99696,235.51826 411.51695,236.95824 412.79694,238.31823 L 413.03694,238.55823 L 412.71694,238.71823 C 409.91696,239.91822 408.07698,240.63822 408.07698,240.55822 C 407.99698,240.47822 409.75696,239.59823 412.47694,238.23824 L 412.39695,238.63823 C 411.11695,237.43824 409.59697,235.91825 407.91698,234.39826 L 407.59698,234.07827 L 407.99698,233.83827 C 408.95697,233.19827 409.99696,232.63828 411.03696,231.99828 C 411.75695,231.51829 412.39695,231.11829 413.03694,230.71829 L 412.95694,231.27829 C 411.43695,229.5983 409.99696,228.07831 408.71697,226.71832 L 408.39697,226.39832 L 408.79697,226.23832 C 410.47696,225.43833 411.83695,224.71834 412.87694,224.31834 C 413.83693,223.83834 414.39693,223.59834 414.39693,223.67834 z"/><path id="path291" fill="#d9d7d4" fill-opacity="1" fill-rule="nonzero" stroke="none" d="M 438.87675,252.63813 C 438.95675,252.71813 438.39675,253.03813 437.43676,253.59812 C 436.55677,254.07812 435.19678,254.87811 433.51679,255.75811 L 433.59679,255.27811 C 434.87678,256.6381 436.31677,258.15809 437.91676,259.75808 L 438.23675,260.07807 L 437.83676,260.31807 C 437.19676,260.71807 436.55677,261.11807 435.83677,261.51806 C 434.79678,262.15806 433.75679,262.79805 432.79679,263.35805 L 432.87679,262.87805 C 434.47678,264.47804 435.99677,265.99803 437.27676,267.27802 L 437.51676,267.51802 L 437.19676,267.67802 C 434.39678,268.95801 432.5568,269.678 432.5568,269.598 C 432.4768,269.438 434.15678,268.55801 436.95676,267.19802 L 436.87676,267.59802 C 435.59677,266.39803 434.07678,264.95804 432.3968,263.35805 L 432.0768,263.03805 L 432.4768,262.79805 C 433.43679,262.23806 434.47678,261.59806 435.51677,260.95807 C 436.23677,260.55807 436.87676,260.15807 437.51676,259.75808 L 437.43676,260.23807 C 435.91677,258.55808 434.47678,257.0381 433.19679,255.67811 L 432.87679,255.43811 L 433.27679,255.19811 C 434.95678,254.39812 436.31677,253.75812 437.35676,253.27812 C 438.31675,252.79813 438.87675,252.63813 438.87675,252.63813 z"/><path id="path293" fill="#d9d7d4" fill-opacity="1" fill-rule="nonzero" stroke="none" d="M 390.31711,252.23813 C 390.23711,252.23813 390.07711,251.67814 389.83711,250.63814 C 389.51711,249.59815 389.19712,248.07816 388.79712,246.23818 L 389.19712,246.39817 C 387.51713,247.35817 385.67714,248.31816 383.67716,249.43815 L 383.27716,249.59815 L 383.19716,249.19815 C 382.95716,248.47816 382.79716,247.75816 382.55717,246.95817 C 382.23717,245.75818 381.91717,244.63819 381.59717,243.5182 L 382.07717,243.67819 C 380.07718,244.87819 378.2372,245.83818 376.63721,246.79817 L 376.31721,246.95817 L 376.23721,246.55817 C 375.83722,243.5182 375.59722,241.59821 375.75722,241.59821 C 375.83722,241.59821 376.23721,243.4382 376.79721,246.47817 L 376.39721,246.31818 C 377.9972,245.35818 379.75719,244.31819 381.75717,243.1182 L 382.15717,242.8782 L 382.23717,243.3582 C 382.55717,244.39819 382.87716,245.59818 383.19716,246.79817 C 383.43716,247.51817 383.67716,248.31816 383.83716,249.03816 L 383.35716,248.79816 C 385.35715,247.75816 387.27713,246.79817 388.95712,245.91818 L 389.27712,245.75818 L 389.35712,246.15818 C 389.67711,247.99816 389.91711,249.51815 390.07711,250.55814 C 390.31711,251.67814 390.31711,252.23813 390.31711,252.23813 z"/><path id="path295" fill="#242d38" fill-opacity="1" fill-rule="nonzero" stroke="none" d="M 412.55694,264.87804 C 412.47694,264.87804 412.31695,264.23804 412.07695,263.19805 C 411.83695,262.15806 411.43695,260.63807 411.03696,258.79808 L 411.43695,259.03808 C 409.83696,259.91807 407.99698,260.95807 405.99699,261.99806 L 405.597,262.23806 L 405.437,261.83806 C 405.277,261.11807 405.037,260.31807 404.797,259.51808 C 404.477,258.39809 404.15701,257.19809 403.83701,256.0781 L 404.31701,256.3181 C 402.31702,257.43809 400.55703,258.47809 398.95704,259.35808 L 398.63705,259.51808 L 398.55705,259.19808 C 398.07705,256.0781 397.91705,254.23812 397.99705,254.15812 C 398.07705,254.15812 398.47705,256.0781 399.03704,259.11808 L 398.63705,258.87808 C 400.23704,257.99809 402.07702,256.8781 403.99701,255.67811 L 404.397,255.51811 L 404.477,255.9181 C 404.797,257.0381 405.117,258.15809 405.517,259.35808 C 405.67699,260.15807 405.91699,260.87807 406.15699,261.59806 L 405.597,261.43806 C 407.67698,260.39807 409.51697,259.35808 411.19695,258.55808 L 411.51695,258.31809 L 411.59695,258.71808 C 411.91695,260.55807 412.23695,262.07806 412.39695,263.19805 C 412.55694,264.23804 412.63694,264.87804 412.55694,264.87804 z"/><path id="path297" fill="#d9d7d4" fill-opacity="1" fill-rule="nonzero" stroke="none" d="M 379.99719,292.63783 C 379.91719,292.63783 379.75719,292.07784 379.43719,290.95784 C 379.19719,289.91785 378.87719,288.39786 378.4772,286.55788 L 378.87719,286.79788 C 377.19721,287.67787 375.35722,288.71786 373.35723,289.75785 L 372.95724,289.99785 L 372.87724,289.59785 C 372.63724,288.87786 372.47724,288.07787 372.23724,287.35787 C 371.91725,286.15788 371.59725,284.95789 371.27725,283.8379 L 371.75725,284.0779 C 369.75726,285.19789 367.91727,286.23788 366.31729,287.11787 L 365.99729,287.27787 L 365.91729,286.95787 C 365.51729,283.9179 365.27729,281.99791 365.35729,281.91791 C 365.51729,281.91791 365.91729,283.8379 366.47729,286.87787 L 366.07729,286.63788 C 367.67728,285.75788 369.43726,284.63789 371.43725,283.5179 L 371.75725,283.2779 L 371.91725,283.6779 C 372.23724,284.79789 372.55724,285.91788 372.87724,287.11787 C 373.11724,287.91787 373.35723,288.63786 373.51723,289.35786 L 373.03724,289.19786 C 375.03722,288.15787 376.95721,287.11787 378.5572,286.31788 L 378.95719,286.07788 L 379.03719,286.47788 C 379.35719,288.31786 379.59719,289.83785 379.75719,290.95784 C 379.91719,291.99784 379.99719,292.63783 379.99719,292.63783 z"/><path id="path299" fill="#242d38" fill-opacity="1" fill-rule="nonzero" stroke="none" d="M 380.55718,263.51805 C 380.55718,263.51805 380.07718,263.19805 379.19719,262.55806 C 378.3172,261.83806 377.11721,260.87807 375.67722,259.75808 L 376.07721,259.59808 C 375.35722,261.35806 374.55723,263.27805 373.67723,265.43803 L 373.51723,265.83803 L 373.11724,265.51803 C 372.55724,265.11804 371.91725,264.63804 371.27725,264.15804 C 370.23726,263.43805 369.27726,262.79805 368.31727,262.07806 L 368.87727,261.91806 C 367.99727,264.07804 367.19728,265.99803 366.55728,267.75802 L 366.39729,268.07801 L 366.07729,267.83802 C 363.8373,265.67803 362.47731,264.31804 362.55731,264.23804 C 362.63731,264.23804 364.0773,265.43803 366.47729,267.43802 L 365.99729,267.51802 C 366.63728,265.83803 367.43728,263.83805 368.23727,261.67806 L 368.39727,261.27806 L 368.71727,261.51806 C 369.67726,262.23806 370.63725,262.87805 371.67725,263.59805 C 372.31724,264.07804 372.95724,264.55804 373.51723,264.95804 L 373.03724,265.11804 C 373.99723,263.03805 374.79722,261.11807 375.59722,259.43808 L 375.75722,259.03808 L 375.99721,259.27808 C 377.4372,260.55807 378.6372,261.51806 379.43719,262.31806 C 380.23718,263.03805 380.63718,263.43805 380.55718,263.51805 z"/><path id="path301" fill="#242d38" fill-opacity="1" fill-rule="nonzero" stroke="none" d="M 392.23709,264.23804 C 392.23709,264.31804 391.7571,264.71804 390.8771,265.27803 C 389.99711,265.91803 388.63712,266.71802 387.03713,267.75802 L 387.11713,267.27802 C 388.47712,268.47801 390.07711,269.918 391.7571,271.43799 L 392.0771,271.75799 L 391.7571,271.99799 C 391.1171,272.39798 390.47711,272.87798 389.83711,273.35798 C 388.79712,274.07797 387.83713,274.71797 386.87713,275.43796 L 386.95713,274.87796 C 388.63712,276.39795 390.23711,277.75794 391.5971,278.95793 L 391.9171,279.19793 L 391.5971,279.35793 C 388.87712,280.79792 387.11713,281.67791 387.03713,281.59791 C 387.03713,281.51791 388.63712,280.47792 391.3571,278.95793 L 391.2771,279.35793 C 389.91711,278.15794 388.23712,276.87795 386.47714,275.35796 L 386.15714,275.11796 L 386.55714,274.87796 C 387.43713,274.15797 388.39712,273.51797 389.43712,272.79798 C 390.07711,272.31798 390.71711,271.83799 391.3571,271.43799 L 391.3571,271.91799 C 389.67711,270.398 388.07713,268.95801 386.71714,267.67802 L 386.47714,267.43802 L 386.79713,267.27802 C 388.39712,266.31803 389.75711,265.51803 390.71711,265.03804 C 391.6771,264.47804 392.23709,264.23804 392.23709,264.23804 z"/><path id="path303" fill="#d9d7d4" fill-opacity="1" fill-rule="nonzero" stroke="none" d="M 405.037,273.35798 C 405.117,273.43797 404.797,273.91797 404.15701,274.79796 C 403.51701,275.67796 402.55702,276.87795 401.35703,278.39794 L 401.27703,277.91794 C 403.03701,278.63794 404.957,279.43793 407.11698,280.23792 L 407.51698,280.39792 L 407.27698,280.79792 C 406.79699,281.35792 406.39699,282.07791 405.91699,282.71791 C 405.197,283.7579 404.477,284.71789 403.83701,285.67788 L 403.67701,285.11789 C 405.83699,285.99788 407.83698,286.71788 409.51697,287.35787 L 409.83696,287.51787 L 409.59697,287.75787 C 407.51698,290.07785 406.15699,291.43784 406.07699,291.35784 C 405.99699,291.35784 407.19698,289.83785 409.19697,287.43787 L 409.35697,287.83787 C 407.59698,287.27787 405.597,286.55788 403.43701,285.75788 L 403.03701,285.59788 L 403.27701,285.27789 C 403.91701,284.31789 404.637,283.3579 405.357,282.31791 C 405.75699,281.67791 406.23699,281.03792 406.63699,280.39792 L 406.79699,280.87792 C 404.717,279.99793 402.79702,279.19793 401.03703,278.47794 L 400.71703,278.31794 L 400.95703,277.99794 C 402.15702,276.55795 403.19701,275.35796 403.91701,274.55797 C 404.557,273.75797 405.037,273.35798 405.037,273.35798 z"/><path id="path305" fill="#3a5565" fill-opacity="1" fill-rule="nonzero" stroke="none" d="M 397.75705,295.11781 C 397.75705,295.11781 397.83705,295.27781 397.91705,295.51781 C 397.99705,295.83781 398.15705,296.31781 398.31705,296.8778 C 398.63705,297.99779 399.11704,299.75778 399.59704,301.91776 C 400.15704,304.15775 400.87703,306.87773 401.35703,310.1577 C 401.59703,311.75769 401.43703,313.67768 400.63703,315.35766 C 399.83704,317.03765 398.71705,318.71764 397.19706,320.15763 L 397.27706,319.99763 C 400.79703,336.55751 405.67699,359.75734 411.11695,385.51714 C 416.39692,410.79696 421.03688,433.67679 424.39686,450.31666 C 426.07684,458.5566 427.35683,465.27655 428.23683,469.99652 C 428.71682,472.3165 429.03682,474.07649 429.19682,475.35648 C 429.43682,476.55647 429.51682,477.19647 429.43682,477.19647 C 429.43682,477.19647 429.35682,476.55647 429.03682,475.35648 C 428.79682,474.07649 428.47683,472.3165 427.99683,469.99652 C 427.03684,465.35655 425.59685,458.6366 423.91686,450.39666 C 420.47689,433.75679 415.67692,410.87696 410.39696,385.67714 C 405.117,359.91733 400.23704,336.63751 396.79706,320.07763 L 396.79706,319.91763 L 396.87706,319.83763 C 399.75704,317.03765 401.59703,313.43768 400.95703,310.1577 C 400.55703,306.95773 399.83704,304.23775 399.35704,301.99776 C 398.87705,299.83778 398.47705,298.07779 398.15705,296.8778 C 397.99705,296.31781 397.91705,295.91781 397.83705,295.51781 C 397.75705,295.27781 397.75705,295.11781 397.75705,295.11781 z"/><path id="path307" fill="#3a5565" fill-opacity="1" fill-rule="nonzero" stroke="none" d="M 369.67726,298.31779 C 369.75726,298.31779 369.91726,298.55779 370.07726,299.19778 C 370.31726,299.83778 370.55726,300.71777 370.63725,301.83776 C 370.79725,304.15775 370.23726,307.51772 367.99727,310.3177 C 365.83729,313.19768 362.63731,314.47767 360.39733,314.87767 C 359.27734,315.11767 358.39735,315.11767 357.75735,315.03767 C 357.11735,315.03767 356.71736,314.95767 356.71736,314.87767 C 356.71736,314.71767 358.15735,314.95767 360.31733,314.39767 C 362.47731,313.91767 365.35729,312.55768 367.43728,309.9177 C 369.51726,307.27772 370.15726,304.07775 370.07726,301.91776 C 370.07726,299.67778 369.59726,298.31779 369.67726,298.31779 z"/><path id="path309" fill="#3a5565" fill-opacity="1" fill-rule="nonzero" stroke="none" d="M 391.9971,299.67778 C 391.9971,299.67778 392.0771,299.51778 392.31709,299.35778 C 392.63709,299.19778 393.11709,299.03778 393.67708,299.19778 C 394.23708,299.27778 394.95707,299.83778 395.03707,300.63777 C 395.11707,301.43777 394.71708,302.39776 393.83708,302.79776 C 392.87709,303.19775 391.9171,302.79776 391.4371,302.15776 C 390.8771,301.51777 390.9571,300.63777 391.1971,300.15778 C 391.7571,299.03778 392.63709,299.03778 392.63709,299.11778 C 392.63709,299.19778 391.9971,299.43778 391.6771,300.31778 C 391.5171,300.71777 391.5171,301.35777 391.9171,301.75776 C 392.31709,302.15776 392.95709,302.39776 393.51709,302.15776 C 394.07708,301.91776 394.39708,301.27777 394.39708,300.71777 C 394.31708,300.15778 393.91708,299.75778 393.51709,299.67778 C 392.63709,299.35778 392.0771,299.83778 391.9971,299.67778 z"/><path id="path311" fill="#3a5565" fill-opacity="1" fill-rule="nonzero" stroke="none" d="M 420.23689,302.71776 C 420.23689,302.71776 419.35689,303.35775 417.59691,303.59775 C 415.91692,303.83775 413.43694,303.59775 411.19695,302.15776 C 408.95697,300.71777 407.67698,298.47779 407.27698,296.8778 C 406.79699,295.19781 406.95699,294.15782 407.03698,294.15782 C 407.11698,294.15782 407.11698,295.19781 407.67698,296.7178 C 408.23698,298.23779 409.51697,300.23778 411.51695,301.59777 C 413.59694,302.95776 415.99692,303.19775 417.59691,303.11775 C 419.19689,302.95776 420.15689,302.55776 420.23689,302.71776 z"/><path id="path313" fill="#3a5565" fill-opacity="1" fill-rule="nonzero" stroke="none" d="M 434.87678,506.55625 C 434.87678,506.55625 434.39678,506.63625 433.51679,506.71625 C 432.4768,506.71625 431.27681,506.79625 429.91682,506.87625 C 426.63684,507.03624 422.47687,507.27624 417.9169,507.43624 C 413.35694,507.67624 409.19697,507.91624 405.91699,508.07624 C 404.557,508.15624 403.27701,508.23624 402.31702,508.23624 C 401.43703,508.23624 400.95703,508.23624 400.95703,508.23624 C 400.95703,508.15624 401.43703,508.07624 402.23702,507.99624 C 403.11701,507.83624 404.397,507.75624 405.91699,507.59624 C 408.95697,507.35624 413.19694,507.03624 417.8369,506.79625 C 422.55687,506.55625 426.79684,506.39625 429.83682,506.39625 C 431.4368,506.39625 432.6368,506.39625 433.51679,506.39625 C 434.39678,506.47625 434.87678,506.47625 434.87678,506.55625 z"/><path id="path315" fill="#3a5565" fill-opacity="1" fill-rule="nonzero" stroke="none" d="M 373.99723,313.51768 C 374.15723,313.43768 384.63715,356.71736 397.43706,410.15696 C 410.15696,463.59657 420.39689,506.95624 420.23689,507.03624 C 419.99689,507.03624 409.51697,463.75656 396.71706,410.31696 C 383.99716,356.87736 373.75723,313.51768 373.99723,313.51768 z"/><path id="path317" fill="#3a5565" fill-opacity="1" fill-rule="nonzero" stroke="none" d="M 408.07698,315.19767 C 408.07698,315.19767 408.15698,315.27766 408.31698,315.43766 C 408.47697,315.67766 408.71697,315.99766 408.95697,316.31766 C 409.59697,317.11765 410.39696,318.31764 411.43695,319.75763 C 413.59694,322.71761 416.71691,327.03758 420.47689,332.23754 C 424.23686,337.5975 428.71682,343.91745 433.75679,350.9574 C 436.23677,354.47737 438.79675,358.15735 441.51673,361.99732 C 444.15671,365.83729 446.87669,370.15726 447.59668,375.19722 C 448.31668,380.31718 446.79669,385.19715 445.2767,389.51711 C 443.67671,393.99708 442.07673,398.23705 440.47674,402.23702 C 437.35676,410.23696 434.39678,417.43691 431.8368,423.43686 C 429.27682,429.43682 427.11684,434.23678 425.59685,437.51676 C 424.79685,439.11675 424.23686,440.39674 423.75686,441.35673 C 423.59686,441.75673 423.43686,442.07673 423.27686,442.31672 C 423.19687,442.55672 423.11687,442.63672 423.11687,442.63672 C 423.11687,442.63672 423.11687,442.47672 423.19687,442.31672 C 423.35686,441.99673 423.51686,441.67673 423.67686,441.27673 C 424.07686,440.31674 424.63685,439.03675 425.35685,437.43676 C 426.79684,434.07678 428.87682,429.27682 431.3568,423.19687 C 433.91679,417.19691 436.79676,409.99696 439.91674,401.99702 C 441.43673,397.99705 443.03672,393.75708 444.63671,389.35712 C 446.1567,384.95715 447.59668,380.15718 446.87669,375.27722 C 446.1567,370.39726 443.59671,366.23729 440.95673,362.39732 C 438.23675,358.55734 435.67677,354.79737 433.19679,351.2774 C 428.23683,344.23745 423.83686,337.9175 420.07689,332.55754 C 416.39692,327.27758 413.35694,322.95761 411.27695,319.91763 C 410.23696,318.39764 409.43697,317.27765 408.87697,316.39766 C 408.63697,316.07766 408.39697,315.75766 408.31698,315.51766 C 408.15698,315.27766 408.07698,315.19767 408.07698,315.19767 z"/><path id="path319" fill="#242d38" fill-opacity="1" fill-rule="nonzero" stroke="none" d="M 475.83648,209.35845 L 505.59625,187.67861 L 507.11624,189.99859 L 477.51646,211.99843 L 475.83648,209.35845 z"/><path id="path321" fill="#f89f8c" fill-opacity="1" fill-rule="nonzero" stroke="none" d="M 483.19642,208.71845 C 483.19642,208.71845 487.19639,198.31853 488.07638,196.07855 C 489.03638,193.91856 490.55637,189.99859 491.11636,189.91859 C 491.67636,189.83859 493.75634,190.15859 491.03636,196.79854 C 488.31638,203.43849 494.23634,199.35852 494.23634,199.35852 L 499.9963,195.27855 C 499.9963,195.27855 504.47626,208.79845 501.91628,212.87842 C 499.1163,217.27839 495.11633,221.51836 495.11633,221.51836 L 483.19642,208.71845 z"/></svg>