<svg xmlns="http://www.w3.org/2000/svg" xmlns:xlink="http://www.w3.org/1999/xlink" id="Capa_1" x="0" y="0" enable-background="new 0 0 58 58" version="1.1" viewBox="0 0 58 58" xml:space="preserve"><style type="text/css">.st0{fill:#ffb94a}.st1{fill:#f61}.st2{fill:#fff}</style><g><path d="M44,18.4v21.1c0,2.7-2.2,4.9-4.9,4.9L22,44.5l-10,11v-11H4.9c-2.7,0-4.9-2.2-4.9-4.9V18.5 c0-2.7,2.2-4.9,4.9-4.9l34.1-0.1C41.8,13.5,44,15.7,44,18.4z" class="st0"/><path d="M53.1,2.5L18.9,2.5c-2.7,0-4.9,2.2-4.9,4.9v6.1l25.1-0.1c2.7,0,4.9,2.2,4.9,4.9v18.4l7,7.7v-11h2.1 c2.7,0,4.9-2.2,4.9-4.9V7.5C58,4.7,55.8,2.5,53.1,2.5z" class="st1"/><circle cx="11" cy="29.5" r="3" class="st2"/><circle cx="22" cy="29.5" r="3" class="st2"/><circle cx="33" cy="29.5" r="3" class="st2"/></g></svg>