<svg xmlns="http://www.w3.org/2000/svg" xmlns:xlink="http://www.w3.org/1999/xlink" id="Capa_1" x="0" y="0" enable-background="new 0 0 58 58" version="1.1" viewBox="0 0 58 58" xml:space="preserve"><style type="text/css">.st0{fill:#f61}.st1{fill:#ffb94a}.st2{fill:#efce4a}.st3{fill:#fff}</style><rect width="42" height="46" x="8" y="6" class="st0"/><g><rect width="4" height="38" x="50" y="10" class="st1"/><rect width="4" height="38" x="4" y="10" class="st1"/></g><g><rect width="4" height="30" x="54" y="14" class="st2"/><rect width="4" height="30" y="14" class="st2"/></g><path d="M43.6,12.2c-0.2-0.2-0.5-0.3-0.8-0.2l-19,3c-0.5,0.1-0.8,0.5-0.8,1v3.3V22v13.7c-1.2-1-2.8-1.7-4.5-1.7	c-3.6,0-6.5,2.7-6.5,6s2.9,6,6.5,6c3.5,0,6.4-2.6,6.5-5.9c0,0,0,0,0,0V22.9l17-2.7v9.5c-1.2-1-2.8-1.7-4.5-1.7c-3.6,0-6.5,2.7-6.5,6	s2.9,6,6.5,6s6.5-2.7,6.5-6V19v-5v-1C44,12.7,43.9,12.4,43.6,12.2z" class="st3"/></svg>