<?xml version="1.0" encoding="utf-8"?>
<!-- Generator: Adobe Illustrator 22.0.1, SVG Export Plug-In . SVG Version: 6.00 Build 0)  -->
<svg version="1.1" id="Layer_1" xmlns="http://www.w3.org/2000/svg" xmlns:xlink="http://www.w3.org/1999/xlink" x="0px" y="0px"
	 viewBox="0 0 512.9 512.9" style="enable-background:new 0 0 512.9 512.9;" xml:space="preserve">
<style type="text/css">
	.st0{fill:#E8EDEE;}
	.st1{fill:#37474F;}
	.st2{fill:#FF6611;}
	.st3{fill:#FFB94A;}
	.st4{fill:#42B05C;}
	.st5{fill:#7383BF;}
</style>
<path class="st0" d="M0,106.4V493c0,10.6,8.8,19.4,19.4,19.4h104.2h264.8h104.2c10.6,0,19.4-8.8,19.4-19.4V106.4H0z"/>
<path class="st1" d="M512,106.4H0V17.2C0,7.5,7.1,0.4,16.8,0.4h479.3c8.8,0,16.8,7.1,16.8,16.8v89.2
	C512.9,106.4,512,106.4,512,106.4z"/>
<path class="st2" d="M79.4,53.4c0,15-11.5,26.5-26.5,26.5S26.5,68.4,26.5,53.4S38,26.9,53,26.9S79.4,38.4,79.4,53.4"/>
<path class="st3" d="M158.9,53.4c0,15-11.5,26.5-26.5,26.5s-26.5-11.5-26.5-26.5s11.5-26.5,26.5-26.5
	C147.4,26.9,158.9,38.4,158.9,53.4"/>
<path class="st4" d="M238.3,53.4c0,15-11.5,26.5-26.5,26.5s-26.5-11.5-26.5-26.5s11.5-26.5,26.5-26.5
	C226.9,26.9,238.3,38.4,238.3,53.4"/>
<path class="st5" d="M158.9,177H44.1c-5.3,0-8.8-3.5-8.8-8.8s3.5-8.8,8.8-8.8h114.8c5.3,0,8.8,3.5,8.8,8.8S164.2,177,158.9,177"/>
<path class="st3" d="M282.5,177h-88.3c-5.3,0-8.8-3.5-8.8-8.8s3.5-8.8,8.8-8.8h88.3c5.3,0,8.8,3.5,8.8,8.8S287.8,177,282.5,177"/>
<path class="st4" d="M335.4,177h-17.7c-5.3,0-8.8-3.5-8.8-8.8s3.5-8.8,8.8-8.8h17.7c5.3,0,8.8,3.5,8.8,8.8S340.7,177,335.4,177"/>
<path class="st5" d="M379.6,212.3H247.2c-5.3,0-8.8-3.5-8.8-8.8s3.5-8.8,8.8-8.8h132.4c5.3,0,8.8,3.5,8.8,8.8
	S384.9,212.3,379.6,212.3"/>
<g>
	<path class="st2" d="M211.9,212.3H88.3c-5.3,0-8.8-3.5-8.8-8.8s3.5-8.8,8.8-8.8h123.6c5.3,0,8.8,3.5,8.8,8.8
		S217.2,212.3,211.9,212.3"/>
	<path class="st2" d="M53,212.3h-8.8c-5.3,0-8.8-3.5-8.8-8.8s3.5-8.8,8.8-8.8H53c5.3,0,8.8,3.5,8.8,8.8S58.3,212.3,53,212.3"/>
</g>
<path class="st5" d="M123.6,247.6H44.1c-5.3,0-8.8-3.5-8.8-8.8s3.5-8.8,8.8-8.8h79.4c5.3,0,8.8,3.5,8.8,8.8S128.9,247.6,123.6,247.6
	"/>
<path class="st3" d="M176.6,247.6h-17.7c-5.3,0-8.8-3.5-8.8-8.8s3.5-8.8,8.8-8.8h17.7c5.3,0,8.8,3.5,8.8,8.8
	S181.8,247.6,176.6,247.6"/>
<path class="st4" d="M335.4,247.6H211.9c-5.3,0-8.8-3.5-8.8-8.8s3.5-8.8,8.8-8.8h123.6c5.3,0,8.8,3.5,8.8,8.8
	S340.7,247.6,335.4,247.6"/>
<path class="st2" d="M158.9,282.9H44.1c-5.3,0-8.8-3.5-8.8-8.8s3.5-8.8,8.8-8.8h114.8c5.3,0,8.8,3.5,8.8,8.8
	C167.7,279.4,164.2,282.9,158.9,282.9"/>
<path class="st5" d="M282.5,282.9h-88.3c-5.3,0-8.8-3.5-8.8-8.8s3.5-8.8,8.8-8.8h88.3c5.3,0,8.8,3.5,8.8,8.8
	C291.3,279.4,287.8,282.9,282.5,282.9"/>
<path class="st3" d="M282.5,318.2h-35.3c-5.3,0-8.8-3.5-8.8-8.8s3.5-8.8,8.8-8.8h35.3c5.3,0,8.8,3.5,8.8,8.8
	C291.3,314.7,287.8,318.2,282.5,318.2"/>
<path class="st4" d="M211.9,318.2H88.3c-5.3,0-8.8-3.5-8.8-8.8s3.5-8.8,8.8-8.8h123.6c5.3,0,8.8,3.5,8.8,8.8
	S217.2,318.2,211.9,318.2"/>
<path class="st3" d="M53,318.2h-8.8c-5.3,0-8.8-3.5-8.8-8.8s3.5-8.8,8.8-8.8H53c5.3,0,8.8,3.5,8.8,8.8
	C61.8,314.7,58.3,318.2,53,318.2"/>
<path class="st2" d="M123.6,353.5H44.1c-5.3,0-8.8-3.5-8.8-8.8s3.5-8.8,8.8-8.8h79.4c5.3,0,8.8,3.5,8.8,8.8S128.9,353.5,123.6,353.5
	"/>
<path class="st3" d="M176.6,353.5h-17.7c-5.3,0-8.8-3.5-8.8-8.8s3.5-8.8,8.8-8.8h17.7c5.3,0,8.8,3.5,8.8,8.8
	S181.8,353.5,176.6,353.5"/>
<path class="st5" d="M273.7,353.5h-61.8c-5.3,0-8.8-3.5-8.8-8.8s3.5-8.8,8.8-8.8h61.8c5.3,0,8.8,3.5,8.8,8.8S279,353.5,273.7,353.5"
	/>
<path class="st4" d="M158.9,388.9H44.1c-5.3,0-8.8-3.5-8.8-8.8s3.5-8.8,8.8-8.8h114.8c5.3,0,8.8,3.5,8.8,8.8
	S164.2,388.9,158.9,388.9"/>
<path class="st3" d="M238.3,388.9h-44.1c-5.3,0-8.8-3.5-8.8-8.8s3.5-8.8,8.8-8.8h44.1c5.3,0,8.8,3.5,8.8,8.8
	S243.6,388.9,238.3,388.9"/>
<path class="st2" d="M211.9,424.2H88.3c-5.3,0-8.8-3.5-8.8-8.8s3.5-8.8,8.8-8.8h123.6c5.3,0,8.8,3.5,8.8,8.8
	S217.2,424.2,211.9,424.2"/>
<path class="st5" d="M53,424.2h-8.8c-5.3,0-8.8-3.5-8.8-8.8s3.5-8.8,8.8-8.8H53c5.3,0,8.8,3.5,8.8,8.8S58.3,424.2,53,424.2"/>
<path class="st4" d="M123.6,459.5H44.1c-5.3,0-8.8-3.5-8.8-8.8s3.5-8.8,8.8-8.8h79.4c5.3,0,8.8,3.5,8.8,8.8S128.9,459.5,123.6,459.5
	"/>
<path class="st3" d="M176.6,459.5h-17.7c-5.3,0-8.8-3.5-8.8-8.8s3.5-8.8,8.8-8.8h17.7c5.3,0,8.8,3.5,8.8,8.8
	S181.8,459.5,176.6,459.5"/>
<path class="st5" d="M256,459.5h-44.1c-5.3,0-8.8-3.5-8.8-8.8s3.5-8.8,8.8-8.8H256c5.3,0,8.8,3.5,8.8,8.8S261.3,459.5,256,459.5"/>
<path class="st1" d="M500.5,488.6l-60-60l57.4-28.2L342.5,343l57.4,155.4l28.2-57.4l60,60c1.8,1.8,4.4,2.6,6.2,2.6
	c1.8,0,4.4-0.9,6.2-2.6C504.1,497.4,504.1,492.1,500.5,488.6"/>
</svg>
