<?xml version="1.0" encoding="utf-8"?>
<!-- Generator: Adobe Illustrator 22.0.1, SVG Export Plug-In . SVG Version: 6.00 Build 0)  -->
<svg version="1.1" id="svg2" xmlns="http://www.w3.org/2000/svg" xmlns:xlink="http://www.w3.org/1999/xlink" x="0px" y="0px"
	 viewBox="0 0 110 28.2" style="enable-background:new 0 0 110 28.2;" xml:space="preserve">
<style type="text/css">
	.st0{fill:#FFB94A;}
	.st1{fill:#FF6611;}
</style>
<title>mozilla</title>
<g id="g3975">
	<rect id="rect3971" x="-5.7" y="-1.4" class="st0" width="121.7" height="31.1"/>
	<path id="path3973" class="st1" d="M105.1,20.3c-0.2,0-0.4,0.1-0.6,0.1c-0.6,0-0.9-0.2-0.9-1v-5.3c0-2.8-2.5-4.2-5.4-4.2
		c-2,0-4,0.3-5.9,1.1l-0.5,2.8l3.1,0.3l0.4-1.4c0.7-0.3,1.4-0.4,2.1-0.4c2.2,0,2.2,1.5,2.2,2.8v0.4c-0.7-0.1-1.5-0.1-2.2-0.1
		c-3.1,0-6.4,0.7-6.4,3.7c0,2.6,2.2,3.5,4.2,3.5c1.8,0,3.5-0.9,4.4-2.5c0.1,1.5,1.4,2.6,2.9,2.5c0,0,0.1,0,0.1,0
		c0.9,0,1.7-0.2,2.5-0.6L105.1,20.3z M96.7,20.2c-1.2,0-1.6-0.6-1.6-1.4c0-1.3,1.2-1.7,2.6-1.7c0.7,0,1.3,0.1,2,0.2
		c0,1.6-1.3,2.9-2.9,2.9C96.8,20.2,96.7,20.2,96.7,20.2z M91.4,3.7l-5.9,18.7h-3.9l5.9-18.7H91.4z M83.4,3.7l-5.9,18.7h-3.9
		l5.9-18.7H83.4z M66.9,10.2h4.1v4.4h-4.1V10.2z M66.9,18h4.1v4.4h-4.1V18z M60.9,17.9l3.1,0.3l-0.8,4.3h-12l-0.4-1.9l7.5-7.8h-4.3
		l-0.6,1.9l-2.8-0.3l0.5-4.3h12l0.4,1.9l-7.6,7.8h4.4L60.9,17.9z M41.3,9.9c-4.9,0-7.4,3-7.4,6.6c0,3.9,2.9,6.2,7.2,6.2
		c4.4,0,7.5-2.5,7.5-6.4C48.6,12.9,46.2,9.9,41.3,9.9z M41.2,20c-2.1,0-3.2-1.6-3.2-3.8c0-2.3,1.2-3.6,3.3-3.6s3.3,1.1,3.3,3.6
		S43.2,20,41.2,20z M30.4,19.8h1.8v2.7h-5.8v-6.9c0-2.1-0.8-2.9-2.4-2.9c-1.9,0-2.6,1.2-2.6,2.9v4.3h1.8v2.7h-5.8v-6.9
		c0-2.1-0.8-2.9-2.3-2.9c-1.9,0-2.6,1.2-2.6,2.9v4.3h2.6v2.7H6.8v-2.7h1.8v-6.9H6.8v-2.7h5.7V12c0.9-1.4,2.5-2.2,4.2-2.1
		c1.9-0.2,3.7,0.9,4.5,2.6c0.8-1.7,2.6-2.8,4.5-2.6c2.5,0,4.7,1.3,4.7,4.2L30.4,19.8L30.4,19.8z"/>
</g>
</svg>
