<?xml version="1.0" encoding="utf-8"?>
<!-- Generator: Adobe Illustrator 22.0.1, SVG Export Plug-In . SVG Version: 6.00 Build 0)  -->
<svg version="1.1" id="Layer_1" xmlns="http://www.w3.org/2000/svg" xmlns:xlink="http://www.w3.org/1999/xlink" x="0px" y="0px"
	 viewBox="0 0 512 512" style="enable-background:new 0 0 512 512;" xml:space="preserve">
<style type="text/css">
	.st0{fill:#F09372;}
	.st1{fill:#FDD7AD;}
	.st2{fill:#FFB94A;}
	.st3{fill:#FF6611;}
	.st4{fill:#2C2F38;}
	.st5{fill:#D1D4D1;}
	.st6{fill:#AF8066;}
	.st7{fill:#E6E7E8;}
</style>
<path class="st0" d="M194.2,153.4v18.5c1.3,22.4,18.8,40.4,41.1,42.5l35.4,3.6c21.7,2.2,38.2,20.5,38.2,42.4v41.5
	c0,8.8-7.2,16-16,16H16c-8.8,0-16-7.2-16-16v-41.5c0-21.8,16.5-40.1,38.2-42.4l29.5-3.6c21.7-2.3,38.2-20.6,38.2-42.5v-18.5H194.2z"
	/>
<path class="st1" d="M150.1,0h10.7c28.6,0.9,51.3,24.4,51.1,53v6.5c5.2-2.6,3.9-3.1,8.8-1.1c11.2,4.9,14.9,21.5,8.2,37.1
	c-5.3,12.4-8.6,20.6-18.1,21c-5,30.1-29.1,60-60.7,60c-31.6,0-55.7-29.9-60.7-60c-9.5-0.4-12.8-8.6-18.1-21
	c-6.7-15.6-3-32.2,8.2-37.1c4.9-2,3.6-1.6,8.8,1.1V53c-0.2-28.6,22.5-52.1,51.1-53H150.1z"/>
<path class="st2" d="M309,260.3v41.5c0,8.8-7.2,16-16,16H16c-8.8,0-16-7.2-16-16v-41.5c0-21.8,16.5-40.1,38.2-42.4l22.6-2.7
	c14.9,18.8,49.3,32,89.2,32c40.3,0,74.9-13.4,89.6-32.4l31.1,3.2C292.5,220.2,309,238.5,309,260.3z"/>
<path class="st0" d="M397.2,153.4v18.5c1.3,22.4,18.8,40.4,41.1,42.5l35.4,3.6c21.7,2.2,38.2,20.5,38.2,42.4v41.5
	c0,4.2-1.7,8.3-4.7,11.3s-7.1,4.7-11.3,4.7H219c-8.8,0-16-7.2-16-16v-41.5c0-21.8,16.5-40.1,38.2-42.4l29.5-3.6
	c21.7-2.3,38.2-20.6,38.2-42.5v-18.5H397.2z"/>
<path class="st1" d="M353.1,0h10.7c28.6,0.9,51.3,24.4,51.1,53v6.5c5.2-2.6,3.9-3.1,8.8-1.1c11.2,4.9,14.9,21.5,8.2,37.1
	c-5.3,12.4-8.6,20.6-18.1,21c-5,30.1-29.1,60-60.7,60c-31.6,0-55.7-29.9-60.7-60c-9.5-0.4-12.8-8.6-18.1-21
	c-6.7-15.6-3-32.2,8.2-37.1c4.9-2,3.6-1.6,8.8,1.1V53c-0.2-28.6,22.5-52.1,51.1-53H353.1z"/>
<path class="st3" d="M512,260.3v41.5c0,4.2-1.7,8.3-4.7,11.3s-7.1,4.7-11.3,4.7H219c-8.8,0-16-7.2-16-16v-41.5
	c0-21.8,16.5-40.1,38.2-42.4l22.6-2.7c14.9,18.8,49.3,32,89.2,32c40.3,0,74.9-13.4,89.6-32.4l31.1,3.2
	C495.5,220.2,512,238.5,512,260.3z"/>
<path class="st0" d="M304.7,342.4v2.8c0,25,18.9,45.9,43.7,48.5l22.8,4.2c24.8,2.6,43.7,23.5,43.7,48.5v47.3c0,4.9-1.9,9.5-5.3,12.9
	c-3.4,3.4-8.1,5.3-12.9,5.3H115.4c-4.9,0-9.5-1.9-12.9-5.3c-3.4-3.4-5.4-8.1-5.3-12.9v-47.3c0-25,18.9-45.9,43.7-48.5l22.8-4.2
	c24.8-2.6,43.7-23.5,43.7-48.5v-2.8H304.7z"/>
<path class="st4" d="M414.9,446.4v47.3c0,4.9-1.9,9.5-5.3,12.9c-3.4,3.4-8.1,5.3-12.9,5.3H264.8v-44.1c9.7,0,17.6-7.9,17.7-17.7
	v-8.8c0-9.6-7.8-17.5-17.4-17.7l9.2-15.2l17,41.7l62.7-55.4l17.2,3.2C396,400.5,414.9,421.4,414.9,446.4z"/>
<path class="st4" d="M264.8,467.9V512H115.4c-4.9,0-9.5-1.9-12.9-5.3c-3.4-3.4-5.4-8.1-5.3-12.9v-47.3c0-25,18.9-45.9,43.7-48.5
	l17.2-3.2l62.7,55.4l17-41.7l9.2,15.2c-9.6,0.2-17.4,8-17.4,17.7v8.8c0,9.7,7.9,17.6,17.7,17.7H264.8z"/>
<path class="st5" d="M238.3,406.1l17.7,35.3l17.7-35.3l17.7,44.1V512h-70.6v-61.8L238.3,406.1z"/>
<path class="st3" d="M247.2,423.7h17.7c9.8,0,17.7,7.9,17.7,17.7v8.8c0,9.8-7.9,17.7-17.7,17.7h-17.7c-9.8,0-17.7-7.9-17.7-17.7
	v-8.8C229.5,431.6,237.4,423.7,247.2,423.7z"/>
<path class="st3" d="M286.5,512l-16.8-44.8h-27.4L225.5,512H286.5z"/>
<path class="st1" d="M185.4,292.2c0,39,31.6,70.6,70.6,70.7c39,0,70.6-31.6,70.7-70.6c14.6-6.5,24.6-20.2,26.5-36
	c0-24.5-14.8-26.6-26.5-20.1v-24.3c0-29.3-23.7-53-53-53h-35.3c-29.2,0-53,23.7-53,53v24.2c-11.8-6.4-26.5-4.1-26.5,19.9
	C160.9,271.8,170.9,285.5,185.4,292.2z"/>
<path class="st6" d="M326.6,211.9v23.6c-4.8-4.3-11.2-6.5-17.7-5.9c-33.2,0-35.3-35.3-35.3-35.3s-37.4,35.3-70.6,35.3
	c-6.4-0.5-12.8,1.6-17.7,5.9v-23.6c0-29.3,23.7-53,53-53h35.3C302.9,158.9,326.6,182.6,326.6,211.9z"/>
<g>
	<path class="st7" d="M354,394.8l-62.7,55.4l-17.7-44.1l45.9-25.9c7.8,7.7,18,12.4,28.9,13.5L354,394.8z"/>
	<path class="st7" d="M238.3,406.1l-17.7,44.1L158,394.8l5.6-1.1c10.9-1.1,21.1-5.9,28.9-13.5L238.3,406.1z"/>
</g>
</svg>
