<?xml version="1.0" encoding="utf-8"?>
<!-- Generator: Adobe Illustrator 22.0.1, SVG Export Plug-In . SVG Version: 6.00 Build 0)  -->
<svg version="1.1" id="Capa_1" xmlns="http://www.w3.org/2000/svg" xmlns:xlink="http://www.w3.org/1999/xlink" x="0px" y="0px"
	 viewBox="0 0 58 58" style="enable-background:new 0 0 58 58;" xml:space="preserve">
<style type="text/css">
	.st0{fill:#FF6611;}
	.st1{fill:#FFB94A;}
	.st2{fill:#EFCE4A;}
	.st3{fill:#FFFFFF;}
</style>
<rect x="8" y="6" class="st0" width="42" height="46"/>
<g>
	<rect x="50" y="10" class="st1" width="4" height="38"/>
	<rect x="4" y="10" class="st1" width="4" height="38"/>
</g>
<g>
	<rect x="54" y="14" class="st2" width="4" height="30"/>
	<rect y="14" class="st2" width="4" height="30"/>
</g>
<path class="st3" d="M43.6,12.2c-0.2-0.2-0.5-0.3-0.8-0.2l-19,3c-0.5,0.1-0.8,0.5-0.8,1v3.3V22v13.7c-1.2-1-2.8-1.7-4.5-1.7
	c-3.6,0-6.5,2.7-6.5,6s2.9,6,6.5,6c3.5,0,6.4-2.6,6.5-5.9c0,0,0,0,0,0V22.9l17-2.7v9.5c-1.2-1-2.8-1.7-4.5-1.7c-3.6,0-6.5,2.7-6.5,6
	s2.9,6,6.5,6s6.5-2.7,6.5-6V19v-5v-1C44,12.7,43.9,12.4,43.6,12.2z"/>
</svg>
